<svg id="Layer_1" data-name="Layer 1" xmlns="http://www.w3.org/2000/svg" viewBox="0 0 65 30"><defs><style>.cls-1{fill:#005495;}.cls-2{fill:#231f20;}.cls-3{fill:#f08921;}.cls-10,.cls-11,.cls-12,.cls-13,.cls-14,.cls-15,.cls-16,.cls-17,.cls-18,.cls-19,.cls-20,.cls-21,.cls-22,.cls-23,.cls-24,.cls-25,.cls-26,.cls-27,.cls-28,.cls-29,.cls-3,.cls-30,.cls-31,.cls-32,.cls-33,.cls-34,.cls-35,.cls-36,.cls-37,.cls-38,.cls-39,.cls-4,.cls-40,.cls-41,.cls-42,.cls-43,.cls-44,.cls-45,.cls-46,.cls-47,.cls-48,.cls-49,.cls-5,.cls-50,.cls-51,.cls-52,.cls-53,.cls-54,.cls-55,.cls-56,.cls-57,.cls-58,.cls-59,.cls-6,.cls-60,.cls-61,.cls-62,.cls-63,.cls-64,.cls-65,.cls-66,.cls-67,.cls-68,.cls-69,.cls-7,.cls-70,.cls-71,.cls-72,.cls-73,.cls-74,.cls-75,.cls-76,.cls-77,.cls-78,.cls-79,.cls-8,.cls-80,.cls-81,.cls-82,.cls-83,.cls-84,.cls-9{fill-rule:evenodd;}.cls-4{fill:#f08a21;}.cls-5{fill:#f08c21;}.cls-6{fill:#f08e20;}.cls-7{fill:#f19020;}.cls-8{fill:#f19120;}.cls-9{fill:#f4941e;}.cls-10{fill:#f4961e;}.cls-11{fill:#f5971e;}.cls-12{fill:#f59722;}.cls-13{fill:#f89a22;}.cls-14{fill:#f59b26;}.cls-15{fill:#f89c27;}.cls-16{fill:#f59b28;}.cls-17{fill:#f59d2a;}.cls-18{fill:#f59d2c;}.cls-19{fill:#f59d32;}.cls-20{fill:#f69f32;}.cls-21{fill:#f89f33;}.cls-22{fill:#f8a036;}.cls-23{fill:#f9a236;}.cls-24{fill:#f9a238;}.cls-25{fill:#f6a138;}.cls-26{fill:#f6a13b;}.cls-27{fill:#f6a33d;}.cls-28{fill:#f6a53d;}.cls-29{fill:#f6a540;}.cls-30{fill:#f9a641;}.cls-31{fill:#f9a643;}.cls-32{fill:#f9a846;}.cls-33{fill:#f7a947;}.cls-34{fill:#f7a949;}.cls-35{fill:#f7a94b;}.cls-36{fill:#f7a94d;}.cls-37{fill:#f7ab4d;}.cls-38{fill:#faac50;}.cls-39{fill:#faad50;}.cls-40{fill:#faad52;}.cls-41{fill:#faad54;}.cls-42{fill:#f7af56;}.cls-43{fill:#f7af59;}.cls-44{fill:#f7af5b;}.cls-45{fill:#fab15b;}.cls-46{fill:#fbb460;}.cls-47{fill:#fbb461;}.cls-48{fill:#fbb464;}.cls-49{fill:#fbb664;}.cls-50{fill:#f8b766;}.cls-51{fill:#fbb868;}.cls-52{fill:#fbb86b;}.cls-53{fill:#fbb86c;}.cls-54{fill:#fbba6d;}.cls-55{fill:#fcbc6d;}.cls-56{fill:#fcbc6f;}.cls-57{fill:#fbbc71;}.cls-58{fill:#fbbc73;}.cls-59{fill:#fbbc74;}.cls-60{fill:#fcbe77;}.cls-61{fill:#fcc077;}.cls-62{fill:#fcc079;}.cls-63{fill:#fcc07b;}.cls-64{fill:#fcc07d;}.cls-65{fill:#fcc37f;}.cls-66{fill:#fcc480;}.cls-67{fill:#fcc481;}.cls-68{fill:#fcc483;}.cls-69{fill:#fcc784;}.cls-70{fill:#fcc785;}.cls-71{fill:#fcc787;}.cls-72{fill:#fdc98a;}.cls-73{fill:#fdc98c;}.cls-74{fill:#fdcb8c;}.cls-75{fill:#fdcb8e;}.cls-76{fill:#fdcb8f;}.cls-77{fill:#fdcd90;}.cls-78{fill:#fdcd94;}.cls-79{fill:#fdcf96;}.cls-80{fill:#fdcf98;}.cls-81{fill:#fdcf9a;}.cls-82{fill:#fdd19d;}.cls-83{fill:#fdd39f;}.cls-84{fill:#ef8721;}</style></defs><path class="cls-1" d="M22.25,18.39c.78,0,1.57,0,2-.77a8.72,8.72,0,0,0,0-4.45c-.44-.92-1.46-.83-2-.83h-1.5v6ZM20,11.27h2.62a4.42,4.42,0,0,1,3,.92,3.66,3.66,0,0,1,.71,2.43v1.57a3.9,3.9,0,0,1-.63,2.33,4,4,0,0,1-2.87.94H18.92v-7c0-.79.42-1.15,1-1.15Z"/><path class="cls-1" d="M36.32,11.28h1.09l3,4.67a10.71,10.71,0,0,1,.54.93v-5.6h1.38v8.18H40.51L36.58,13.4v6.06H35.25v-7c0-.77.27-1.14,1.07-1.14Z"/><path class="cls-1" d="M48.65,14.16a2.15,2.15,0,0,0-.74-1.67,2.46,2.46,0,0,0-2.34,0c-.63.4-.76,1.52-.76,2.53v.79c0,1,.07,2,.85,2.47a2,2,0,0,0,1.22.26,3,3,0,0,0,1.79-.6V16.21H47V15h3.3v3.73a5.77,5.77,0,0,1-3.36.88,4.77,4.77,0,0,1-2.73-.55c-.93-.65-1.17-1.45-1.17-3V14.64c0-1.48.17-2.42,1.12-3a4.54,4.54,0,0,1,2.51-.51c1.65,0,2.25.18,2.72.51a2.74,2.74,0,0,1,.91,2.52Z"/><path class="cls-1" d="M56.65,15h-2.9l.15-.43.07-.2,1.1-3.06.11-.34.13.34,1.1,3.06.08.2.16.43Zm-.2-5.65h-1a1.75,1.75,0,0,0-1.69,1.24l-3.15,8.88h1.63c.08-.36.34-1.24.54-1.86.14-.44.5-1.4.5-1.4h3.76s.38,1,.53,1.44c.22.61.53,1.53.62,1.82h2L56.45,9.34Z"/><path class="cls-1" d="M32,18.22a2.5,2.5,0,0,1-1.25.31,2.48,2.48,0,0,1-1.25-.31c-.76-.56-.74-1.79-.74-2.54v-.59c0-.7,0-2.07.74-2.6a2.35,2.35,0,0,1,.86-.28l.39,0h0l.39,0a2.42,2.42,0,0,1,.86.28c.75.53.74,1.9.74,2.6v.59c0,.75,0,2-.74,2.54Zm1.47-6.55a3.72,3.72,0,0,0-1.73-.52c-.24,0-.46,0-.75,0h-.48c-.3,0-.51,0-.75,0a3.72,3.72,0,0,0-1.73.52C27,12.34,27,13.56,27,14.59v1.57a3.66,3.66,0,0,0,.7,2.52,4,4,0,0,0,3.1.93h0a4,4,0,0,0,3.09-.93,3.67,3.67,0,0,0,.71-2.52V14.59c0-1,0-2.25-1.08-2.92Z"/><path class="cls-2" d="M62,18.48h.11l.11,0,.06-.06a.15.15,0,0,0,0-.1.25.25,0,0,0,0-.1l-.06-.05-.08,0h-.33v.36Zm.08-.5a.46.46,0,0,1,.31.08.3.3,0,0,1,.1.24.27.27,0,0,1-.09.23.31.31,0,0,1-.22.08l.33.51h-.19L62,18.63h-.18v.49h-.18V18Zm-.81.9a1,1,0,0,0,.17.27,1.51,1.51,0,0,0,.26.18.87.87,0,0,0,.32.06.92.92,0,0,0,.33-.06,1.44,1.44,0,0,0,.25-.18.74.74,0,0,0,.16-.27.81.81,0,0,0,0-.66.74.74,0,0,0-.16-.27,1,1,0,0,0-.25-.17.93.93,0,0,0-.33-.07.88.88,0,0,0-.32.07,1.06,1.06,0,0,0-.26.17,1,1,0,0,0-.17.27.94.94,0,0,0,0,.66Zm-.16-.72a.77.77,0,0,1,.22-.31,1,1,0,0,1,.31-.21,1,1,0,0,1,.38-.07,1,1,0,0,1,.39.07,1.3,1.3,0,0,1,.31.21.85.85,0,0,1,.21.31,1,1,0,0,1,0,.78,1,1,0,0,1-.21.31,1.06,1.06,0,0,1-.31.21,1.09,1.09,0,0,1-.77,0,.85.85,0,0,1-.31-.21.84.84,0,0,1-.22-.31,1,1,0,0,1,0-.78Z"/><path class="cls-2" d="M19.91,27.26c0,.83.28,1,1,1,.94,0,1.78-.41,1.78-1.62S21.91,25,20.5,25h-.59v2.23Zm.62-2.62c1.25,0,1.78-.44,1.78-1.4a1.33,1.33,0,0,0-1.53-1.41,1.77,1.77,0,0,0-.72.12c-.12.07-.15.19-.15.57v2.12Zm1.29.13c1.14.18,2,.61,2,1.77a1.83,1.83,0,0,1-1.1,1.66,4.69,4.69,0,0,1-2.26.46H17.92v-.3c1-.07,1-.12,1-1.08V22.85c0-1,0-1-.91-1.06v-.33h3a2.83,2.83,0,0,1,1.73.4,1.46,1.46,0,0,1,.64,1.24c0,1.09-.92,1.47-1.55,1.65v0Z"/><path class="cls-2" d="M27.09,25.9c-.24.13-.82.37-1.07.49-.45.2-.7.41-.7.84a.84.84,0,0,0,.82.88,1.58,1.58,0,0,0,.95-.42V25.9Zm.85,2.9a.9.9,0,0,1-.54-.22,1,1,0,0,1-.28-.52,3.75,3.75,0,0,1-1.4.74,1.39,1.39,0,0,1-1.38-1.41,1.15,1.15,0,0,1,.93-1.13,8.47,8.47,0,0,0,1.82-.75v-.19c0-.85-.41-1.31-1-1.31a.64.64,0,0,0-.51.22,1.94,1.94,0,0,0-.35.75.32.32,0,0,1-.33.27.53.53,0,0,1-.49-.49c0-.17.13-.3.35-.46a5.59,5.59,0,0,1,1.73-.81,1.68,1.68,0,0,1,1,.31A1.72,1.72,0,0,1,28,25.22v2.14c0,.51.21.69.41.69a.91.91,0,0,0,.42-.14l.11.3-1,.59Z"/><path class="cls-2" d="M32.27,28.66v-.3c.68-.07.76-.16.76-.95V25.49c0-.8-.27-1.32-1.05-1.32a2.09,2.09,0,0,0-1.27.59v2.7c0,.79.06.83.74.9v.3H29v-.3c.78-.08.81-.14.81-.9V25.08c0-.74-.07-.77-.69-.88v-.27a7.06,7.06,0,0,0,1.61-.47v.92c.22-.17.48-.35.77-.54a1.8,1.8,0,0,1,1-.35c.93,0,1.5.64,1.5,1.75v2.22c0,.79,0,.83.69.9v.3Z"/><path class="cls-2" d="M39,28.66c-.55-.58-1.27-1.49-1.92-2.26-.16-.19-.25-.26-.36-.24a.3.3,0,0,0-.18,0v1.28c0,.76.09.83.83.9v.3h-2.5v-.3c.78-.07.77-.16.77-.9V22.68c0-.77-.06-.84-.76-.9v-.32a8.07,8.07,0,0,0,1.66-.4v4.82a1.28,1.28,0,0,0,.73-.39,8.45,8.45,0,0,0,.81-1c.24-.35.21-.45-.34-.5v-.3l2.35-.11v.29a2.19,2.19,0,0,0-1.48.67c-.29.3-.49.52-1,1.09.29.41,1.42,1.73,1.8,2.12a1.63,1.63,0,0,0,1.11.63v.3Z"/><path class="cls-3" d="M2.57,13.24l.3.12-.27-.09Z"/><path class="cls-4" d="M2.87,13.36l-.3-.12c0-.05-.07-.1-.1-.16l1.28.51C3.45,13.52,3.15,13.45,2.87,13.36Z"/><path class="cls-4" d="M3.75,13.59l-1.28-.51-.09-.15,1.94.77Z"/><path class="cls-5" d="M4.32,13.7l-1.94-.77-.07-.15,2.39,1v0Z"/><path class="cls-5" d="M4.7,13.73l-2.39-1-.06-.14,2.33.92Z"/><path class="cls-5" d="M4.58,13.56l-2.33-.92s0-.09,0-.13l2.27.89Z"/><path class="cls-6" d="M4.47,13.4,2.2,12.51s0-.09,0-.14l2.22.88Z"/><path class="cls-5" d="M4.38,13.25l-2.22-.88,0-.13,2.16.86Z"/><path class="cls-6" d="M4.29,13.1l-2.16-.86,0-.13L4.22,13Z"/><path class="cls-6" d="M4.22,13,2.1,12.11l0-.13,2.08.82A1,1,0,0,0,4.22,13Z"/><path class="cls-7" d="M4.15,12.8,2.07,12s0-.08,0-.13l2,.81.06.14Zm2.56.9.2.08H6.84Z"/><path class="cls-7" d="M6.91,13.78l-.2-.08-.34-.25.77.3-.23,0ZM4.09,12.66l-2-.81a.5.5,0,0,0,0-.12l2,.79Z"/><path class="cls-7" d="M7.14,13.75l-.77-.3-.27-.23,1.27.5-.23,0ZM4,12.52l-2-.79a.49.49,0,0,0,0-.12l2,.77Z"/><path class="cls-8" d="M7.37,13.72l-1.27-.5L5.88,13l1.72.68-.23,0ZM4,12.38l-2-.77a.62.62,0,0,0,0-.13l1.93.77A.65.65,0,0,1,4,12.38Z"/><path class="cls-7" d="M7.6,13.69,5.88,13a1.7,1.7,0,0,1-.19-.19l2.12.84-.21,0ZM3.94,12.25,2,11.48v-.12l1.9.76Z"/><path class="cls-8" d="M7.81,13.66l-2.12-.84-.16-.18,2.49,1-.21,0Zm-3.9-1.54L2,11.36a.49.49,0,0,1,0-.12L3.88,12A.7.7,0,0,0,3.91,12.12Z"/><path class="cls-8" d="M8,13.63l-2.49-1-.15-.18,2.84,1.13-.2,0ZM3.88,12,2,11.24v-.12l1.85.74Z"/><path class="cls-9" d="M8.22,13.59,5.38,12.46l-.12-.17,3.15,1.25-.19.05ZM3.85,11.86,2,11.12V11l1.83.72A.69.69,0,0,0,3.85,11.86Z"/><path class="cls-9" d="M8.41,13.54,5.26,12.29l-.12-.16L8.59,13.5l-.18,0ZM3.83,11.73,2,11v-.12l1.81.71C3.82,11.65,3.82,11.69,3.83,11.73Z"/><path class="cls-9" d="M8.59,13.5,5.14,12.13,5,12l3.71,1.47-.16.06ZM3.81,11.6,2,10.89a.49.49,0,0,0,0-.12l1.79.71S3.81,11.56,3.81,11.6Z"/><path class="cls-10" d="M8.75,13.44,5,12,5,11.82l4,1.56-.15.06Zm-4.95-2L2,10.77a.41.41,0,0,1,0-.11l1.77.7S3.8,11.44,3.8,11.48Z"/><path class="cls-10" d="M8.9,13.38,5,11.82a1.09,1.09,0,0,0-.08-.15l3.65,1.44a2.67,2.67,0,0,0,.43.25l0,0Zm-5.11-2L2,10.66v-.12l1.76.7A.49.49,0,0,1,3.79,11.36Z"/><path class="cls-11" d="M8.52,13.11,4.87,11.67l-.07-.15,3.39,1.34a3.59,3.59,0,0,0,.33.25ZM3.78,11.24,2,10.54s0-.07,0-.11l1.74.69Z"/><path class="cls-11" d="M8.19,12.86,4.8,11.52l-.07-.14L8,12.65c.08.07.16.15.24.21ZM3.78,11.12,2,10.43a.37.37,0,0,1,0-.11L3.78,11Z"/><path class="cls-11" d="M8,12.65,4.73,11.38l-.06-.14,3.08,1.21.2.2ZM3.78,11l-1.73-.68s0-.08,0-.12l1.73.69A.41.41,0,0,1,3.78,11Z"/><path class="cls-11" d="M7.75,12.45,4.67,11.24a.58.58,0,0,0,0-.14l3,1.17.16.18Zm-4-1.56L2.06,10.2s0-.07,0-.11l1.72.68A.49.49,0,0,0,3.79,10.89Z"/><path class="cls-12" d="M7.59,12.27l-3-1.17,0-.14L7.44,12.1l.15.17ZM3.8,10.77l-1.72-.68s0-.07,0-.11l1.72.68A.37.37,0,0,0,3.8,10.77Z"/><path class="cls-13" d="M7.44,12.1,4.57,11s0-.09,0-.14l2.79,1.11.12.17ZM3.81,10.66,2.09,10a.43.43,0,0,0,0-.11l1.71.67S3.81,10.62,3.81,10.66Z"/><path class="cls-13" d="M7.32,11.93,4.53,10.82s0-.08,0-.13l2.72,1.07a1.63,1.63,0,0,0,.11.17Zm-3.5-1.39L2.11,9.87a.43.43,0,0,0,0-.11l1.7.67S3.82,10.51,3.82,10.54Z"/><path class="cls-14" d="M7.21,11.76,4.49,10.69a.65.65,0,0,0,0-.13l2.65,1,.11.15ZM3.83,10.43l-1.7-.67,0-.11,1.69.67A.43.43,0,0,1,3.83,10.43Z"/><path class="cls-15" d="M7.1,11.61l-2.65-1,0-.13,2.59,1,.09.16ZM3.85,10.32,2.16,9.65a.43.43,0,0,1,0-.11l1.69.67A.43.43,0,0,1,3.85,10.32Z"/><path class="cls-16" d="M7,11.45l-2.59-1a.59.59,0,0,1,0-.13l2.53,1a1.09,1.09,0,0,0,.08.15ZM3.87,10.21,2.18,9.54s0-.07,0-.11l1.69.67A.43.43,0,0,1,3.87,10.21Z"/><path class="cls-17" d="M6.93,11.3l-2.53-1,0-.13,2.48,1a1.09,1.09,0,0,0,.08.15Zm-3-1.2L2.2,9.43l0-.11L3.92,10Z"/><path class="cls-18" d="M6.85,11.15l-2.48-1s0-.08,0-.13l2.43,1a1,1,0,0,0,.07.15ZM3.92,10,2.23,9.32l0-.11,1.69.67S3.93,10,3.92,10Z"/><path class="cls-18" d="M6.78,11,4.35,10s0-.08,0-.12l2.38.94.07.14ZM3.94,9.88,2.25,9.21l0-.1L4,9.78Z"/><path class="cls-19" d="M6.71,10.86,4.33,9.92s0-.09,0-.13l2.34.93.06.14ZM4,9.78,2.28,9.11l0-.11L4,9.67Z"/><path class="cls-20" d="M6.65,10.72,4.31,9.79s0-.08,0-.12l2.3.91s0,.09.05.14ZM4,9.67,2.31,9l0-.11L4,9.56Z"/><path class="cls-21" d="M6.6,10.58,4.3,9.67s0-.08,0-.12l2.26.89a.78.78,0,0,0,0,.14ZM4,9.56,2.34,8.89l0-.1,1.69.67Z"/><path class="cls-22" d="M6.55,10.44,4.29,9.55a.53.53,0,0,1,0-.13l2.22.88a.78.78,0,0,0,0,.14Zm-2.49-1L2.37,8.79l0-.11,1.7.67A.49.49,0,0,0,4.06,9.46Z"/><path class="cls-23" d="M6.5,10.3,4.28,9.42s0-.08,0-.12l2.19.87a.65.65,0,0,0,0,.13Zm-2.4-1L2.4,8.68l0-.1,1.69.67Z"/><path class="cls-24" d="M6.46,10.17,4.27,9.3V9.18L6.42,10a.74.74,0,0,0,0,.14ZM4.13,9.25,2.44,8.58l0-.11,1.7.67A.49.49,0,0,0,4.13,9.25Z"/><path class="cls-25" d="M6.42,10,4.27,9.18a.49.49,0,0,1,0-.12l2.12.84a.65.65,0,0,0,0,.13ZM4.17,9.14l-1.7-.67a.42.42,0,0,1,0-.1L4.2,9Z"/><path class="cls-26" d="M6.38,9.9,4.26,9.06V8.94l2.09.83,0,.13ZM4.2,9,2.51,8.37l0-.11,1.7.68Z"/><path class="cls-27" d="M6.35,9.77,4.26,8.94V8.88l0,.06-1.7-.68a.3.3,0,0,0,0-.1L6.32,9.64Z"/><path class="cls-28" d="M6.32,9.64,2.58,8.16l0-.1L6.29,9.51Z"/><path class="cls-29" d="M6.29,9.51,2.62,8.06l0-.1,3.6,1.42Z"/><path class="cls-29" d="M6.26,9.38,2.66,8s0-.07,0-.11L6.24,9.26A.5.5,0,0,1,6.26,9.38Z"/><path class="cls-30" d="M6.24,9.26,2.7,7.85a1,1,0,0,0,0-.1L6.22,9.13A.51.51,0,0,1,6.24,9.26Z"/><path class="cls-30" d="M6.22,9.13,2.74,7.75l0-.1L6.21,9C6.21,9.05,6.22,9.09,6.22,9.13Z"/><path class="cls-31" d="M6.21,9,2.78,7.65l.05-.1L6.19,8.88S6.2,9,6.21,9Z"/><path class="cls-32" d="M6.19,8.88,2.83,7.55l0-.1L6.18,8.76S6.19,8.84,6.19,8.88Z"/><path class="cls-33" d="M6.18,8.76,2.87,7.45l0-.1L6.17,8.63S6.18,8.72,6.18,8.76Z"/><path class="cls-34" d="M6.17,8.63,2.92,7.35a1,1,0,0,1,0-.1l3.2,1.26Z"/><path class="cls-35" d="M6.16,8.51,3,7.25l0-.1L6.16,8.39Z"/><path class="cls-35" d="M6.16,8.39,3,7.15l.05-.1L6.15,8.27A.49.49,0,0,0,6.16,8.39Z"/><path class="cls-36" d="M6.15,8.27,3.06,7.05l0-.1,3,1.2Z"/><path class="cls-37" d="M6.15,8.15,3.11,7l.05-.1L6.15,8Z"/><path class="cls-38" d="M6.15,8l-3-1.19,0-.1L6.15,7.92Z"/><path class="cls-39" d="M6.15,7.92,3.21,6.75a.41.41,0,0,1,0-.09L6.16,7.8A.49.49,0,0,0,6.15,7.92Z"/><path class="cls-40" d="M6.16,7.8,3.26,6.66l.05-.1L6.16,7.69Z"/><path class="cls-40" d="M6.16,7.69,3.31,6.56l.06-.1,2.8,1.11Z"/><path class="cls-41" d="M6.17,7.57,3.37,6.46a.93.93,0,0,1,0-.1l2.76,1.1A.37.37,0,0,0,6.17,7.57Z"/><path class="cls-41" d="M6.18,7.46,3.42,6.36l.06-.09L6.19,7.34A.49.49,0,0,0,6.18,7.46Z"/><path class="cls-42" d="M6.19,7.34,3.48,6.27l0-.1L6.2,7.23S6.19,7.3,6.19,7.34Z"/><path class="cls-42" d="M6.2,7.23,3.53,6.17l.06-.09,2.62,1S6.2,7.19,6.2,7.23Z"/><path class="cls-43" d="M6.21,7.11l-2.62-1L3.65,6,6.23,7S6.22,7.08,6.21,7.11Z"/><path class="cls-44" d="M6.23,7,3.65,6l.06-.09,2.54,1A.52.52,0,0,0,6.23,7Z"/><path class="cls-45" d="M6.25,6.89l-2.54-1,.06-.1,2.49,1Z"/><path class="cls-45" d="M6.26,6.78l-2.49-1,.06-.09,2.45,1A.43.43,0,0,1,6.26,6.78Z"/><path class="cls-46" d="M6.28,6.67l-2.45-1,.06-.09,2.42.95Z"/><path class="cls-46" d="M6.31,6.56,3.89,5.61A.36.36,0,0,1,4,5.51l2.37.94A.43.43,0,0,0,6.31,6.56Z"/><path class="cls-46" d="M6.33,6.45,4,5.51,4,5.42l2.33.92S6.34,6.41,6.33,6.45Z"/><path class="cls-47" d="M6.35,6.34,4,5.42l.06-.09,2.3.9Z"/><path class="cls-48" d="M6.38,6.23l-2.3-.9a.36.36,0,0,0,.07-.1l2.26.9Z"/><path class="cls-49" d="M6.41,6.13l-2.26-.9.07-.09L6.43,6A.36.36,0,0,0,6.41,6.13Z"/><path class="cls-49" d="M6.43,6,4.22,5.14l.07-.09,2.17.86Z"/><path class="cls-50" d="M6.46,5.91,4.29,5.05,4.36,5l2.13.85Z"/><path class="cls-51" d="M6.49,5.81,4.36,5l.07-.09,2.1.83S6.5,5.77,6.49,5.81Z"/><path class="cls-51" d="M6.53,5.7l-2.1-.83.07-.09,2.06.82Z"/><path class="cls-52" d="M6.56,5.6,4.5,4.78l.07-.09,2,.8A.49.49,0,0,0,6.56,5.6Z"/><path class="cls-53" d="M6.6,5.49l-2-.8.07-.09,2,.79Z"/><path class="cls-54" d="M6.63,5.39l-2-.79.08-.09,2,.78A.69.69,0,0,1,6.63,5.39Z"/><path class="cls-55" d="M6.67,5.29,4.72,4.51l.07-.09,1.92.76S6.68,5.25,6.67,5.29Z"/><path class="cls-56" d="M6.71,5.18,4.79,4.42l.08-.08,1.88.74Z"/><path class="cls-56" d="M6.75,5.08,4.87,4.34,5,4.25,6.79,5Z"/><path class="cls-57" d="M6.79,5,5,4.25,5,4.16l1.8.72Z"/><path class="cls-58" d="M6.83,4.88,5,4.16a.3.3,0,0,1,.08-.08l1.77.7Z"/><path class="cls-59" d="M6.88,4.78l-1.77-.7L5.19,4l1.73.69A1,1,0,0,0,6.88,4.78Z"/><path class="cls-60" d="M6.92,4.68,5.19,4l.08-.09L7,4.58A.93.93,0,0,1,6.92,4.68Z"/><path class="cls-61" d="M7,4.58,5.27,3.9a.3.3,0,0,0,.08-.08L7,4.48Z"/><path class="cls-62" d="M7,4.48,5.35,3.82l.09-.09,1.63.65A.31.31,0,0,0,7,4.48Z"/><path class="cls-63" d="M7.07,4.38,5.44,3.73l.09-.08,1.59.63A.47.47,0,0,0,7.07,4.38Z"/><path class="cls-63" d="M7.12,4.28,5.53,3.65a.3.3,0,0,1,.08-.08l1.56.61A.47.47,0,0,0,7.12,4.28Z"/><path class="cls-63" d="M7.17,4.18,5.61,3.57l.09-.09,1.52.6A.93.93,0,0,1,7.17,4.18Z"/><path class="cls-64" d="M7.22,4.08,5.7,3.48l.09-.08L7.28,4Z"/><path class="cls-65" d="M7.28,4,5.79,3.4l.09-.08,1.45.57A.31.31,0,0,0,7.28,4Z"/><path class="cls-66" d="M7.33,3.89,5.88,3.32,6,3.24l1.41.55Z"/><path class="cls-66" d="M7.39,3.79,6,3.24l.09-.08,1.37.54Z"/><path class="cls-67" d="M7.44,3.7,6.07,3.16l.1-.08L7.5,3.6Z"/><path class="cls-68" d="M7.5,3.6,6.17,3.08,6.26,3l1.3.51Z"/><path class="cls-69" d="M7.56,3.51,6.26,3l.1-.08,1.26.5Z"/><path class="cls-69" d="M7.62,3.42l-1.26-.5.1-.08,1.22.48Z"/><path class="cls-70" d="M7.68,3.32,6.46,2.84l.11-.08,1.18.47Z"/><path class="cls-71" d="M7.75,3.23,6.57,2.76l.1-.08,1.14.46Z"/><path class="cls-71" d="M7.81,3.14,6.67,2.68l.11-.07L7.88,3A.86.86,0,0,0,7.81,3.14Z"/><path class="cls-72" d="M7.88,3l-1.1-.43.1-.08L7.94,3Z"/><path class="cls-73" d="M7.94,3,6.88,2.53,7,2.46l1,.4Z"/><path class="cls-73" d="M8,2.86l-1-.4.11-.08,1,.39Z"/><path class="cls-74" d="M8.08,2.77l-1-.39.12-.07.93.37Z"/><path class="cls-75" d="M8.15,2.68l-.93-.37.11-.07.89.35Z"/><path class="cls-76" d="M8.22,2.59l-.89-.35.12-.08.84.34Z"/><path class="cls-76" d="M8.29,2.5l-.84-.34.12-.07.8.32Z"/><path class="cls-77" d="M8.37,2.41l-.8-.32L7.69,2l.75.3Z"/><path class="cls-78" d="M8.44,2.32,7.69,2,7.81,2l.71.28Z"/><path class="cls-78" d="M8.52,2.23,7.81,2l.13-.07.65.26Z"/><path class="cls-79" d="M8.59,2.14l-.65-.26.13-.06.6.24A.6.6,0,0,1,8.59,2.14Z"/><path class="cls-79" d="M8.67,2.06l-.6-.24.13-.07L8.75,2Z"/><path class="cls-80" d="M8.75,2,8.2,1.75l.13-.06.5.19Z"/><path class="cls-81" d="M8.83,1.88l-.5-.19.14-.07.44.18A.6.6,0,0,1,8.83,1.88Z"/><path class="cls-81" d="M8.91,1.8l-.44-.18.14-.06L9,1.71Z"/><path class="cls-81" d="M9,1.71l-.38-.15.14-.06.33.13Z"/><path class="cls-82" d="M9.08,1.63,8.75,1.5l.15-.06.26.1Z"/><path class="cls-83" d="M9.16,1.54l-.26-.1.6-.22Z"/><path class="cls-7" d="M16.24,12.77l-.59-1.61h0A8.31,8.31,0,0,1,16.24,12.77Z"/><path class="cls-7" d="M15.65,11.16l.59,1.61c.05.19.08.37.11.54,0,0,0,0,0,0l-.75-2Z"/><path class="cls-8" d="M15.58,11.32l.75,2a1.09,1.09,0,0,1-.08.15l-.75-2S15.55,11.37,15.58,11.32Z"/><path class="cls-7" d="M15.5,11.46l.75,2c0,.05-.05.09-.07.14l-.75-2,.07-.15Zm-.82-1.88-.19-.52a3,3,0,0,1,.21.33A1.23,1.23,0,0,1,14.68,9.58Z"/><path class="cls-8" d="M14.49,9.06l.19.52a1.24,1.24,0,0,1,0,.27l-.41-1.14.25.35Zm.94,2.55.75,2-.09.12-.74-2Z"/><path class="cls-8" d="M14.24,8.71l.41,1.14,0,.24L14,8.43l.23.28Zm1.11,3,.74,2-.08.12-.74-2Z"/><path class="cls-9" d="M14,8.43l.61,1.66c0,.08,0,.16,0,.23L13.79,8.2l.22.23Zm1.26,3.44.74,2-.09.1-.73-2Z"/><path class="cls-9" d="M13.79,8.2l.78,2.12a1.42,1.42,0,0,1-.05.22L13.59,8l.2.2Zm1.4,3.8.73,2-.09.11-.73-2Z"/><path class="cls-9" d="M13.59,8l.93,2.54a1.46,1.46,0,0,1,0,.2L13.4,7.83l.19.17Zm1.51,4.12.73,2-.09.09-.72-2Z"/><path class="cls-10" d="M13.4,7.83l1.07,2.91-.06.19L13.25,7.77v0l.15.11ZM15,12.23l.72,2-.1.09-.71-1.94Z"/><path class="cls-10" d="M13.25,7.77l1.16,3.16-.06.18-1.1-3a2,2,0,0,0,0-.35Zm1.68,4.57.71,1.94-.09.09-.71-1.93Z"/><path class="cls-11" d="M13.25,8.12l1.1,3a.87.87,0,0,1-.07.17l-1-2.87c0-.1,0-.2,0-.29Zm1.59,4.32.71,1.93-.1.08-.7-1.91Z"/><path class="cls-11" d="M13.23,8.41l1,2.87a1.22,1.22,0,0,1-.07.17l-1-2.79a2.17,2.17,0,0,0,0-.25Zm1.52,4.13.7,1.91-.1.08-.7-1.89A.94.94,0,0,0,14.75,12.54Z"/><path class="cls-11" d="M13.19,8.66l1,2.79a1,1,0,0,1-.07.15l-1-2.71a1.85,1.85,0,0,0,0-.23Zm1.46,4,.7,1.89-.1.08-.69-1.88Z"/><path class="cls-11" d="M13.15,8.89l1,2.71-.07.15-1-2.65c0-.07,0-.14.05-.21Zm1.41,3.84.69,1.88-.1.07-.69-1.86Z"/><path class="cls-12" d="M13.1,9.1l1,2.65s-.05.09-.08.14l-1-2.6.06-.19Zm1.36,3.72.69,1.86-.11.07-.68-1.85Z"/><path class="cls-13" d="M13,9.29l1,2.6-.08.13L13,9.48,13,9.29Zm1.32,3.61L15,14.75l-.1.06L14.26,13Z"/><path class="cls-13" d="M13,9.48,13.91,12l-.08.13-.92-2.5c0-.06.05-.12.07-.17ZM14.26,13l.68,1.83-.11.07-.67-1.83Z"/><path class="cls-14" d="M12.91,9.65l.92,2.5-.08.12-.9-2.46.06-.16Zm1.25,3.4.67,1.83-.1.06-.67-1.82Z"/><path class="cls-15" d="M12.85,9.81l.9,2.46-.09.12L12.78,10l.07-.16Zm1.21,3.31.67,1.82-.11.05L14,13.19Z"/><path class="cls-16" d="M12.78,10l.88,2.42a.44.44,0,0,1-.08.11l-.88-2.38.08-.15ZM14,13.19l.66,1.8-.11.06-.65-1.79Z"/><path class="cls-17" d="M12.7,10.12l.88,2.38-.09.11-.86-2.35.07-.14Zm1.16,3.14.65,1.79-.11.06-.65-1.79Z"/><path class="cls-18" d="M12.63,10.26l.86,2.35-.09.11-.85-2.32s0-.09.08-.14Zm1.12,3.06.65,1.79-.1.05-.66-1.78Z"/><path class="cls-18" d="M12.55,10.4l.85,2.32-.09.1-.84-2.29.08-.13Zm1.09,3,.66,1.78-.11.05-.65-1.77Z"/><path class="cls-19" d="M12.47,10.53l.84,2.29-.09.1-.83-2.26.08-.13Zm1.07,2.91.65,1.77-.11,0-.65-1.77Z"/><path class="cls-20" d="M12.39,10.66l.83,2.26-.1.09-.81-2.22.08-.13Zm1,2.83.65,1.77-.12,0-.64-1.76Z"/><path class="cls-21" d="M12.31,10.79,13.12,13,13,13.1l-.81-2.19.09-.12Zm1,2.75L14,15.3l-.11,0-.64-1.76Z"/><path class="cls-22" d="M12.22,10.91,13,13.1l-.1.09L12.14,11a1,1,0,0,1,.08-.11Zm1,2.68.64,1.76-.11,0-.64-1.75Z"/><path class="cls-23" d="M12.14,11l.79,2.17-.09.09-.79-2.15.09-.11Zm1,2.62.64,1.75-.11,0L13,13.68Z"/><path class="cls-24" d="M12.05,11.13l.79,2.15-.1.08L12,11.24l.09-.11ZM13,13.68l.64,1.75-.12,0-.64-1.74Z"/><path class="cls-25" d="M12,11.24l.78,2.12-.1.08-.77-2.09.09-.11Zm.91,2.49.64,1.74-.11,0-.64-1.74Z"/><path class="cls-26" d="M11.87,11.35l.77,2.09-.1.08-.76-2.07.09-.1Zm.89,2.42.64,1.74-.12,0-.63-1.73Z"/><path class="cls-27" d="M11.78,11.45l.76,2.07-.1.07-.75-2,.09-.1Zm.87,2.36.63,1.73-.11,0-.64-1.74Z"/><path class="cls-28" d="M11.69,11.55l.75,2-.1.08-.74-2,.09-.09Zm.84,2.29.64,1.74-.12,0-.63-1.73Z"/><path class="cls-29" d="M11.6,11.64l.74,2-.1.07-.74-2,.1-.1Zm.82,2.24.63,1.73-.11,0-.64-1.73Z"/><path class="cls-29" d="M11.5,11.74l.74,2-.11.07-.72-2,.09-.09Zm.8,2.17.64,1.73-.12,0L12.19,14Z"/><path class="cls-30" d="M11.41,11.83l.72,2-.1.07-.72-2,.1-.09ZM12.19,14l.63,1.72-.12,0L12.07,14Z"/><path class="cls-30" d="M11.31,11.92l.72,2-.1.06L11.21,12l.1-.08ZM12.07,14l.63,1.72-.12,0L12,14Z"/><path class="cls-31" d="M11.21,12l.72,1.94-.11.07-.7-1.93.09-.08ZM12,14l.63,1.72-.12,0L11.83,14Z"/><path class="cls-32" d="M11.12,12.08l.7,1.93-.1.06-.7-1.9.1-.09Zm.71,2-.11,0,.63,1.71.11,0Z"/><path class="cls-33" d="M11,12.17l.7,1.9h0l.63,1.71-.12,0-1.31-3.56Z"/><path class="cls-34" d="M10.92,12.24l1.31,3.56-.12,0-1.29-3.51Z"/><path class="cls-35" d="M10.82,12.32l1.29,3.51-.12,0-1.27-3.46Z"/><path class="cls-35" d="M10.72,12.39,12,15.85l-.13,0-1.24-3.41Z"/><path class="cls-36" d="M10.62,12.46l1.24,3.41-.12,0-1.23-3.36Z"/><path class="cls-37" d="M10.51,12.53l1.23,3.36h-.12l-1.21-3.3Z"/><path class="cls-38" d="M10.41,12.6l1.21,3.3-.12,0-1.19-3.25Z"/><path class="cls-39" d="M10.31,12.67l1.19,3.25h-.12l-1.18-3.2Z"/><path class="cls-40" d="M10.2,12.73l1.18,3.2h-.13l-1.16-3.15Z"/><path class="cls-40" d="M10.09,12.79l1.16,3.15-.12,0L10,12.85Z"/><path class="cls-41" d="M10,12.85,11.13,16H11L9.88,12.91Z"/><path class="cls-41" d="M9.88,12.91,11,16h-.12L9.77,13Z"/><path class="cls-42" d="M9.77,13l1.11,3h-.13L9.66,13Z"/><path class="cls-42" d="M9.66,13l1.09,3h-.12L9.56,13.07Z"/><path class="cls-43" d="M9.56,13.07,10.63,16H10.5L9.45,13.12Z"/><path class="cls-44" d="M9.45,13.12,10.5,16h-.13l-1-2.83Z"/><path class="cls-45" d="M9.34,13.17l1,2.83h-.12l-1-2.79Z"/><path class="cls-45" d="M9.22,13.21l1,2.79h-.13l-1-2.74Z"/><path class="cls-46" d="M9.11,13.26l1,2.74H10L9,13.3Z"/><path class="cls-46" d="M9,13.3,10,16H9.86l-1-2.66Z"/><path class="cls-46" d="M8.89,13.34l1,2.66H9.73l-1-2.62Z"/><path class="cls-47" d="M8.77,13.38l1,2.62H9.6l-.94-2.57Z"/><path class="cls-48" d="M8.66,13.42,9.6,16H9.47l-.93-2.54Z"/><path class="cls-49" d="M8.54,13.45,9.47,16H9.34l-.91-2.49Z"/><path class="cls-49" d="M8.43,13.49,9.34,16H9.21l-.9-2.45Z"/><path class="cls-50" d="M8.31,13.52,9.21,16H9.08l-.89-2.41Z"/><path class="cls-51" d="M8.19,13.55,9.08,16H9l-.87-2.37Z"/><path class="cls-51" d="M8.08,13.58,9,16H8.81L8,13.61Z"/><path class="cls-52" d="M8,13.61l.85,2.33-.13,0-.84-2.29Z"/><path class="cls-53" d="M7.84,13.63l.84,2.29H8.55l-.83-2.25Z"/><path class="cls-54" d="M7.72,13.66l.83,2.25-.14,0L7.6,13.68Z"/><path class="cls-55" d="M7.6,13.68l.81,2.21-.13,0-.8-2.17Z"/><path class="cls-56" d="M7.48,13.7l.8,2.17-.14,0-.78-2.13Z"/><path class="cls-56" d="M7.36,13.72l.78,2.13-.14,0-.76-2.08Z"/><path class="cls-57" d="M7.24,13.74,8,15.82l-.13,0-.76-2.05Z"/><path class="cls-58" d="M7.11,13.75l.76,2.05-.14,0-.74-2Z"/><path class="cls-59" d="M7,13.77l.74,2-.14,0-.72-2Z"/><path class="cls-60" d="M6.87,13.78l.72,2-.14,0-.71-1.93Z"/><path class="cls-61" d="M6.74,13.79l.71,1.93-.14,0L6.62,13.8Z"/><path class="cls-62" d="M6.62,13.8l.69,1.88-.14,0-.68-1.84Z"/><path class="cls-63" d="M6.49,13.81l.68,1.84-.14,0-.66-1.8Z"/><path class="cls-63" d="M6.37,13.81,7,15.61l-.14,0-.65-1.77Z"/><path class="cls-63" d="M6.24,13.81l.65,1.77-.15-.05-.63-1.71Z"/><path class="cls-64" d="M6.11,13.82l.63,1.71-.14,0L6,13.82Z"/><path class="cls-65" d="M6,13.82l.62,1.67-.15,0-.59-1.63Z"/><path class="cls-66" d="M5.86,13.82l.59,1.63-.14,0-.58-1.59Z"/><path class="cls-66" d="M5.73,13.81l.58,1.59-.15-.05L5.6,13.81Z"/><path class="cls-67" d="M5.6,13.81l.56,1.54L6,15.3l-.55-1.5Z"/><path class="cls-68" d="M5.47,13.8,6,15.3l-.15-.06L5.34,13.8Z"/><path class="cls-69" d="M5.34,13.8l.53,1.44-.15-.05-.52-1.4Z"/><path class="cls-69" d="M5.2,13.79l.52,1.4-.15-.06-.5-1.36Z"/><path class="cls-70" d="M5.07,13.77l.5,1.36-.15-.07-.48-1.3Z"/><path class="cls-71" d="M4.94,13.76l.48,1.3L5.26,15,4.8,13.75Z"/><path class="cls-71" d="M4.8,13.75,5.26,15l-.15-.07-.44-1.19Z"/><path class="cls-72" d="M4.67,13.73l.44,1.19L5,14.85l-.41-1.14Z"/><path class="cls-73" d="M4.54,13.71,5,14.85l-.15-.08-.4-1.08Z"/><path class="cls-73" d="M4.4,13.69l.4,1.08-.16-.08-.38-1Z"/><path class="cls-74" d="M4.26,13.67l.38,1-.16-.09-.35-.95Z"/><path class="cls-75" d="M4.13,13.65l.35.95-.16-.09L4,13.62Z"/><path class="cls-76" d="M4,13.62l.33.89-.17-.09-.3-.82Z"/><path class="cls-76" d="M3.85,13.6l.3.82L4,14.32l-.28-.75Z"/><path class="cls-77" d="M3.71,13.57l.28.75-.17-.11-.25-.67Z"/><path class="cls-78" d="M3.57,13.54l.25.67-.17-.11-.22-.6Z"/><path class="cls-78" d="M3.43,13.5l.22.6L3.48,14l-.19-.51Z"/><path class="cls-79" d="M3.29,13.47l.19.51-.17-.13-.16-.42Z"/><path class="cls-79" d="M3.15,13.43l.16.42-.18-.13L3,13.39Z"/><path class="cls-80" d="M3,13.39l.12.33L3,13.57l-.08-.22Z"/><path class="cls-81" d="M2.87,13.35l.08.22-.19-.15,0-.11Z"/><path class="cls-81" d="M2.72,13.31l0,.11-.16-.15Z"/><path class="cls-84" d="M9.56,1.21,9,1.64q.24-.22.48-.42Z"/><path class="cls-84" d="M9,1.64l.54-.43h.18l-1.18.94C8.71,2,8.87,1.79,9,1.64Z"/><path class="cls-84" d="M8.56,2.14,9.74,1.2h.17L8.28,2.5C8.37,2.38,8.46,2.25,8.56,2.14Z"/><path class="cls-3" d="M8.28,2.5,9.91,1.2l.16,0-2,1.59h0A3.46,3.46,0,0,1,8.28,2.5Z"/><path class="cls-3" d="M8.06,2.81l2-1.59.14,0-2,1.55Z"/><path class="cls-4" d="M8.26,2.79l2-1.55.14,0L8.44,2.78Z"/><path class="cls-4" d="M8.44,2.78l1.91-1.52.13,0L8.62,2.77Z"/><path class="cls-5" d="M8.62,2.77l1.86-1.48.13,0L8.79,2.77Z"/><path class="cls-5" d="M8.79,2.77l1.82-1.44.12,0L9,2.78Z"/><path class="cls-5" d="M9,2.78l1.77-1.41.12,0L9.11,2.79Z"/><path class="cls-6" d="M9.11,2.79l1.74-1.38.12,0L9.26,2.8ZM7,4.61l-.07.06v0Z"/><path class="cls-5" d="M6.92,4.67,7,4.61l.39-.17-.56.44.1-.21ZM9.26,2.8,11,1.45l.11.05L9.41,2.83Z"/><path class="cls-6" d="M6.82,4.88l.56-.44.33-.13-1,.77.09-.2Zm2.59-2L11.08,1.5l.11.05L9.55,2.85Z"/><path class="cls-6" d="M6.73,5.08l1-.77A2.46,2.46,0,0,1,8,4.22L6.65,5.29l.08-.21ZM9.55,2.85l1.64-1.3.11.05L9.68,2.88Z"/><path class="cls-7" d="M6.65,5.29,8,4.22l.26-.08L6.57,5.48c0-.06,0-.13.08-.19Zm3-2.41L11.3,1.6l.1,0L9.81,2.91Z"/><path class="cls-7" d="M6.57,5.48,8.26,4.14l.24,0-2,1.58c0-.06,0-.12.07-.19ZM9.81,2.91,11.4,1.65l.1.06L9.94,3Z"/><path class="cls-7" d="M6.5,5.67l2-1.58.22,0L6.44,5.86l.06-.19ZM9.94,3,11.5,1.71l.1.06L10.06,3Z"/><path class="cls-8" d="M6.44,5.86,8.72,4.05l.21,0L6.39,6a1.21,1.21,0,0,1,.05-.18ZM10.06,3,11.6,1.77l.1.05L10.18,3Z"/><path class="cls-7" d="M6.39,6,8.93,4l.19,0L6.34,6.21l0-.17Zm3.79-3L11.7,1.82l.1.06-1.51,1.2Z"/><path class="cls-8" d="M6.34,6.21,9.12,4h.19l-3,2.38,0-.16Zm3.95-3.13,1.51-1.2.09.06L10.4,3.12Z"/><path class="cls-8" d="M6.31,6.37,9.31,4h.18L6.28,6.53l0-.16ZM10.4,3.12l1.49-1.18L12,2,10.51,3.17Z"/><path class="cls-9" d="M6.28,6.53,9.49,4h.17l-3,2.41-.33.2V6.53Zm4.23-3.36L12,2l.1.06L10.62,3.23Z"/><path class="cls-9" d="M6.61,6.4,9.66,4h.16L7,6.22a2.87,2.87,0,0,0-.4.18Zm4-3.17,1.46-1.16.08.06L10.72,3.28Z"/><path class="cls-9" d="M7,6.22,9.82,4H10L7.32,6.11,7,6.22Zm3.71-2.94,1.44-1.15.09.07L10.82,3.34Z"/><path class="cls-10" d="M7.32,6.11,10,4h.15L7.58,6l-.26.07Zm3.5-2.77L12.25,2.2l.09.07L10.91,3.4Z"/><path class="cls-10" d="M7.58,6l2.54-2,.15,0L7.82,6,7.58,6ZM10.91,3.4l1.43-1.13.09.06L11,3.46Z"/><path class="cls-11" d="M7.82,6,10.27,4l.14,0L8,6,7.82,6ZM11,3.46l1.42-1.13.08.07L11.1,3.52Z"/><path class="cls-11" d="M8,6l2.38-1.89.14,0L8.23,5.93,8,6ZM11.1,3.52,12.51,2.4l.09.07L11.19,3.59Z"/><path class="cls-11" d="M8.23,5.93l2.32-1.84.13,0L8.43,5.91l-.2,0Zm3-2.34L12.6,2.47l.08.07-1.4,1.11Z"/><path class="cls-11" d="M8.43,5.91l2.25-1.79.13,0L8.61,5.9Zm2.85-2.26,1.4-1.11a.27.27,0,0,0,.08.07l-1.4,1.11A.27.27,0,0,1,11.28,3.65Z"/><path class="cls-12" d="M8.61,5.9l2.2-1.74.13,0L8.78,5.9Zm2.75-2.18,1.4-1.11.08.08-1.39,1.1Z"/><path class="cls-13" d="M8.78,5.9l2.16-1.71.12,0L9,5.9Zm2.67-2.11,1.39-1.1.08.07-1.39,1.1Z"/><path class="cls-13" d="M9,5.9l2.11-1.67.13,0L9.11,5.91Zm2.58-2,1.39-1.1.08.07-1.39,1.1A.27.27,0,0,1,11.53,3.86Z"/><path class="cls-14" d="M9.11,5.91l2.08-1.64.12,0-2,1.61Zm2.5-2L13,2.83l.07.08L11.69,4Z"/><path class="cls-15" d="M9.27,5.92l2-1.61.11,0-2,1.59-.15,0ZM11.69,4l1.38-1.1.08.07-1.39,1.1Z"/><path class="cls-16" d="M9.42,5.94l2-1.59.12.05L9.57,6l-.15,0Zm2.34-1.86L13.15,3l.07.08-1.38,1.1A.6.6,0,0,0,11.76,4.08Z"/><path class="cls-17" d="M9.57,6l2-1.56.11,0L9.71,6,9.57,6Zm2.27-1.8,1.38-1.1.08.08L11.92,4.23Z"/><path class="cls-18" d="M9.71,6l1.94-1.54.11,0L9.85,6,9.71,6Zm2.21-1.75L13.3,3.14l.07.07L12,4.31Z"/><path class="cls-18" d="M9.85,6l1.91-1.51.11,0L10,6,9.85,6ZM12,4.31l1.38-1.1.07.08-1.38,1.1Z"/><path class="cls-19" d="M10,6l1.88-1.49.11,0L10.13,6.06,10,6Zm2.07-1.64,1.38-1.1.08.08-1.39,1.1A.27.27,0,0,0,12.06,4.39Z"/><path class="cls-20" d="M10.13,6.06,12,4.59l.1.06L10.26,6.09l-.13,0Zm2-1.59,1.39-1.1.07.08-1.38,1.1Z"/><path class="cls-21" d="M10.26,6.09l1.82-1.44.1,0-1.8,1.43-.12,0Zm2-1.54,1.38-1.1.07.08-1.38,1.1Z"/><path class="cls-22" d="M10.38,6.13l1.8-1.43.11,0L10.51,6.16l-.13,0Zm1.9-1.5.06.08,1.39-1.1a.27.27,0,0,1-.07-.08Z"/><path class="cls-23" d="M10.51,6.16l1.78-1.41.1.06L10.63,6.2l-.12,0Zm1.83-1.45.07.08,1.38-1.1-.06-.08Z"/><path class="cls-24" d="M10.63,6.2l1.76-1.39.08.05-.06-.07,1.38-1.1.07.09L10.75,6.24Z"/><path class="cls-25" d="M10.75,6.24l3.11-2.46.07.08L10.87,6.28Z"/><path class="cls-26" d="M10.87,6.28l3.06-2.42.06.08L11,6.33Z"/><path class="cls-27" d="M11,6.33l3-2.39.07.09-3,2.34Z"/><path class="cls-28" d="M11.1,6.37l3-2.34.06.08L11.21,6.42Z"/><path class="cls-29" d="M11.21,6.42l2.91-2.31.07.09L11.32,6.47Z"/><path class="cls-29" d="M11.32,6.47,14.19,4.2l.06.08L11.43,6.52Z"/><path class="cls-30" d="M11.43,6.52l2.82-2.24.06.09-2.77,2.2Z"/><path class="cls-30" d="M11.54,6.57l2.77-2.2.06.09L11.65,6.62Z"/><path class="cls-31" d="M11.65,6.62l2.72-2.16.06.08L11.75,6.67Z"/><path class="cls-32" d="M11.75,6.67l2.68-2.13.06.09-2.64,2.1Z"/><path class="cls-33" d="M11.85,6.73l2.64-2.1.06.09L12,6.79Z"/><path class="cls-34" d="M12,6.79l2.6-2.07.06.09-2.56,2Z"/><path class="cls-35" d="M12.05,6.84l2.56-2,.06.09-2.52,2Z"/><path class="cls-35" d="M12.15,6.9l2.52-2,.06.09L12.24,7Z"/><path class="cls-36" d="M12.24,7l2.49-2a.41.41,0,0,0,0,.09L12.34,7Z"/><path class="cls-37" d="M12.34,7l2.44-1.94.06.1-2.41,1.9Z"/><path class="cls-38" d="M12.43,7.08l2.41-1.9.05.09L12.52,7.15Z"/><path class="cls-39" d="M12.52,7.15l2.37-1.88.06.09L12.61,7.21Z"/><path class="cls-40" d="M12.61,7.21,15,5.36l.05.1L12.7,7.28Z"/><path class="cls-40" d="M12.7,7.28,15,5.46l.05.09L12.79,7.34Z"/><path class="cls-41" d="M12.79,7.34l2.26-1.79a.41.41,0,0,1,0,.09L12.88,7.41Z"/><path class="cls-41" d="M12.88,7.41,15.1,5.64a.93.93,0,0,1,.05.1L13,7.48Z"/><path class="cls-42" d="M13,7.48l2.19-1.74,0,.1L13.05,7.55Z"/><path class="cls-42" d="M13.05,7.55,15.2,5.84l.05.09L13.13,7.62Z"/><path class="cls-43" d="M13.13,7.62l2.12-1.69.05.1L13.21,7.69A.27.27,0,0,0,13.13,7.62Z"/><path class="cls-44" d="M13.21,7.69,15.3,6a.93.93,0,0,1,0,.1L13.29,7.76A.27.27,0,0,0,13.21,7.69Z"/><path class="cls-45" d="M13.29,7.76l2.06-1.63.05.1-2,1.6Z"/><path class="cls-45" d="M13.37,7.83l2-1.6,0,.1-2,1.57Z"/><path class="cls-46" d="M13.45,7.9l2-1.57a.93.93,0,0,1,.05.1L13.53,8Z"/><path class="cls-46" d="M13.53,8l2-1.55,0,.1L13.61,8.05Z"/><path class="cls-46" d="M13.61,8.05l1.92-1.52a.93.93,0,0,1,.05.1l-1.9,1.5Z"/><path class="cls-47" d="M13.68,8.13l1.9-1.5a1,1,0,0,1,0,.1L13.76,8.21Z"/><path class="cls-48" d="M13.76,8.21l1.86-1.48a.42.42,0,0,1,0,.1L13.83,8.29Z"/><path class="cls-49" d="M13.83,8.29l1.83-1.46s0,.07.05.1L13.9,8.36Z"/><path class="cls-49" d="M13.9,8.36l1.81-1.43a.49.49,0,0,0,0,.11L14,8.44Z"/><path class="cls-50" d="M14,8.44,15.75,7l0,.1L14,8.52Z"/><path class="cls-51" d="M14,8.52l1.75-1.38,0,.1L14.11,8.6Z"/><path class="cls-51" d="M14.11,8.6l1.72-1.36,0,.11L14.18,8.69Z"/><path class="cls-52" d="M14.18,8.69l1.68-1.34a.49.49,0,0,1,0,.11L14.25,8.77Z"/><path class="cls-53" d="M14.25,8.77,15.9,7.46l0,.1L14.31,8.85Z"/><path class="cls-54" d="M14.31,8.85l1.63-1.29,0,.11L14.38,8.94Z"/><path class="cls-55" d="M14.38,8.94,16,7.67a.49.49,0,0,1,0,.11L14.44,9Z"/><path class="cls-56" d="M14.44,9,16,7.78l0,.11L14.51,9.11Z"/><path class="cls-56" d="M14.51,9.11,16,7.89a.36.36,0,0,1,0,.11L14.57,9.19Z"/><path class="cls-57" d="M14.57,9.19,16.08,8l0,.11L14.63,9.28Z"/><path class="cls-58" d="M14.63,9.28l1.48-1.17,0,.11L14.69,9.37Z"/><path class="cls-59" d="M14.69,9.37l1.45-1.15,0,.11L14.75,9.46Z"/><path class="cls-60" d="M14.75,9.46l1.42-1.13,0,.11L14.81,9.55Z"/><path class="cls-61" d="M14.81,9.55,16.2,8.44l0,.11L14.86,9.64A.41.41,0,0,0,14.81,9.55Z"/><path class="cls-62" d="M14.86,9.64l1.37-1.09,0,.12L14.92,9.73Z"/><path class="cls-63" d="M14.92,9.73l1.34-1.06s0,.08,0,.11l-1.3,1Z"/><path class="cls-63" d="M15,9.82l1.3-1,0,.12L15,9.91Z"/><path class="cls-63" d="M15,9.91l1.28-1a.5.5,0,0,1,0,.12l-1.24,1Z"/><path class="cls-64" d="M15.09,10l1.24-1,0,.11-1.22,1A.31.31,0,0,1,15.09,10Z"/><path class="cls-65" d="M15.14,10.1l1.22-1a.5.5,0,0,0,0,.12l-1.19.94Z"/><path class="cls-66" d="M15.19,10.19l1.19-.94s0,.08,0,.12l-1.16.92A.47.47,0,0,0,15.19,10.19Z"/><path class="cls-66" d="M15.24,10.29l1.16-.92s0,.08,0,.12l-1.13.89A.41.41,0,0,0,15.24,10.29Z"/><path class="cls-67" d="M15.29,10.38l1.13-.89s0,.08,0,.12l-1.1.87A.93.93,0,0,0,15.29,10.38Z"/><path class="cls-68" d="M15.34,10.48l1.1-.87a.5.5,0,0,0,0,.12l-1.07.85Z"/><path class="cls-69" d="M15.39,10.58l1.07-.85s0,.08,0,.13l-1,.82Z"/><path class="cls-69" d="M15.44,10.68l1-.82s0,.08,0,.12l-1,.79Z"/><path class="cls-70" d="M15.49,10.77l1-.79v.12l-1,.77A1,1,0,0,1,15.49,10.77Z"/><path class="cls-71" d="M15.53,10.87l1-.77a.62.62,0,0,1,0,.13l-.93.74Z"/><path class="cls-71" d="M15.58,11l.93-.74s0,.08,0,.13l-.91.71A1,1,0,0,1,15.58,11Z"/><path class="cls-72" d="M15.62,11.07l.91-.71v.13l-.86.69Z"/><path class="cls-73" d="M15.67,11.18l.86-.69a.49.49,0,0,1,0,.12l-.83.67A.69.69,0,0,1,15.67,11.18Z"/><path class="cls-73" d="M15.71,11.28l.83-.67a.66.66,0,0,1,0,.14l-.8.63Z"/><path class="cls-74" d="M15.75,11.38l.8-.63a.62.62,0,0,0,0,.13l-.77.6Z"/><path class="cls-75" d="M15.79,11.48l.77-.6V11l-.73.58S15.8,11.52,15.79,11.48Z"/><path class="cls-76" d="M15.83,11.59l.73-.58v.13l-.69.55Z"/><path class="cls-76" d="M15.87,11.69l.69-.55v.14l-.65.52S15.88,11.73,15.87,11.69Z"/><path class="cls-77" d="M15.91,11.8l.65-.52v.14L16,11.9A.42.42,0,0,1,15.91,11.8Z"/><path class="cls-78" d="M16,11.9l.61-.48v.13L16,12Z"/><path class="cls-78" d="M16,12l.58-.46s0,.1,0,.15l-.53.42S16,12.05,16,12Z"/><path class="cls-79" d="M16,12.12l.53-.42a.71.71,0,0,1,0,.14l-.49.39Z"/><path class="cls-79" d="M16.05,12.23l.49-.39a.71.71,0,0,1,0,.14l-.44.36S16.06,12.26,16.05,12.23Z"/><path class="cls-80" d="M16.09,12.34l.44-.36a.61.61,0,0,1,0,.14l-.4.32Z"/><path class="cls-81" d="M16.12,12.44l.4-.32c0,.05,0,.1,0,.15l-.36.29Z"/><path class="cls-81" d="M16.15,12.56l.36-.29c0,.05,0,.1,0,.15l-.31.25Z"/><path class="cls-81" d="M16.18,12.67l.31-.25a.77.77,0,0,1,0,.15l-.26.21Z"/><path class="cls-82" d="M16.21,12.78l.26-.21a.77.77,0,0,1,0,.15l-.21.17Z"/><path class="cls-83" d="M16.24,12.89l.21-.17a5.58,5.58,0,0,1-.1.59C16.32,13.17,16.28,13,16.24,12.89Z"/></svg>