<svg id="Layer_1" data-name="Layer 1" xmlns="http://www.w3.org/2000/svg" viewBox="0 0 65 30"><defs><style>.cls-1{fill:#fcb813;}.cls-2{fill:#f37920;}.cls-3{fill:#f6921e;}.cls-4,.cls-5{fill:#0066b2;}.cls-5{fill-rule:evenodd;}</style></defs><path class="cls-1" d="M47.39,0a2.64,2.64,0,0,0-2.27.93L43.68,2.51,42.24.93A2.62,2.62,0,0,0,40,0H38.31s2.62,3.28,3,3.65A2.08,2.08,0,0,0,43,4.6h1.37a2.11,2.11,0,0,0,1.74-.95c.32-.37,3-3.65,3-3.65Z"/><path class="cls-2" d="M46.46,4.26a2.09,2.09,0,0,0-1.69,1l-.34.6-.34.59a2.12,2.12,0,0,0-.06,2c.16.47,1.68,4.38,1.68,4.38l.84-1.44A2.66,2.66,0,0,0,46.89,9l-.66-2,2.09-.46A2.59,2.59,0,0,0,50.25,5l.84-1.45s-4.14.63-4.63.73Z"/><path class="cls-3" d="M43.28,6.48l-.34-.59-.35-.6a2.09,2.09,0,0,0-1.68-1c-.5-.1-4.64-.73-4.64-.73L37.11,5A2.59,2.59,0,0,0,39,6.47l2.09.46-.65,2a2.62,2.62,0,0,0,.33,2.43l.83,1.44s1.53-3.91,1.69-4.38a2.09,2.09,0,0,0,0-2Z"/><path class="cls-4" d="M19.8,8.37H18.31c-.48,0-.63.19-.78.87C17,11.62,16.29,15.36,15,17.33c0,0-.32.52-.73.52s-.73-.52-.73-.52c-1.33-2-2.25-5.71-2.79-8.09-.16-.68-.31-.87-.79-.87H8.42c-.5,0-.65.42-.57.8A29.52,29.52,0,0,0,11,18.52c.9,1.52,1.73,2.36,3.22,2.37s2.32-.85,3.22-2.37c1.89-3.2,2.46-6.92,2.93-9.35.08-.38-.07-.8-.58-.8Zm4.66,0H22.78a.54.54,0,0,0-.54.53V20.11a.54.54,0,0,0,.54.53h1.68a.53.53,0,0,0,.53-.53V8.9a.53.53,0,0,0-.53-.53Zm8.77,10.17H30.15V15.25h3.11c1.26,0,2.15.52,2.15,1.68s-1.11,1.61-2.18,1.61Zm-3.08-8.07h2.74c1.12,0,1.73.44,1.73,1.36s-.71,1.41-1.65,1.41H30.15V10.47ZM35.66,14a.78.78,0,0,0,.2-.11,2.89,2.89,0,0,0,1.55-2.51c0-2.14-1.68-3-4.13-3H28.06a.57.57,0,0,0-.61.64V19.94c0,.51.21.7.57.7h5.89c2.49,0,4.33-1.13,4.33-3.63a3.06,3.06,0,0,0-2.58-3Z"/><path class="cls-5" d="M56.16,24.57l.43-.79h.71l-.75,1h-.27l.35.56H56l-.27-.49-.28.49h-.57l.65-1.1H56l.21.34Zm-10,0,.42-.79h.72l-.75,1h-.27l.35.56H46l-.27-.49-.28.49h-.57l.66-1.1h.37l.22.34Zm-35.74,3.1c0-.39,0-.78,0-1.17V24.31h.55v4.41h-.48L8.8,26.24c-.19-.29-.39-.59-.57-.9,0,.39,0,.77,0,1.15v2.23H7.7V24.31h.48l1.68,2.51c.18.28.36.56.53.85Zm3.38.71a1.4,1.4,0,0,1-.93.34,1.48,1.48,0,0,1-1.41-1.59,1.75,1.75,0,0,1,.46-1.25,1.41,1.41,0,0,1,1-.44,1.32,1.32,0,0,1,.9.33v-.26h.53v.13c0,.26,0,.5,0,.75v1.76a2,2,0,0,1-.45,1.47,1.61,1.61,0,0,1-1.1.38,1.84,1.84,0,0,1-1-.28l-.08-.06.21-.46.12.08a1.58,1.58,0,0,0,.82.22c.69,0,1-.4,1-1.07v-.05Zm2.3-3.56-.32.51h-.59l.73-1.1h.36l.76,1.1H16.4l-.33-.51Zm.63,3.64a1.34,1.34,0,0,1-.88.32.94.94,0,0,1-1-.94c0-1,1-1.19,1.83-1.21,0-.41-.16-.69-.64-.69a1.15,1.15,0,0,0-.67.2l-.14.09L15,25.77l.09-.06a1.74,1.74,0,0,1,.94-.27c.83,0,1.16.55,1.16,1.3v1.15a5.27,5.27,0,0,0,0,.68l0,.15h-.53l0-.26Zm1.72-2.65a1.32,1.32,0,0,1,.93-.37,1.2,1.2,0,0,1,.71.23,1.38,1.38,0,0,1,.46,1.15v1.9H20V26.84c0-.47-.17-.89-.71-.89a.81.81,0,0,0-.77.59.54.54,0,0,0,0,.22v2h-.55V26.34c0-.23,0-.46,0-.7v-.13h.53v.3Zm4.75,0a1.3,1.3,0,0,1,.23-.18,1.32,1.32,0,0,1,.67-.18,1.2,1.2,0,0,1,.71.23,1.41,1.41,0,0,1,.46,1.13v1.92h-.55V26.84c0-.47-.16-.89-.7-.89a.85.85,0,0,0-.78.58.69.69,0,0,0,0,.25v1.94h-.55V24.08h.55V25.8Zm2.7-1.57h.8l.72,1.1h-.53l-1-1.1Zm1.72,4.23a1.32,1.32,0,0,1-.88.32.94.94,0,0,1-1-.94c0-1,1-1.19,1.83-1.21,0-.41-.17-.69-.65-.69a1.15,1.15,0,0,0-.67.2l-.12.09-.21-.46.09-.06a1.75,1.75,0,0,1,.95-.27c.83,0,1.16.55,1.16,1.3v1.15a3.94,3.94,0,0,0,0,.68l0,.15h-.53l0-.26Zm1.73-2.65a1.32,1.32,0,0,1,.93-.37,1.15,1.15,0,0,1,.7.23,1.39,1.39,0,0,1,.47,1.15v1.9h-.55V26.84c0-.47-.16-.89-.7-.89a.83.83,0,0,0-.78.59.78.78,0,0,0,0,.22v2H28.8V26.34c0-.23,0-.46,0-.7v-.13h.53l0,.3Zm4.92,2.57a1.4,1.4,0,0,1-.93.34,1.48,1.48,0,0,1-1.41-1.59,1.75,1.75,0,0,1,.46-1.25,1.41,1.41,0,0,1,1-.44,1.3,1.3,0,0,1,.9.33v-.26h.53v.13c0,.26,0,.5,0,.75v1.76a1.94,1.94,0,0,1-.45,1.47,1.62,1.62,0,0,1-1.1.38,1.88,1.88,0,0,1-1-.28l-.08-.06.21-.46.12.08a1.58,1.58,0,0,0,.82.22c.69,0,1-.4,1-1.07v-.05Zm5.31.15c.33.08.67.15,1,.2l.15,0-.18.52-.11,0c-.53-.12-1.06-.26-1.58-.41h0a1.17,1.17,0,0,0-.2,0,2,2,0,0,1-2-2.22,2.08,2.08,0,0,1,2-2.31,2,2,0,0,1,2,2.22,2.19,2.19,0,0,1-1.06,2.06Zm3.6-.12a1.32,1.32,0,0,1-.93.37c-.83,0-1.14-.68-1.14-1.43V25.51h.55v1.78c0,.48.1,1,.67,1a.85.85,0,0,0,.76-.52.87.87,0,0,0,0-.28v-2h.55v2.36c0,.23,0,.47,0,.71v.14h-.53v-.31Zm2.56-3a1.51,1.51,0,0,1,1.52,1.64,1.7,1.7,0,0,1-.51,1.3,1.56,1.56,0,0,1-1,.4,1.52,1.52,0,0,1-1.5-1.65,1.57,1.57,0,0,1,1.54-1.69Zm4.22,2.62.16.46-.1.05a2,2,0,0,1-.93.21,1.53,1.53,0,0,1-1.57-1.64,1.62,1.62,0,0,1,1.68-1.7,1.68,1.68,0,0,1,.85.21l.09.05-.2.47-.12-.07a1.51,1.51,0,0,0-.65-.15A1.07,1.07,0,0,0,48,27.12a1,1,0,0,0,1.06,1.15,1.67,1.67,0,0,0,.7-.16l.13-.05Zm2.5-3.24H51.06v-.51h3.3v.51H53v3.9h-.55v-3.9Zm2.41,2.38c0,.62.34,1.07,1,1.07a1.59,1.59,0,0,0,.78-.16l.13-.06.15.47-.08.06a2.34,2.34,0,0,1-1,.2,1.5,1.5,0,0,1-1.53-1.62,1.55,1.55,0,0,1,1.48-1.72,1.31,1.31,0,0,1,1.29,1.46,1.48,1.48,0,0,1,0,.21l0,.09Zm-41.1-.68a.85.85,0,0,0-.81-.59c-.65,0-.95.58-.95,1.17s.3,1.11.94,1.11a.86.86,0,0,0,.81-.58,1.17,1.17,0,0,0,0-.27v-.6a1,1,0,0,0,0-.24Zm2.9.61c-.49,0-1.26.07-1.26.67a.44.44,0,0,0,.48.48.77.77,0,0,0,.76-.5.78.78,0,0,0,0-.14v-.51Zm10.88.65a.78.78,0,0,0,0-.14v-.51c-.49,0-1.26.07-1.26.67a.44.44,0,0,0,.47.48.79.79,0,0,0,.77-.5Zm6.69-1.26a.86.86,0,0,0-.81-.59c-.65,0-.94.58-.94,1.17s.29,1.11.93,1.11a.84.84,0,0,0,.8-.58.81.81,0,0,0,.05-.27v-.6a1,1,0,0,0,0-.24Zm4.4,1.76h0c1,0,1.43-.92,1.43-1.79s-.45-1.74-1.4-1.74-1.44.91-1.44,1.81a1.56,1.56,0,0,0,1.4,1.72Zm7.09-2.35c-.66,0-1,.59-1,1.19a1.07,1.07,0,0,0,1,1.16,1.08,1.08,0,0,0,1-1.18,1.06,1.06,0,0,0-1-1.17Zm9.17.79h1.61a.74.74,0,0,0-.76-.79.89.89,0,0,0-.85.79Z"/></svg>