<svg xmlns="http://www.w3.org/2000/svg" xmlns:xlink="http://www.w3.org/1999/xlink" viewBox="0 0 65 30"><defs><style>.cls-1{isolation:isolate;}.cls-2{fill:#005d98;}.cls-3{fill:url(#linear-gradient);}.cls-4{fill:url(#linear-gradient-2);}.cls-5{fill:url(#linear-gradient-3);}.cls-6{fill:url(#linear-gradient-4);}.cls-10,.cls-7{mix-blend-mode:overlay;}.cls-7{fill:url(#radial-gradient);}.cls-8{fill:url(#linear-gradient-5);}.cls-9{fill:url(#linear-gradient-6);}.cls-10{fill:url(#radial-gradient-2);}</style><linearGradient id="linear-gradient" x1="8.16" y1="17.4" x2="6.08" y2="16.51" gradientUnits="userSpaceOnUse"><stop offset="0.35" stop-color="#003863"/><stop offset="1" stop-color="#005d98"/></linearGradient><linearGradient id="linear-gradient-2" x1="60.13" y1="18.09" x2="60.13" y2="8.4" gradientUnits="userSpaceOnUse"><stop offset="0.1" stop-color="#003863"/><stop offset="0.35" stop-color="#26aae1"/><stop offset="0.5" stop-color="#5ecbf4"/><stop offset="0.65" stop-color="#149dd8"/><stop offset="0.9" stop-color="#003863"/></linearGradient><linearGradient id="linear-gradient-3" x1="382.39" y1="-319.73" x2="387.48" y2="-315.74" gradientTransform="translate(-322.64 328.29)" gradientUnits="userSpaceOnUse"><stop offset="0" stop-color="#005d98"/><stop offset="0.35" stop-color="#26aae1"/><stop offset="0.53" stop-color="#5ecbf4"/><stop offset="0.61" stop-color="#43baea"/><stop offset="0.7" stop-color="#29aae0"/><stop offset="0.78" stop-color="#19a0da"/><stop offset="0.85" stop-color="#149dd8"/><stop offset="0.87" stop-color="#1397d1"/><stop offset="0.91" stop-color="#0f86bd"/><stop offset="0.94" stop-color="#0a699c"/><stop offset="0.99" stop-color="#02436f"/><stop offset="1" stop-color="#003863"/></linearGradient><linearGradient id="linear-gradient-4" x1="57.72" y1="415.43" x2="61.12" y2="411.27" gradientTransform="translate(121.54 428.44) rotate(180)" gradientUnits="userSpaceOnUse"><stop offset="0" stop-color="#00bcf1"/><stop offset="0.43" stop-color="#008dca"/><stop offset="0.8" stop-color="#006aae"/><stop offset="1" stop-color="#005da3"/></linearGradient><radialGradient id="radial-gradient" cx="463.92" cy="-278.17" r="4.89" gradientTransform="translate(-403.82 291.59)" gradientUnits="userSpaceOnUse"><stop offset="0" stop-color="#fff" stop-opacity="0.01"/><stop offset="0.85" stop-color="#fff" stop-opacity="0"/><stop offset="1" stop-color="#fff"/></radialGradient><linearGradient id="linear-gradient-5" x1="-63.61" y1="-177.49" x2="-58.51" y2="-173.49" gradientTransform="translate(-3.1 -159.59) rotate(180)" xlink:href="#linear-gradient-3"/><linearGradient id="linear-gradient-6" x1="503.71" y1="273.19" x2="507.11" y2="269.03" gradientTransform="translate(-447.27 -259.73)" xlink:href="#linear-gradient-4"/><radialGradient id="radial-gradient-2" cx="17.92" cy="-136.01" r="4.89" gradientTransform="translate(78.08 -122.89) rotate(180)" xlink:href="#radial-gradient"/></defs><g class="cls-1"><g id="Layer_1" data-name="Layer 1"><polygon class="cls-2" points="45.43 14.86 47.43 14.86 47.43 16.78 49.16 14.86 51.92 14.86 49.8 17.24 52.01 21.36 49.55 21.36 48.27 18.91 47.43 19.88 47.43 21.36 45.43 21.36 45.43 14.86"/><polygon class="cls-2" points="37.76 14.86 39.58 14.86 42.51 18.49 42.51 14.86 44.46 14.86 44.46 21.36 42.51 21.36 39.71 17.91 39.71 21.36 37.76 21.36 37.76 14.86"/><polygon class="cls-2" points="2.01 16.49 4.86 16.49 4.86 14.86 0 14.86 0 21.35 4.86 21.35 4.86 19.73 2.01 19.73 2.01 18.92 4.38 18.92 4.38 17.29 2.01 17.29 2.01 17.27 2.01 16.49"/><path class="cls-2" d="M24.23,14.86H28a2.06,2.06,0,0,1,1.44.46,1.53,1.53,0,0,1,.5,1.15,1.44,1.44,0,0,1-.36,1,1.55,1.55,0,0,1-.7.43,1.87,1.87,0,0,1,1,.58,1.61,1.61,0,0,1,.33,1,1.84,1.84,0,0,1-.23.91,1.78,1.78,0,0,1-.64.64,2.48,2.48,0,0,1-.77.22,8.46,8.46,0,0,1-.89.09H24.23Zm2,2.54h.87a1,1,0,0,0,.65-.16.56.56,0,0,0,.19-.46.55.55,0,0,0-.19-.45,1,1,0,0,0-.63-.16h-.89Zm0,2.55h1a1.13,1.13,0,0,0,.73-.18.62.62,0,0,0,.21-.49.58.58,0,0,0-.21-.47,1.2,1.2,0,0,0-.73-.17h-1Z"/><path class="cls-2" d="M34.85,20.28H32.58l-.32,1.08h-2l2.44-6.5h2.18l2.44,6.5h-2.1Zm-.41-1.41-.72-2.33L33,18.87Z"/><rect class="cls-2" x="12.99" y="14.86" width="2.01" height="6.5"/><polygon class="cls-2" points="23.25 14.86 21.25 14.86 20.63 14.86 19.62 18.11 18.6 14.86 17.98 14.86 15.97 14.86 15.97 14.86 15.97 21.36 15.97 21.36 17.61 21.36 17.98 21.36 17.98 18.09 18.87 21.36 20.35 21.36 21.25 18.09 21.25 21.36 21.62 21.36 23.25 21.36 23.26 21.36 23.26 14.86 23.25 14.86"/><path class="cls-2" d="M12.48,20.21h0l-1.28-1.28a1.38,1.38,0,0,1-.29-.82,1.27,1.27,0,0,1,.37-.91L12.47,16h0a.05.05,0,0,0,0,0l0,0h0l-1.32-1.33-.05,0,0,0L9.86,15.74l-.77.78c.33.32.55.55.55.55a1.33,1.33,0,0,1,.43,1,1.43,1.43,0,0,1-.51,1.08l-.47.48,2,2,0,0,0,0,1.34-1.33h0s0,0,0,0Z"/><path class="cls-3" d="M7.86,15.61,6.79,14.55l0,0,0,0L5.38,15.88h0s0,0,0,0a0,0,0,0,0,0,0h0l1.28,1.28h0a1.38,1.38,0,0,1,.29.83,1.3,1.3,0,0,1-.37.91S8.7,17.35,7.86,15.61Z"/><path class="cls-2" d="M9.42,17.18,7.86,15.61c.74,1.67-1,3.15-1.28,3.39l-1.2,1.2h0s0,0,0,0a.06.06,0,0,0,0,0h0l1.33,1.32,0,0,0,0L8,20.43l1.35-1.36a1.25,1.25,0,0,0,.46-1A1.18,1.18,0,0,0,9.42,17.18Z"/><path class="cls-4" d="M60.41,8.39h-.57v9.68h.57Z"/><path class="cls-5" d="M64.32,12.34a.79.79,0,0,1,0,.21.89.89,0,0,1-.73.87c1.26-.05,1.31-.91,1.3-1.07a4.87,4.87,0,0,0-4.52-4h-.56v1A.53.53,0,0,1,60.42,9,4.27,4.27,0,0,1,64.32,12.34Z"/><path class="cls-6" d="M60.74,18A4.86,4.86,0,0,0,65,13.39h0a1.09,1.09,0,0,0,0-.18,5.05,5.05,0,0,0-.08-.88s0,1.06-1.4,1.06H60.74Z"/><path class="cls-7" d="M60.74,18A4.86,4.86,0,0,0,65,13.39h0a1.09,1.09,0,0,0,0-.18,5.05,5.05,0,0,0-.08-.88s0,1.06-1.4,1.06H60.74Z"/><path class="cls-8" d="M55.93,14.12a2.1,2.1,0,0,1,0-.21.86.86,0,0,1,.73-.86c-1.27,0-1.31.9-1.3,1.07a4.86,4.86,0,0,0,4.52,4h.55v-1a.53.53,0,0,1-.57.41A4.29,4.29,0,0,1,55.93,14.12Z"/><path class="cls-9" d="M59.52,8.42a4.88,4.88,0,0,0-4.26,4.65h0v.18a5.26,5.26,0,0,0,.08.89s0-1.07,1.39-1.07h2.79Z"/><path class="cls-10" d="M59.52,8.42a4.88,4.88,0,0,0-4.26,4.65h0v.18a5.26,5.26,0,0,0,.08.89s0-1.07,1.39-1.07h2.79Z"/></g></g></svg>