<svg id="Layer_1" data-name="Layer 1" xmlns="http://www.w3.org/2000/svg" viewBox="0 0 65 30"><defs><style>.cls-1{fill:#3e4095;}.cls-2{fill:#f58220;}.cls-3{fill:#6b3333;}</style></defs><path class="cls-1" d="M61.52,13.49a2.75,2.75,0,0,0-1-1.12,8.44,8.44,0,0,0-2.32-1v0a7.18,7.18,0,0,0,1.28-.46A2.91,2.91,0,0,0,61.2,8.15a2.64,2.64,0,0,0-.69-1.81,3.36,3.36,0,0,0-1.66-1,1.6,1.6,0,0,0-.44-.14l-.35-.06-.14,0h-.51A23.77,23.77,0,0,0,54.8,5H49.89v.42c1.12,0,1.67.58,1.67,1.73v9.56c0,1.15-.55,1.73-1.67,1.73v.43h7.17a4.85,4.85,0,0,0,1.72-.27,7.66,7.66,0,0,0,1.91-1.09,3.09,3.09,0,0,0,1.13-2.62A3,3,0,0,0,61.52,13.49ZM54.8,6.56A1.14,1.14,0,0,1,55,5.78a1.09,1.09,0,0,1,.78-.22,2.51,2.51,0,0,1,1.56.38,1.85,1.85,0,0,1,.52,1.49V9.06a1.94,1.94,0,0,1-2.2,2.18H54.8Zm3,11.12a2.93,2.93,0,0,1-2,.57c-.54,0-.85-.22-.93-.67a6.33,6.33,0,0,1-.05-1V12h1.29a2,2,0,0,1,2,1.21,6.64,6.64,0,0,1,.36,2.53A2.53,2.53,0,0,1,57.78,17.68Z"/><path class="cls-1" d="M43.7,12.2H38.82v4.48a1.51,1.51,0,0,0,1.67,1.73v.43H33.91v-.43a1.51,1.51,0,0,0,1.67-1.73V7.12a1.51,1.51,0,0,0-1.67-1.73V5h6.58v.42a1.51,1.51,0,0,0-1.67,1.73V11.2H43.7V7.12C43.7,6,43.15,5.39,42,5.39V5h6.58v.42a1.51,1.51,0,0,0-1.67,1.73v9.56a1.51,1.51,0,0,0,1.67,1.73v.43H42v-.43c1.12,0,1.67-.58,1.67-1.73Z"/><path class="cls-1" d="M31.79,4.69V9.16h-.41L30.74,7.7a4.53,4.53,0,0,0-1.22-1.6,3.2,3.2,0,0,0-2.14-.74,2,2,0,0,0-1.77.81,2,2,0,0,0-.4,1.19,2.18,2.18,0,0,0,.48,1.4,4.73,4.73,0,0,0,2.17,1.33,8.37,8.37,0,0,1,3.42,2,3.81,3.81,0,0,1,1.07,2.68,3.86,3.86,0,0,1-1.81,3.5,6.2,6.2,0,0,1-3.3.8,5.32,5.32,0,0,1-1.35-.22,13.86,13.86,0,0,0-2.1-.48c-.09,0-.17.06-.25.18l-.06.18-.08.34h-.49V14.16h.47l.43,1.43a3.9,3.9,0,0,0,.73,1.28,5.63,5.63,0,0,0,1.06,1,2.93,2.93,0,0,0,1.68.57c1.87,0,2.8-.74,2.8-2.23,0-.74-.51-1.44-1.52-2.09-.3-.19-1.12-.6-2.47-1.24A5.45,5.45,0,0,1,23.73,11a4,4,0,0,1-.64-2.13,4,4,0,0,1,1.31-3.1,3.78,3.78,0,0,1,2.61-1,6.84,6.84,0,0,1,1.85.24l1.84.52c.13,0,.26-.11.4-.33l.22-.43Z"/><path class="cls-2" d="M11.14,19.13h-1l.13-.09a9.23,9.23,0,0,0,3.35-3.31,2.34,2.34,0,0,0-.13-2.32h0a8.32,8.32,0,0,0-2.06-2h0a7.46,7.46,0,0,1-2-2,1.88,1.88,0,0,1,.21-2,10.36,10.36,0,0,1,2.87-2.59l.1-.06h.18l-.13.09h0l-.08.06a6.71,6.71,0,0,0-2.29,2.4,1.85,1.85,0,0,0,.08,1.82h0a7.74,7.74,0,0,0,2.11,2h0c.41.32.83.64,1.2,1a5.22,5.22,0,0,1,.95,1.07,2.33,2.33,0,0,1,.08,2.49,10.72,10.72,0,0,1-3.61,3.5ZM11.39,4.7h.17l-.13.1A8.65,8.65,0,0,0,8.94,7.2,1.77,1.77,0,0,0,8.79,9a7.34,7.34,0,0,0,2,2h0c.39.31.79.63,1.15,1a5.1,5.1,0,0,1,.88,1.07,2.43,2.43,0,0,1,.07,2.51c-.5,1-1.64,2.14-3.83,3.56H8.21L8.35,19a10.91,10.91,0,0,0,3.51-3.27,2.21,2.21,0,0,0,.1-2.29,4.54,4.54,0,0,0-.83-1.07c-.35-.34-.74-.66-1.12-1s-.77-.64-1.11-1a3.73,3.73,0,0,1-.78-1,2,2,0,0,1,.19-2,9.58,9.58,0,0,1,3.06-2.68ZM14,4.7h5.34V19.13h-7l.13-.09a9.48,9.48,0,0,0,3.16-3.25,2.23,2.23,0,0,0-.15-2.29,5.16,5.16,0,0,0-.94-1.07c-.38-.34-.81-.66-1.23-1h0a7.88,7.88,0,0,1-2.09-2,2,2,0,0,1,0-2A8.4,8.4,0,0,1,14,4.71ZM3.05,4.7h7.22l-.14.1A8.07,8.07,0,0,0,7.54,7.24a1.84,1.84,0,0,0-.11,1.82,3.77,3.77,0,0,0,.79,1c.33.33.72.66,1.11,1s.77.64,1.11,1a4.71,4.71,0,0,1,.83,1.06,2.36,2.36,0,0,1-.17,2.51,12.53,12.53,0,0,1-4,3.5H3V4.7Z"/><path class="cls-3" d="M3.48,24.47v-1.3H3.17v-.25h.31v-1.3h1a2.12,2.12,0,0,1,.5,0,1,1,0,0,1,.42.21,1.13,1.13,0,0,1,.34.48,2.06,2.06,0,0,1,.11.68,1.89,1.89,0,0,1-.14.75,1,1,0,0,1-.33.45,1.19,1.19,0,0,1-.44.21,2.19,2.19,0,0,1-.42,0Zm.38-.34h.61a1.33,1.33,0,0,0,.44-.05.55.55,0,0,0,.25-.14.9.9,0,0,0,.21-.36A1.77,1.77,0,0,0,5.45,23a1.54,1.54,0,0,0-.08-.54.91.91,0,0,0-.19-.32A.65.65,0,0,0,4.91,22a1.72,1.72,0,0,0-.45,0h-.6v1h.78v.25H3.86Z"/><path class="cls-3" d="M6.18,23.44a1.07,1.07,0,0,1,.32-.85,1,1,0,0,1,.65-.23.93.93,0,0,1,.7.28,1,1,0,0,1,.27.77A1.41,1.41,0,0,1,8,24a.84.84,0,0,1-.35.35,1,1,0,0,1-1.2-.15A1.11,1.11,0,0,1,6.18,23.44Zm1-1.62-.21.33H6.53L7,21.6h.38l.44.55h-.4Zm-.61,1.62a.85.85,0,0,0,.18.59.56.56,0,0,0,.86,0,.86.86,0,0,0,.18-.6.82.82,0,0,0-.18-.58.52.52,0,0,0-.43-.2.54.54,0,0,0-.43.19A.88.88,0,0,0,6.54,23.44Zm.68-2.52h.47l-.45.54H7Z"/><path class="cls-3" d="M8.53,22v-.4h.35V22Zm0,2.45V22.41h.35v2.06Z"/><path class="cls-3" d="M11.28,24.16l.05.31-.26,0a.61.61,0,0,1-.3-.06.31.31,0,0,1-.14-.16,1.15,1.15,0,0,1-.05-.41V22.68h-.25v-.27h.25v-.52l.35-.21v.73h.35v.27h-.35v1.21a.66.66,0,0,0,0,.19.13.13,0,0,0,.06.07l.12,0Z"/><path class="cls-3" d="M13,24.22a1.39,1.39,0,0,1-.37.23,1.23,1.23,0,0,1-.39.07.76.76,0,0,1-.52-.17.54.54,0,0,1-.18-.42.53.53,0,0,1,.07-.28.49.49,0,0,1,.18-.2.83.83,0,0,1,.25-.12l.31,0a2.69,2.69,0,0,0,.62-.12.55.55,0,0,1,0-.09.41.41,0,0,0-.1-.3.6.6,0,0,0-.4-.12.61.61,0,0,0-.37.09.51.51,0,0,0-.17.3l-.34,0a.85.85,0,0,1,.15-.36.66.66,0,0,1,.31-.21,1.33,1.33,0,0,1,.47-.07,1.31,1.31,0,0,1,.43.06.56.56,0,0,1,.24.16.53.53,0,0,1,.11.24,2,2,0,0,1,0,.32v.47a4.08,4.08,0,0,0,0,.61.58.58,0,0,0,.09.25H13A.91.91,0,0,1,13,24.22Zm0-.79a2.12,2.12,0,0,1-.57.14,1.1,1.1,0,0,0-.3.07.26.26,0,0,0-.14.11.34.34,0,0,0,0,.17.27.27,0,0,0,.11.23.46.46,0,0,0,.31.09.74.74,0,0,0,.36-.09.53.53,0,0,0,.23-.24,1,1,0,0,0,0-.35Zm-.68-1.28.26-.55H13l-.43.55Z"/><path class="cls-3" d="M15.19,23.71l.34.05a.9.9,0,0,1-.29.56.84.84,0,0,1-.57.2.9.9,0,0,1-.68-.28,1.12,1.12,0,0,1-.26-.79,1.51,1.51,0,0,1,.11-.59.84.84,0,0,1,.34-.38,1,1,0,0,1,.49-.12.86.86,0,0,1,.55.17.73.73,0,0,1,.28.48l-.34,0a.58.58,0,0,0-.17-.31.47.47,0,0,0-.3-.1.53.53,0,0,0-.43.19.88.88,0,0,0-.17.6,1,1,0,0,0,.16.6.52.52,0,0,0,.42.19A.45.45,0,0,0,15,24.1.65.65,0,0,0,15.19,23.71Z"/><path class="cls-3" d="M17.7,24.16l.05.31-.26,0a.61.61,0,0,1-.3-.06.38.38,0,0,1-.15-.16,1.59,1.59,0,0,1,0-.41V22.68h-.26v-.27H17v-.52l.35-.21v.73h.35v.27h-.35v1.21a.42.42,0,0,0,0,.19.13.13,0,0,0,.06.07l.12,0Z"/><path class="cls-3" d="M18,22v-.4h.35V22Zm0,2.45V22.41h.35v2.06Z"/><path class="cls-3" d="M18.93,24.47V22.41h.31v.29a.73.73,0,0,1,.66-.34.77.77,0,0,1,.34.07.5.5,0,0,1,.24.17.68.68,0,0,1,.11.26,2.44,2.44,0,0,1,0,.34v1.27h-.35V23.21a.89.89,0,0,0-.05-.32.27.27,0,0,0-.14-.16.4.4,0,0,0-.24-.07.6.6,0,0,0-.39.14.71.71,0,0,0-.16.54v1.13Z"/><path class="cls-3" d="M23.6,23.71l.34.05a.9.9,0,0,1-.29.56.84.84,0,0,1-.57.2.9.9,0,0,1-.68-.28,1.12,1.12,0,0,1-.26-.79,1.51,1.51,0,0,1,.11-.59.84.84,0,0,1,.34-.38,1,1,0,0,1,.49-.12.86.86,0,0,1,.55.17.73.73,0,0,1,.28.48l-.34,0a.6.6,0,0,0-.18-.31.43.43,0,0,0-.29-.1.53.53,0,0,0-.43.19.88.88,0,0,0-.17.6.9.9,0,0,0,.16.6.52.52,0,0,0,.42.19.47.47,0,0,0,.34-.13A.65.65,0,0,0,23.6,23.71Z"/><path class="cls-3" d="M25.59,24.22a1.43,1.43,0,0,1-.38.23,1.22,1.22,0,0,1-.38.07.78.78,0,0,1-.53-.17.54.54,0,0,1-.18-.42.53.53,0,0,1,.07-.28.7.7,0,0,1,.18-.2,1.15,1.15,0,0,1,.25-.12l.31,0a2.8,2.8,0,0,0,.63-.12v-.09a.38.38,0,0,0-.1-.3.58.58,0,0,0-.4-.12.6.6,0,0,0-.36.09.51.51,0,0,0-.18.3l-.34,0a.85.85,0,0,1,.15-.36.77.77,0,0,1,.31-.21,1.37,1.37,0,0,1,.47-.07,1.27,1.27,0,0,1,.43.06.67.67,0,0,1,.25.16.53.53,0,0,1,.1.24,1.24,1.24,0,0,1,0,.32v.47c0,.32,0,.53,0,.61a1.06,1.06,0,0,0,.09.25h-.36A.66.66,0,0,1,25.59,24.22Zm-.51-2.4-.22.33h-.4l.42-.55h.37l.44.55h-.4Zm.48,1.61a2.35,2.35,0,0,1-.57.14,1.1,1.1,0,0,0-.31.07.3.3,0,0,0-.14.11.34.34,0,0,0-.05.17.3.3,0,0,0,.11.23.46.46,0,0,0,.31.09.69.69,0,0,0,.36-.09.49.49,0,0,0,.23-.24.79.79,0,0,0,.06-.35Zm-.69,1.67v-.4h.4v.4Z"/><path class="cls-3" d="M26.44,25.27l0-.33.2,0a.36.36,0,0,0,.19,0,.38.38,0,0,0,.11-.11,1.59,1.59,0,0,0,.11-.26.92.92,0,0,1,0-.09l-.78-2.06h.37l.43,1.19a3.37,3.37,0,0,1,.15.48,3.68,3.68,0,0,1,.15-.47l.44-1.2h.35l-.79,2.1a4.78,4.78,0,0,1-.19.46.84.84,0,0,1-.22.26.52.52,0,0,1-.29.08A1,1,0,0,1,26.44,25.27Z"/><path class="cls-3" d="M28.24,24.47v-.4h.4v.4a.74.74,0,0,1-.08.36.43.43,0,0,1-.25.2l-.09-.15a.32.32,0,0,0,.16-.14.49.49,0,0,0,.06-.27Z"/><path class="cls-3" d="M30.3,24.64l.34.05a.29.29,0,0,0,.12.23.52.52,0,0,0,.35.1.61.61,0,0,0,.38-.1.44.44,0,0,0,.18-.27,3.68,3.68,0,0,0,0-.45.71.71,0,0,1-.57.27.78.78,0,0,1-.66-.31,1.2,1.2,0,0,1-.23-.73,1.26,1.26,0,0,1,.11-.55.78.78,0,0,1,.31-.38.75.75,0,0,1,.47-.14.76.76,0,0,1,.61.29v-.24h.32v1.78a1.58,1.58,0,0,1-.1.68.74.74,0,0,1-.31.32,1.07,1.07,0,0,1-.53.12,1,1,0,0,1-.59-.17A.56.56,0,0,1,30.3,24.64Zm.29-1.24a.87.87,0,0,0,.16.59.5.5,0,0,0,.4.19.52.52,0,0,0,.41-.19.84.84,0,0,0,.16-.58.81.81,0,0,0-.17-.57.52.52,0,0,0-.8,0A.81.81,0,0,0,30.59,23.4Z"/><path class="cls-3" d="M32.58,22v-.4h.35V22Zm0,2.45V22.41h.35v2.06Z"/><path class="cls-3" d="M34.81,24.22a1.43,1.43,0,0,1-.38.23,1.17,1.17,0,0,1-.38.07.74.74,0,0,1-.52-.17.52.52,0,0,1-.19-.42.64.64,0,0,1,.07-.28.7.7,0,0,1,.18-.2,1.15,1.15,0,0,1,.25-.12l.32,0a2.69,2.69,0,0,0,.62-.12v-.09a.38.38,0,0,0-.1-.3.58.58,0,0,0-.4-.12.6.6,0,0,0-.36.09.51.51,0,0,0-.18.3l-.34,0a.86.86,0,0,1,.16-.36.66.66,0,0,1,.31-.21,1.31,1.31,0,0,1,.46-.07,1.27,1.27,0,0,1,.43.06.6.6,0,0,1,.25.16.53.53,0,0,1,.11.24,2.47,2.47,0,0,1,0,.32v.47a3.58,3.58,0,0,0,0,.61.73.73,0,0,0,.08.25h-.36A.66.66,0,0,1,34.81,24.22Zm0-.79a2.35,2.35,0,0,1-.57.14,1.1,1.1,0,0,0-.31.07.3.3,0,0,0-.14.11.33.33,0,0,0,0,.17.29.29,0,0,0,.1.23.48.48,0,0,0,.31.09.69.69,0,0,0,.36-.09.49.49,0,0,0,.23-.24.79.79,0,0,0,.06-.35Zm-.41-1.54a.14.14,0,0,0,.11-.1.09.09,0,0,0-.06-.08.54.54,0,0,0-.26-.05H34l0-.2h.28a.87.87,0,0,1,.39.08.25.25,0,0,1,.17.23c0,.16-.11.25-.35.28v.1h-.22v-.23Z"/><path class="cls-3" d="M35.68,22v-.4H36V22Zm0,2.45V22.41H36v2.06Z"/><path class="cls-3" d="M37.67,25.26V22.41H38v.26a.77.77,0,0,1,.25-.23.82.82,0,0,1,.81.06.78.78,0,0,1,.31.38,1.37,1.37,0,0,1,.1.54,1.48,1.48,0,0,1-.11.57.91.91,0,0,1-.33.39.88.88,0,0,1-.46.14.62.62,0,0,1-.31-.08.71.71,0,0,1-.23-.18v1ZM38,23.45a.94.94,0,0,0,.16.59.5.5,0,0,0,.4.19.54.54,0,0,0,.4-.2.93.93,0,0,0,.16-.61.9.9,0,0,0-.16-.59.5.5,0,0,0-.39-.2.49.49,0,0,0-.39.21A.91.91,0,0,0,38,23.45Z"/><path class="cls-3" d="M39.88,24.47V21.62h.35v1a.77.77,0,0,1,.62-.28.84.84,0,0,1,.4.09.53.53,0,0,1,.24.25,1.14,1.14,0,0,1,.07.46v1.31h-.35V23.16a.52.52,0,0,0-.11-.38.42.42,0,0,0-.32-.12.57.57,0,0,0-.29.08.47.47,0,0,0-.2.22,1,1,0,0,0-.06.38v1.13Z"/><path class="cls-3" d="M43.44,24.22a1.39,1.39,0,0,1-.37.23,1.23,1.23,0,0,1-.39.07.76.76,0,0,1-.52-.17.54.54,0,0,1-.18-.42.53.53,0,0,1,.07-.28.49.49,0,0,1,.18-.2,1,1,0,0,1,.25-.12l.31,0a2.69,2.69,0,0,0,.62-.12.44.44,0,0,0,0-.09.41.41,0,0,0-.1-.3.58.58,0,0,0-.4-.12.61.61,0,0,0-.37.09.57.57,0,0,0-.17.3L42,23a.85.85,0,0,1,.15-.36.71.71,0,0,1,.31-.21,1.37,1.37,0,0,1,.47-.07,1.27,1.27,0,0,1,.43.06.56.56,0,0,1,.24.16.53.53,0,0,1,.11.24,2,2,0,0,1,0,.32v.47c0,.32,0,.53,0,.61a1.06,1.06,0,0,0,.09.25h-.37A.91.91,0,0,1,43.44,24.22Zm0-.79a2.12,2.12,0,0,1-.57.14,1.1,1.1,0,0,0-.3.07.26.26,0,0,0-.14.11.34.34,0,0,0,0,.17.3.3,0,0,0,.11.23.46.46,0,0,0,.31.09.74.74,0,0,0,.36-.09.53.53,0,0,0,.23-.24.81.81,0,0,0,0-.35Zm-.68-1.28L43,21.6h.46l-.43.55Z"/><path class="cls-3" d="M44.31,25.26V22.41h.32v.26a.77.77,0,0,1,.25-.23.75.75,0,0,1,.35-.08.79.79,0,0,1,.47.14.83.83,0,0,1,.3.38,1.37,1.37,0,0,1,.1.54A1.48,1.48,0,0,1,46,24a.91.91,0,0,1-.33.39.88.88,0,0,1-.46.14.65.65,0,0,1-.31-.08.84.84,0,0,1-.23-.18v1Zm.32-1.81a.89.89,0,0,0,.16.59.49.49,0,0,0,.39.19.52.52,0,0,0,.4-.2.93.93,0,0,0,.17-.61.9.9,0,0,0-.17-.59.49.49,0,0,0-.39-.2.5.5,0,0,0-.39.21A.91.91,0,0,0,44.63,23.45Z"/><path class="cls-3" d="M47.63,25.26V22.41H48v.26a.89.89,0,0,1,.25-.23.75.75,0,0,1,.35-.08.77.77,0,0,1,.47.14.83.83,0,0,1,.3.38,1.37,1.37,0,0,1,.1.54,1.32,1.32,0,0,1-.11.57.91.91,0,0,1-.33.39.86.86,0,0,1-.46.14.65.65,0,0,1-.31-.08.84.84,0,0,1-.23-.18v1ZM48,23.45a.89.89,0,0,0,.16.59.49.49,0,0,0,.39.19.51.51,0,0,0,.4-.2.93.93,0,0,0,.17-.61.9.9,0,0,0-.17-.59.47.47,0,0,0-.38-.2.52.52,0,0,0-.4.21A1,1,0,0,0,48,23.45Z"/><path class="cls-3" d="M49.85,24.47V21.62h.35v1a.77.77,0,0,1,.61-.28.82.82,0,0,1,.4.09.45.45,0,0,1,.24.25,1.12,1.12,0,0,1,.08.46v1.31h-.35V23.16a.52.52,0,0,0-.12-.38.41.41,0,0,0-.32-.12.6.6,0,0,0-.29.08.53.53,0,0,0-.2.22,1.25,1.25,0,0,0,0,.38v1.13Z"/><path class="cls-3" d="M53.41,24.47v-.3a.76.76,0,0,1-.65.35.94.94,0,0,1-.34-.07.58.58,0,0,1-.24-.18.89.89,0,0,1-.11-.26,2.33,2.33,0,0,1,0-.32V22.41h.35v1.14a2.62,2.62,0,0,0,0,.37.46.46,0,0,0,.14.22.48.48,0,0,0,.27.08.52.52,0,0,0,.29-.09.41.41,0,0,0,.2-.21,1.11,1.11,0,0,0,.06-.41v-1.1h.35v2.06Zm-.2-2.32h-.28l-.45-.55H53Z"/><path class="cls-3" d="M55.38,24.47V21.62h.35v1a.77.77,0,0,1,.62-.28.84.84,0,0,1,.4.09.53.53,0,0,1,.24.25,1.14,1.14,0,0,1,.07.46v1.31h-.35V23.16a.52.52,0,0,0-.11-.38.42.42,0,0,0-.32-.12.57.57,0,0,0-.29.08.47.47,0,0,0-.2.22,1,1,0,0,0-.06.38v1.13Z"/><path class="cls-3" d="M59.45,22.76v-.4h.37v.32a.76.76,0,0,1-.07.37.82.82,0,0,1-.35.3v.06a1,1,0,0,1-.47,1,1,1,0,0,1-.5.13.93.93,0,0,1-.7-.28,1.12,1.12,0,0,1-.26-.8,1.07,1.07,0,0,1,.31-.85,1,1,0,0,1,.65-.23.91.91,0,0,1,1,.82.46.46,0,0,0,.19-.17.42.42,0,0,0,.06-.25Zm-1.62.68A.88.88,0,0,0,58,24a.54.54,0,0,0,.43.2.54.54,0,0,0,.44-.2,1,1,0,0,0,.17-.6.91.91,0,0,0-.17-.58.58.58,0,0,0-.87,0A.91.91,0,0,0,57.83,23.44Zm.39,1.66v-.4h.4v.4Z"/><path class="cls-3" d="M60.21,25.26V22.41h.32v.26a.77.77,0,0,1,.25-.23.82.82,0,0,1,.81.06.78.78,0,0,1,.31.38,1.37,1.37,0,0,1,.1.54,1.48,1.48,0,0,1-.11.57.91.91,0,0,1-.33.39.88.88,0,0,1-.46.14.62.62,0,0,1-.31-.08.71.71,0,0,1-.23-.18v1Zm.31-1.81a.88.88,0,0,0,.17.59.47.47,0,0,0,.39.19.54.54,0,0,0,.4-.2.93.93,0,0,0,.16-.61.9.9,0,0,0-.16-.59.5.5,0,0,0-.39-.2.49.49,0,0,0-.39.21A.91.91,0,0,0,60.52,23.45Z"/></svg>