<svg id="Layer_1" data-name="Layer 1" xmlns="http://www.w3.org/2000/svg" xmlns:xlink="http://www.w3.org/1999/xlink" viewBox="0 0 65 30"><defs><style>.cls-1{fill:url(#radial-gradient);}.cls-2{fill:url(#radial-gradient-2);}.cls-3{fill:url(#radial-gradient-3);}.cls-4{fill:url(#radial-gradient-4);}</style><radialGradient id="radial-gradient" cx="262.44" cy="263.41" r="6.36" gradientTransform="translate(-295.02 -296.5) scale(1.17)" gradientUnits="userSpaceOnUse"><stop offset="0.02" stop-color="#6f0000"/><stop offset="0.33" stop-color="#910d11"/><stop offset="0.45" stop-color="#a61519"/><stop offset="0.59" stop-color="#bc1b20"/><stop offset="0.74" stop-color="#cb1e24"/><stop offset="0.88" stop-color="#d52027"/><stop offset="1" stop-color="#da2128"/></radialGradient><radialGradient id="radial-gradient-2" cx="267.28" cy="267.24" r="5.67" gradientTransform="translate(-295.02 -296.5) scale(1.17)" gradientUnits="userSpaceOnUse"><stop offset="0.04" stop-color="#6f0000"/><stop offset="0.3" stop-color="#910d11"/><stop offset="0.42" stop-color="#a01317"/><stop offset="0.68" stop-color="#be1b21"/><stop offset="0.88" stop-color="#d11f26"/><stop offset="1" stop-color="#da2128"/></radialGradient><radialGradient id="radial-gradient-3" cx="264.44" cy="260.78" r="11.45" gradientTransform="translate(-295.02 -296.5) scale(1.17)" gradientUnits="userSpaceOnUse"><stop offset="0.36" stop-color="#da2128"/><stop offset="1" stop-color="#f37021"/></radialGradient><radialGradient id="radial-gradient-4" cx="253.57" cy="270.97" r="5.94" gradientTransform="translate(-295.02 -296.5) scale(1.17)" gradientUnits="userSpaceOnUse"><stop offset="0.31" stop-color="#da2128"/><stop offset="0.79" stop-color="#910d11"/><stop offset="1" stop-color="#6f0000"/></radialGradient></defs><path class="cls-1" d="M17.59,19.27A3.58,3.58,0,0,0,16.77,17h0L9.57,8.45h0A3.38,3.38,0,0,0,6.89,7.21a3.5,3.5,0,0,0-3.5,3.5A3.61,3.61,0,0,0,4.2,13h0l7.2,8.6h0a3.41,3.41,0,0,0,2.69,1.24A3.54,3.54,0,0,0,17.59,19.27Z"/><path class="cls-2" d="M16.23,22a3.44,3.44,0,0,0,1.28-2h0l1.91-8.52h0a3.5,3.5,0,0,0-5.53-3.58,3.44,3.44,0,0,0-1.28,2h0l-1.87,8.33,0,.23A3.49,3.49,0,0,0,16.23,22Z"/><path class="cls-3" d="M26.74,19.27A3.58,3.58,0,0,0,25.92,17h0L18.68,8.45h0A3.38,3.38,0,0,0,16,7.21a3.51,3.51,0,0,0-3.51,3.5A3.56,3.56,0,0,0,13.31,13h0l7.2,8.6h0a3.4,3.4,0,0,0,2.69,1.24A3.55,3.55,0,0,0,26.74,19.27Z"/><path class="cls-4" d="M3.5,15.77A3.5,3.5,0,1,1,0,19.27,3.51,3.51,0,0,1,3.5,15.77Z"/><path d="M64,14.72l-.08-.08.08-.08a3.46,3.46,0,0,0,.78-2.33,3.78,3.78,0,0,0-4-3.43h-4.6a1.35,1.35,0,0,0-1.36,1.36v9.73a1.36,1.36,0,0,0,1.36,1.37h4.56a4.4,4.4,0,0,0,3-1.13A3.71,3.71,0,0,0,65,17.36,3.5,3.5,0,0,0,64,14.72Zm-6.46-3.47H61A1.12,1.12,0,0,1,62,12.34,1.1,1.1,0,0,1,61,13.43H57.49ZM61,18.73h-3.5V15.92H61a1.39,1.39,0,0,1,1.4,1.44A1.38,1.38,0,0,1,61,18.73Z"/><path d="M49.27,13.75c-1.05-.28-2.29-.63-2.37-1.48,0-.59.43-1.09,1.21-1.21,1.55-.19,2.91.7,3.65.89a1.17,1.17,0,0,0,1.41-1c.11-.93-.82-1.44-1.17-1.67a6.21,6.21,0,0,0-3.19-.78c-2.77,0-4.67,1.6-4.67,3.86a3.24,3.24,0,0,0,1.36,2.8c1.75,1.32,5.17,1.17,5.17,2.53,0,1.2-2.25,2-4.74.35h0a1.34,1.34,0,0,0-.78-.27A1.25,1.25,0,0,0,43.9,19a1.11,1.11,0,0,0,.16.62l0,0,0,0s0,0,0,.08h0a2.73,2.73,0,0,0,1,.9,6.32,6.32,0,0,0,3.54.93,5.43,5.43,0,0,0,3.5-1,3.64,3.64,0,0,0,1.33-2.92C53.52,15.19,51.45,14.33,49.27,13.75Z"/><path d="M41.26,8.76H40.4a1.27,1.27,0,0,0-1.13.7l-2.88,6-2.88-6a1.32,1.32,0,0,0-1.17-.7h-.85a1.39,1.39,0,0,0-1.37,1.37V20a1.35,1.35,0,0,0,2.07,1.13,1.17,1.17,0,0,0,.62-1.05V14.21l2.41,4.63a1.33,1.33,0,0,0,2.34,0L40,14.21v5.88a1.17,1.17,0,0,0,.62,1.05A1.37,1.37,0,0,0,42.66,20V10.13A1.4,1.4,0,0,0,41.26,8.76Z"/></svg>