<svg id="Layer_1" data-name="Layer 1" xmlns="http://www.w3.org/2000/svg" xmlns:xlink="http://www.w3.org/1999/xlink" viewBox="0 0 65 30"><defs><style>.cls-1{fill:none;}.cls-2{fill:#c8252c;}.cls-10,.cls-11,.cls-12,.cls-13,.cls-14,.cls-15,.cls-16,.cls-17,.cls-18,.cls-19,.cls-2,.cls-20,.cls-21,.cls-22,.cls-23,.cls-24,.cls-25,.cls-26,.cls-27,.cls-28,.cls-29,.cls-3,.cls-30,.cls-31,.cls-33,.cls-34,.cls-35,.cls-36,.cls-37,.cls-38,.cls-39,.cls-40,.cls-41,.cls-42,.cls-43,.cls-44,.cls-45,.cls-46,.cls-47,.cls-48,.cls-49,.cls-5,.cls-50,.cls-51,.cls-54,.cls-55,.cls-56,.cls-57,.cls-58,.cls-59,.cls-6,.cls-60,.cls-61,.cls-62,.cls-63,.cls-64,.cls-65,.cls-66,.cls-67,.cls-68,.cls-69,.cls-7,.cls-70,.cls-71,.cls-72,.cls-73,.cls-74,.cls-75,.cls-76,.cls-77,.cls-78,.cls-79,.cls-8,.cls-80,.cls-9{fill-rule:evenodd;}.cls-3,.cls-82{fill:#58595b;}.cls-4{clip-path:url(#clip-path);}.cls-5{fill:#f8a91a;}.cls-6{fill:#f9ab19;}.cls-7{fill:#f9ac19;}.cls-8{fill:#f9ad18;}.cls-9{fill:#f9ae18;}.cls-10{fill:#f8ae19;}.cls-11{fill:#f8b018;}.cls-12{fill:#f8b118;}.cls-13{fill:#fab216;}.cls-14{fill:#fab316;}.cls-15{fill:#fab516;}.cls-16{fill:#fab515;}.cls-17{fill:#f9b616;}.cls-18{fill:#f9b715;}.cls-19{fill:#fbb814;}.cls-20{fill:#fbba13;}.cls-21{fill:#fabb14;}.cls-22{fill:#fabc13;}.cls-23{fill:#fabe12;}.cls-24{fill:#fbbe12;}.cls-25{fill:#fbc014;}.cls-26{fill:#fbc115;}.cls-27{fill:#fdc313;}.cls-28{fill:#fdc412;}.cls-29{fill:#fdc512;}.cls-30{fill:#fdc611;}.cls-31{fill:#fdc710;}.cls-32,.cls-33{fill:#fdc70e;}.cls-34{fill:#ffca0c;}.cls-35{fill:#ffca0b;}.cls-36{fill:#fdcb0c;}.cls-37{fill:#fdcd0d;}.cls-38{fill:#fccd0e;}.cls-39{fill:#fcce0d;}.cls-40{fill:#fcd00c;}.cls-41{fill:#fdd10b;}.cls-42{fill:#fcd20c;}.cls-43{fill:#fcd208;}.cls-44{fill:#fcd307;}.cls-45{fill:#fcd401;}.cls-46{fill:#fcd500;}.cls-47{fill:#fcd600;}.cls-48{fill:#fcd700;}.cls-49{fill:#fcd800;}.cls-50{fill:#fcda00;}.cls-51,.cls-52{fill:#fddb00;}.cls-53{clip-path:url(#clip-path-2);}.cls-54{fill:#f9b317;}.cls-55{fill:#f9b417;}.cls-56{fill:#f9b516;}.cls-57{fill:#f8b617;}.cls-58{fill:#f8b716;}.cls-59{fill:#f9b915;}.cls-60{fill:#faba14;}.cls-61{fill:#f9bb14;}.cls-62{fill:#f9bc14;}.cls-63{fill:#f9bd14;}.cls-64{fill:#f9bd13;}.cls-65{fill:#f9bf13;}.cls-66{fill:#f8bf16;}.cls-67{fill:#f9c115;}.cls-68{fill:#f9c314;}.cls-69{fill:#fac414;}.cls-70{fill:#fac412;}.cls-71{fill:#fcc612;}.cls-72{fill:#fcc810;}.cls-73{fill:#fcc910;}.cls-74{fill:#fcc90e;}.cls-75{fill:#fbca0e;}.cls-76{fill:#fccb10;}.cls-77{fill:#fccc0f;}.cls-78{fill:#fbcd0f;}.cls-79{fill:#fbce0f;}.cls-80{fill:#fbcf0d;}.cls-81{fill:#fcd407;}</style><clipPath id="clip-path"><path class="cls-1" d="M50.5,7.13c0,.73.48,1,1.28,1a19.38,19.38,0,0,0,3.46-.32s0,0,0,0c-2-.69-1.55-4-1.6-4.25a.16.16,0,0,0-.18-.12c-.67,0-3,2.18-3,3.73"/></clipPath><clipPath id="clip-path-2"><path class="cls-1" d="M64.85,6.53a.49.49,0,0,0-.18,0A37.92,37.92,0,0,1,53,9c.21,3,2.18,6.25,3.78,6.25,4.1,0,7.39-6.77,8.08-8.21.19-.4.13-.55,0-.55Z"/></clipPath></defs><path class="cls-2" d="M0,20.31v-9a1,1,0,0,1,.31-.74,1,1,0,0,1,.74-.31h1V14H6.14V10.28H8.22v10H6.14V15.85H2.05v4.46Z"/><path class="cls-2" d="M11.27,18.5h1.32a2.69,2.69,0,0,0,2.1-.75,3.65,3.65,0,0,0,.65-2.46,3.94,3.94,0,0,0-.62-2.47,2.17,2.17,0,0,0-1.87-.8H11.27Zm-2,1.81v-9a1,1,0,0,1,.3-.74,1,1,0,0,1,.76-.31h2.55a4.59,4.59,0,0,1,3.46,1.22,5.54,5.54,0,0,1,1.14,3.79A6.61,6.61,0,0,1,17,17.71a4.07,4.07,0,0,1-1.24,1.7,4,4,0,0,1-1.37.7,8.18,8.18,0,0,1-2.14.2Z"/><path class="cls-3" d="M25.14,14.88a2.15,2.15,0,0,0,.9-.78,2.43,2.43,0,0,0,.31-1.28,2.32,2.32,0,0,0-.81-1.89,3.64,3.64,0,0,0-2.35-.65H19.5a1.06,1.06,0,0,0-1,1.05v9H23a4.17,4.17,0,0,0,2.71-.79,2.85,2.85,0,0,0,.93-2.26,2.61,2.61,0,0,0-.38-1.47A2.68,2.68,0,0,0,25.14,14.88ZM20.45,12h2.33a1.93,1.93,0,0,1,1.14.25.94.94,0,0,1,.35.81,1,1,0,0,1-.35.82,2,2,0,0,1-1.12.26H20.45Zm3.7,6.16a2,2,0,0,1-1.26.32H20.45V15.88h2.42a2.12,2.12,0,0,1,1.28.29,1.26,1.26,0,0,1,.4,1A1.17,1.17,0,0,1,24.15,18.18Z"/><path class="cls-3" d="M41.42,12.84A4.66,4.66,0,0,0,39,12.19a4.6,4.6,0,0,0-2.34.72,2.94,2.94,0,0,0-1.05,2.65v4.75h2.09V15.16a1.25,1.25,0,0,1,.41-1,1.57,1.57,0,0,1,1-.31,1.67,1.67,0,0,1,1,.31,1.2,1.2,0,0,1,.43,1v4.16a1,1,0,0,0,.28.72,1,1,0,0,0,.73.27h1.05V15.56A3,3,0,0,0,41.42,12.84Z"/><path class="cls-3" d="M33.72,12.74a4.85,4.85,0,0,0-2.59-.57,3.82,3.82,0,0,0-2.37.67,2.3,2.3,0,0,0-.85,1.51H30a.81.81,0,0,1,.5-.44,2.26,2.26,0,0,1,.77-.12,3,3,0,0,1,.88.14.55.55,0,0,1,.46.57c0,.38-.45.64-1.34.76a5,5,0,0,0-.5.07,2,2,0,0,1-.36.05,4.45,4.45,0,0,0-1.92.7,2,2,0,0,0-.76,1.76,2.14,2.14,0,0,0,.83,1.9,3.36,3.36,0,0,0,1.94.57,4.2,4.2,0,0,0,2.4-.55.92.92,0,0,0,.18.3.83.83,0,0,0,.65.28h.91v-6A1.83,1.83,0,0,0,33.72,12.74ZM32.61,17a1.65,1.65,0,0,1-.5,1.29,1.81,1.81,0,0,1-1.34.47,1.15,1.15,0,0,1-.81-.24.91.91,0,0,1-.27-.7,1.16,1.16,0,0,1,.21-.64,1.81,1.81,0,0,1,.8-.38l.71-.15a6,6,0,0,0,1.2-.37Z"/><path class="cls-3" d="M47.71,15.53l2.73-3.36H48l-2.46,3.11v-4a.94.94,0,0,0-.28-.66.9.9,0,0,0-.7-.3h-1v10h2V17.37c0-.15.11-.27.32-.35s.46.14.76.67l1.41,2.62h2.43Z"/><g class="cls-4"><polygon class="cls-5" points="55.61 7.67 51.35 9.65 51.31 9.6 55.59 7.62 55.61 7.67"/><polygon class="cls-5" points="55.6 7.64 51.33 9.62 51.3 9.58 55.58 7.6 55.6 7.64"/><polygon class="cls-6" points="55.59 7.62 51.31 9.6 51.29 9.55 55.56 7.57 55.59 7.62"/><polygon class="cls-7" points="55.58 7.6 51.3 9.58 51.29 9.52 55.56 7.55 55.58 7.6"/><polygon class="cls-7" points="55.57 7.57 51.29 9.55 51.27 9.51 55.55 7.53 55.57 7.57"/><polygon class="cls-7" points="55.56 7.55 51.29 9.52 51.26 9.48 55.53 7.51 55.56 7.55"/><polygon class="cls-7" points="55.55 7.53 51.28 9.51 51.26 9.47 55.52 7.48 55.55 7.53"/><polygon class="cls-7" points="55.53 7.51 51.26 9.48 51.24 9.44 55.51 7.46 55.53 7.51"/><polygon class="cls-8" points="55.52 7.48 51.26 9.47 51.24 9.41 55.5 7.43 55.52 7.48"/><polygon class="cls-9" points="55.51 7.46 51.24 9.44 51.22 9.38 55.5 7.41 55.51 7.46"/><polygon class="cls-9" points="55.51 7.43 51.24 9.41 51.21 9.36 55.48 7.39 55.51 7.43"/><polygon class="cls-10" points="55.5 7.41 51.22 9.38 51.19 9.35 55.47 7.37 55.5 7.41"/><polygon class="cls-10" points="55.48 7.39 51.21 9.36 51.19 9.32 55.46 7.34 55.48 7.39"/><polygon class="cls-11" points="55.47 7.37 51.19 9.35 51.18 9.3 55.45 7.32 55.47 7.37"/><polygon class="cls-12" points="55.46 7.34 51.19 9.32 51.16 9.27 55.44 7.29 55.46 7.34"/><polygon class="cls-12" points="55.45 7.32 51.18 9.3 51.15 9.25 55.43 7.27 55.45 7.32"/><polygon class="cls-13" points="55.44 7.29 51.16 9.27 51.14 9.22 55.42 7.25 55.44 7.29"/><polygon class="cls-13" points="55.43 7.27 51.15 9.25 51.13 9.2 55.4 7.22 55.43 7.27"/><polygon class="cls-13" points="55.42 7.25 51.14 9.22 51.13 9.18 55.39 7.2 55.42 7.25"/><polygon class="cls-14" points="55.4 7.22 51.13 9.2 51.11 9.15 55.38 7.17 55.4 7.22"/><polygon class="cls-15" points="55.4 7.2 51.13 9.18 51.1 9.12 55.37 7.14 55.4 7.2"/><polygon class="cls-15" points="55.38 7.17 51.11 9.15 51.1 9.1 55.36 7.13 55.38 7.17"/><polygon class="cls-15" points="55.37 7.14 51.1 9.12 51.08 9.09 55.35 7.11 55.37 7.14"/><polygon class="cls-15" points="55.36 7.13 51.09 9.1 51.06 9.06 55.33 7.08 55.36 7.13"/><polygon class="cls-16" points="55.35 7.11 51.08 9.09 51.05 9.04 55.33 7.07 55.35 7.11"/><polygon class="cls-17" points="55.33 7.08 51.06 9.06 51.05 9.02 55.32 7.03 55.33 7.08"/><polygon class="cls-17" points="55.33 7.07 51.05 9.04 51.03 8.99 55.3 7.01 55.33 7.07"/><polygon class="cls-18" points="55.32 7.03 51.05 9.02 51.02 8.96 55.29 6.99 55.32 7.03"/><polygon class="cls-18" points="55.31 7.01 51.04 8.99 51.01 8.94 55.29 6.97 55.31 7.01"/><polygon class="cls-19" points="55.3 6.99 51.02 8.97 51.01 8.92 55.27 6.94 55.3 6.99"/><polygon class="cls-19" points="55.29 6.97 51.01 8.94 50.99 8.9 55.27 6.92 55.29 6.97"/><polygon class="cls-20" points="55.27 6.94 51.01 8.93 50.98 8.88 55.25 6.89 55.27 6.94"/><polygon class="cls-20" points="55.27 6.92 50.99 8.9 50.97 8.85 55.24 6.87 55.27 6.92"/><polygon class="cls-21" points="55.25 6.89 50.98 8.88 50.96 8.82 55.23 6.86 55.25 6.89"/><polygon class="cls-21" points="55.24 6.87 50.97 8.85 50.95 8.81 55.22 6.82 55.24 6.87"/><polygon class="cls-22" points="55.23 6.86 50.96 8.82 50.95 8.78 55.2 6.81 55.23 6.86"/><polygon class="cls-22" points="55.22 6.82 50.95 8.81 50.92 8.76 55.2 6.78 55.22 6.82"/><polygon class="cls-22" points="55.21 6.81 50.94 8.78 50.91 8.73 55.18 6.75 55.21 6.81"/><polygon class="cls-23" points="55.2 6.78 50.92 8.76 50.91 8.72 55.17 6.73 55.2 6.78"/><polygon class="cls-23" points="55.18 6.75 50.91 8.73 50.89 8.69 55.17 6.71 55.18 6.75"/><polygon class="cls-24" points="55.17 6.73 50.91 8.72 50.88 8.67 55.16 6.69 55.17 6.73"/><polygon class="cls-24" points="55.17 6.71 50.89 8.69 50.88 8.65 55.13 6.66 55.17 6.71"/><polygon class="cls-25" points="55.16 6.69 50.88 8.67 50.86 8.61 55.13 6.64 55.16 6.69"/><polygon class="cls-25" points="55.13 6.66 50.87 8.65 50.85 8.6 55.11 6.62 55.13 6.66"/><polygon class="cls-26" points="55.13 6.64 50.86 8.61 50.84 8.57 55.1 6.59 55.13 6.64"/><polygon class="cls-26" points="55.11 6.62 50.85 8.6 50.83 8.55 55.09 6.57 55.11 6.62"/><polygon class="cls-26" points="55.11 6.59 50.84 8.57 50.81 8.52 55.09 6.55 55.11 6.59"/><polygon class="cls-27" points="55.09 6.57 50.83 8.55 50.81 8.5 55.07 6.52 55.09 6.57"/><polygon class="cls-27" points="55.09 6.55 50.81 8.52 50.79 8.47 55.07 6.5 55.09 6.55"/><polygon class="cls-28" points="55.07 6.52 50.81 8.5 50.78 8.44 55.05 6.47 55.07 6.52"/><polygon class="cls-28" points="55.07 6.5 50.79 8.47 50.77 8.43 55.04 6.46 55.07 6.5"/><polygon class="cls-28" points="55.06 6.47 50.78 8.44 50.76 8.4 55.03 6.42 55.06 6.47"/><polygon class="cls-29" points="55.04 6.46 50.78 8.43 50.74 8.39 55.02 6.41 55.04 6.46"/><polygon class="cls-29" points="55.03 6.42 50.76 8.4 50.74 8.36 55.01 6.38 55.03 6.42"/><polygon class="cls-30" points="55.02 6.41 50.75 8.39 50.72 8.34 55 6.36 55.02 6.41"/><polygon class="cls-30" points="55.01 6.38 50.74 8.36 50.71 8.32 54.98 6.33 55.01 6.38"/><polygon class="cls-31" points="55 6.36 50.72 8.34 50.71 8.29 54.97 6.31 55 6.36"/><polygon class="cls-31" points="54.98 6.33 50.71 8.31 50.69 8.27 54.97 6.29 54.98 6.33"/><polygon class="cls-31" points="54.97 6.31 50.71 8.29 50.69 8.24 54.95 6.26 54.97 6.31"/><rect class="cls-32" x="50.46" y="7.23" width="4.71" height="0.05" transform="translate(1.85 22.89) rotate(-24.88)"/><polygon class="cls-33" points="54.95 6.26 50.69 8.24 50.66 8.19 54.93 6.21 54.95 6.26"/><polygon class="cls-34" points="54.95 6.25 50.67 8.22 50.65 8.18 54.92 6.2 54.95 6.25"/><polygon class="cls-34" points="54.93 6.21 50.66 8.19 50.65 8.14 54.9 6.18 54.93 6.21"/><polygon class="cls-35" points="54.92 6.2 50.65 8.18 50.63 8.13 54.9 6.15 54.92 6.2"/><polygon class="cls-35" points="54.9 6.18 50.65 8.14 50.62 8.11 54.89 6.13 54.9 6.18"/><polygon class="cls-35" points="54.9 6.15 50.63 8.13 50.61 8.08 54.88 6.1 54.9 6.15"/><polygon class="cls-36" points="54.89 6.13 50.62 8.11 50.59 8.05 54.87 6.08 54.89 6.13"/><polygon class="cls-36" points="54.88 6.1 50.61 8.08 50.58 8.03 54.85 6.05 54.88 6.1"/><polygon class="cls-36" points="54.87 6.08 50.59 8.05 50.58 8.02 54.85 6.03 54.87 6.08"/><polygon class="cls-36" points="54.85 6.05 50.58 8.03 50.55 7.99 54.83 6.01 54.85 6.05"/><polygon class="cls-36" points="54.85 6.03 50.58 8.02 50.55 7.97 54.82 5.98 54.85 6.03"/><polygon class="cls-37" points="54.83 6.01 50.57 7.99 50.55 7.94 54.81 5.96 54.83 6.01"/><polygon class="cls-37" points="54.82 5.98 50.55 7.97 50.53 7.91 54.8 5.93 54.82 5.98"/><polygon class="cls-38" points="54.81 5.96 50.55 7.94 50.52 7.89 54.79 5.92 54.81 5.96"/><polygon class="cls-38" points="54.8 5.93 50.53 7.91 50.51 7.87 54.78 5.89 54.8 5.93"/><polygon class="cls-39" points="54.79 5.92 50.52 7.89 50.49 7.86 54.77 5.87 54.79 5.92"/><polygon class="cls-39" points="54.78 5.89 50.51 7.87 50.48 7.82 54.76 5.84 54.78 5.89"/><polygon class="cls-39" points="54.77 5.87 50.49 7.86 50.48 7.8 54.74 5.82 54.77 5.87"/><polygon class="cls-40" points="54.76 5.84 50.48 7.82 50.46 7.77 54.73 5.8 54.76 5.84"/><polygon class="cls-40" points="54.74 5.82 50.48 7.8 50.46 7.75 54.72 5.77 54.74 5.82"/><polygon class="cls-41" points="54.73 5.8 50.46 7.77 50.44 7.72 54.72 5.75 54.73 5.8"/><polygon class="cls-41" points="54.72 5.77 50.46 7.75 50.43 7.71 54.7 5.73 54.72 5.77"/><polygon class="cls-41" points="54.72 5.75 50.44 7.72 50.42 7.68 54.7 5.71 54.72 5.75"/><polygon class="cls-42" points="54.7 5.73 50.43 7.71 50.41 7.66 54.68 5.68 54.7 5.73"/><polygon class="cls-43" points="54.7 5.71 50.42 7.68 50.4 7.64 54.67 5.65 54.7 5.71"/><polygon class="cls-43" points="54.68 5.68 50.41 7.66 50.38 7.61 54.66 5.63 54.68 5.68"/><polygon class="cls-43" points="54.67 5.65 50.4 7.64 50.38 7.59 54.66 5.6 54.67 5.65"/><polygon class="cls-44" points="54.66 5.63 50.38 7.61 50.37 7.56 54.63 5.59 54.66 5.63"/><polygon class="cls-44" points="54.66 5.6 50.38 7.59 50.35 7.54 54.63 5.56 54.66 5.6"/><polygon class="cls-45" points="54.63 5.59 50.37 7.56 50.34 7.52 54.63 5.54 54.63 5.59"/><polygon class="cls-45" points="54.63 5.56 50.35 7.54 50.33 7.5 54.61 5.52 54.63 5.56"/><polygon class="cls-45" points="54.63 5.54 50.34 7.52 50.33 7.48 54.59 5.5 54.63 5.54"/><polygon class="cls-46" points="54.61 5.52 50.33 7.5 50.32 7.46 54.59 5.47 54.61 5.52"/><polygon class="cls-46" points="54.59 5.5 50.32 7.48 50.29 7.42 54.57 5.44 54.59 5.5"/><polygon class="cls-46" points="54.59 5.47 50.32 7.46 50.29 7.41 54.56 5.42 54.59 5.47"/><polygon class="cls-47" points="54.57 5.44 50.29 7.42 50.28 7.38 54.55 5.4 54.57 5.44"/><polygon class="cls-48" points="54.56 5.42 50.29 7.41 50.27 7.36 54.55 5.37 54.56 5.42"/><polygon class="cls-48" points="54.55 5.4 50.28 7.38 50.25 7.33 54.52 5.36 54.55 5.4"/><polygon class="cls-48" points="54.55 5.37 50.27 7.36 50.25 7.32 54.52 5.33 54.55 5.37"/><polygon class="cls-49" points="54.52 5.36 50.25 7.33 50.23 7.29 54.51 5.3 54.52 5.36"/><polygon class="cls-49" points="54.52 5.33 50.25 7.31 50.22 7.26 54.5 5.28 54.52 5.33"/><polygon class="cls-50" points="54.51 5.3 50.23 7.29 50.22 7.24 54.49 5.26 54.51 5.3"/><polygon class="cls-50" points="54.5 5.28 50.22 7.26 50.2 7.21 54.47 5.23 54.5 5.28"/><polygon class="cls-50" points="54.49 5.26 50.22 7.24 50.19 7.2 54.46 5.21 54.49 5.26"/><polygon class="cls-50" points="54.47 5.24 50.2 7.21 50.18 7.16 54.45 5.19 54.47 5.24"/><polygon class="cls-50" points="54.46 5.21 50.19 7.2 50.17 7.14 54.45 5.16 54.46 5.21"/><polygon class="cls-51" points="54.45 5.19 50.18 7.16 50.15 7.12 54.42 5.14 54.45 5.19"/><polygon class="cls-51" points="54.45 5.16 50.17 7.14 50.15 7.1 54.41 5.12 54.45 5.16"/><polygon class="cls-51" points="54.42 5.14 50.16 7.12 50.13 7.08 54.41 5.09 54.42 5.14"/><polygon class="cls-51" points="54.41 5.12 50.15 7.1 50.12 7.05 54.4 5.07 54.41 5.12"/><polygon class="cls-51" points="54.41 5.09 50.13 7.08 50.11 7.03 54.38 5.05 54.41 5.09"/><polygon class="cls-51" points="54.4 5.07 50.12 7.05 50.1 7 54.37 5.03 54.4 5.07"/><polygon class="cls-51" points="54.38 5.05 50.11 7.03 50.09 6.98 54.36 5 54.38 5.05"/><polygon class="cls-51" points="54.37 5.03 50.1 7 50.09 6.96 54.35 4.98 54.37 5.03"/><polygon class="cls-51" points="54.37 5 50.09 6.98 50.07 6.93 54.34 4.95 54.37 5"/><polygon class="cls-51" points="54.35 4.98 50.09 6.96 50.05 6.91 54.33 4.93 54.35 4.98"/><polygon class="cls-51" points="54.34 4.95 50.07 6.93 50.05 6.88 54.32 4.89 54.34 4.95"/><polygon class="cls-51" points="54.33 4.93 50.05 6.91 50.04 6.86 54.3 4.89 54.33 4.93"/><polygon class="cls-51" points="54.32 4.89 50.05 6.88 50.03 6.84 54.29 4.86 54.32 4.89"/><polygon class="cls-51" points="54.3 4.89 50.04 6.86 50.01 6.82 54.29 4.84 54.3 4.89"/><polygon class="cls-51" points="54.3 4.86 50.02 6.84 49.99 6.8 54.28 4.82 54.3 4.86"/><polygon class="cls-51" points="54.29 4.84 50.01 6.82 49.99 6.77 54.26 4.79 54.29 4.84"/><polygon class="cls-51" points="54.28 4.82 49.99 6.8 49.98 6.75 54.26 4.76 54.28 4.82"/><polygon class="cls-51" points="54.26 4.79 49.99 6.77 49.97 6.72 54.24 4.74 54.26 4.79"/><polygon class="cls-51" points="54.26 4.76 49.98 6.75 49.97 6.71 54.24 4.73 54.26 4.76"/><polygon class="cls-51" points="54.24 4.74 49.97 6.72 49.95 6.68 54.22 4.7 54.24 4.74"/><polygon class="cls-51" points="54.24 4.73 49.97 6.71 49.93 6.66 54.21 4.68 54.24 4.73"/><polygon class="cls-51" points="54.22 4.7 49.95 6.68 49.93 6.64 54.19 4.65 54.22 4.7"/><polygon class="cls-51" points="54.21 4.68 49.93 6.66 49.92 6.61 54.19 4.62 54.21 4.68"/><polygon class="cls-51" points="54.19 4.65 49.93 6.64 49.9 6.58 54.18 4.6 54.19 4.65"/><polygon class="cls-51" points="54.19 4.62 49.92 6.61 49.89 6.56 54.17 4.58 54.19 4.62"/><polygon class="cls-51" points="54.18 4.6 49.9 6.58 49.88 6.54 54.16 4.55 54.18 4.6"/><polygon class="cls-51" points="54.17 4.58 49.89 6.55 49.88 6.51 54.14 4.53 54.17 4.58"/><polygon class="cls-51" points="54.16 4.55 49.88 6.54 49.85 6.5 54.13 4.51 54.16 4.55"/><polygon class="cls-51" points="54.14 4.53 49.88 6.51 49.84 6.46 54.12 4.49 54.14 4.53"/><polygon class="cls-51" points="54.13 4.51 49.85 6.5 49.83 6.45 54.12 4.46 54.13 4.51"/><polygon class="cls-51" points="54.12 4.49 49.84 6.46 49.83 6.42 54.09 4.44 54.12 4.49"/><polygon class="cls-51" points="54.12 4.46 49.83 6.45 49.81 6.4 54.09 4.42 54.12 4.46"/><polygon class="cls-51" points="54.09 4.44 49.83 6.42 49.81 6.38 54.07 4.39 54.09 4.44"/><polygon class="cls-51" points="54.09 4.42 49.82 6.4 49.79 6.35 54.06 4.37 54.09 4.42"/><polygon class="cls-51" points="54.07 4.39 49.81 6.38 49.78 6.33 54.06 4.34 54.07 4.39"/><polygon class="cls-51" points="54.06 4.37 49.79 6.35 49.77 6.3 54.04 4.32 54.06 4.37"/><polygon class="cls-51" points="54.06 4.34 49.78 6.33 49.76 6.29 54.03 4.3 54.06 4.34"/><polygon class="cls-51" points="54.04 4.32 49.77 6.3 49.75 6.25 54.02 4.28 54.04 4.32"/><polygon class="cls-51" points="54.03 4.3 49.76 6.29 49.74 6.23 54.01 4.25 54.03 4.3"/><polygon class="cls-51" points="54.02 4.28 49.75 6.25 49.73 6.21 53.99 4.23 54.02 4.28"/><polygon class="cls-51" points="54.01 4.25 49.74 6.23 49.72 6.18 53.99 4.21 54.01 4.25"/><polygon class="cls-51" points="54 4.23 49.73 6.21 49.7 6.17 53.98 4.19 54 4.23"/><polygon class="cls-51" points="53.99 4.21 49.72 6.18 49.69 6.14 53.97 4.16 53.99 4.21"/><polygon class="cls-51" points="53.98 4.19 49.7 6.17 49.69 6.12 53.96 4.13 53.98 4.19"/><polygon class="cls-51" points="53.97 4.16 49.69 6.14 49.67 6.1 53.95 4.12 53.97 4.16"/><polygon class="cls-51" points="53.96 4.13 49.69 6.12 49.66 6.07 53.93 4.09 53.96 4.13"/><polygon class="cls-51" points="53.95 4.12 49.67 6.1 49.65 6.05 53.93 4.07 53.95 4.12"/><polygon class="cls-51" points="53.94 4.09 49.66 6.07 49.64 6.03 53.91 4.04 53.94 4.09"/><polygon class="cls-51" points="53.93 4.07 49.65 6.05 49.62 6 53.9 4.03 53.93 4.07"/><polygon class="cls-51" points="53.91 4.04 49.64 6.03 49.63 5.97 53.89 3.99 53.91 4.04"/><polygon class="cls-51" points="53.9 4.03 49.62 6 49.61 5.95 53.88 3.97 53.9 4.03"/><polygon class="cls-51" points="53.89 3.99 49.62 5.97 49.6 5.93 53.86 3.96 53.89 3.99"/><polygon class="cls-51" points="53.88 3.97 49.61 5.95 49.58 5.9 53.86 3.93 53.88 3.97"/><polygon class="cls-51" points="53.87 3.96 49.59 5.93 49.56 5.89 53.85 3.91 53.87 3.96"/><polygon class="cls-51" points="53.86 3.93 49.58 5.9 49.56 5.85 53.84 3.87 53.86 3.93"/><polygon class="cls-51" points="53.85 3.91 49.56 5.89 49.55 5.84 53.82 3.85 53.85 3.91"/><polygon class="cls-51" points="53.84 3.87 49.56 5.85 49.54 5.81 53.81 3.83 53.84 3.87"/><polygon class="cls-51" points="53.82 3.85 49.55 5.84 49.54 5.79 53.8 3.81 53.82 3.85"/><polygon class="cls-51" points="53.81 3.83 49.55 5.81 49.52 5.76 53.8 3.79 53.81 3.83"/><polygon class="cls-51" points="53.8 3.81 49.54 5.79 49.51 5.74 53.78 3.76 53.8 3.81"/><polygon class="cls-51" points="53.8 3.79 49.52 5.76 49.5 5.72 53.77 3.73 53.8 3.79"/><polygon class="cls-51" points="53.78 3.76 49.51 5.74 49.49 5.7 53.76 3.72 53.78 3.76"/><polygon class="cls-51" points="53.77 3.73 49.5 5.71 49.48 5.67 53.75 3.69 53.77 3.73"/><polygon class="cls-51" points="53.76 3.72 49.49 5.7 49.47 5.65 53.73 3.67 53.76 3.72"/><polygon class="cls-51" points="53.75 3.69 49.48 5.67 49.46 5.62 53.73 3.64 53.75 3.69"/><polygon class="cls-51" points="53.73 3.67 49.47 5.65 49.44 5.6 53.72 3.63 53.73 3.67"/><polygon class="cls-51" points="53.73 3.64 49.46 5.62 49.44 5.57 53.7 3.59 53.73 3.64"/><polygon class="cls-51" points="53.72 3.63 49.44 5.6 49.42 5.56 53.69 3.58 53.72 3.63"/><polygon class="cls-51" points="53.7 3.59 49.44 5.57 49.41 5.54 53.68 3.55 53.7 3.59"/><polygon class="cls-51" points="53.69 3.58 49.42 5.56 49.4 5.51 53.67 3.52 53.69 3.58"/><polygon class="cls-51" points="53.68 3.55 49.41 5.53 49.4 5.49 53.66 3.51 53.68 3.55"/><polygon class="cls-51" points="53.67 3.52 49.4 5.51 49.37 5.46 53.65 3.49 53.67 3.52"/><polygon class="cls-51" points="53.66 3.51 49.4 5.49 49.37 5.44 53.63 3.47 53.66 3.51"/><polygon class="cls-51" points="53.65 3.49 49.37 5.46 49.36 5.42 53.63 3.43 53.65 3.49"/><polygon class="cls-51" points="53.63 3.47 49.37 5.44 49.34 5.39 53.62 3.41 53.63 3.47"/><polygon class="cls-51" points="53.63 3.43 49.36 5.42 49.33 5.37 53.6 3.4 53.63 3.43"/><polygon class="cls-51" points="53.62 3.41 49.34 5.39 49.32 5.34 53.6 3.37 53.62 3.41"/><polygon class="cls-51" points="53.6 3.4 49.33 5.37 49.31 5.32 53.58 3.34 53.6 3.4"/><polygon class="cls-51" points="53.6 3.37 49.32 5.34 49.3 5.3 53.57 3.33 53.6 3.37"/><polygon class="cls-51" points="53.58 3.34 49.31 5.32 49.29 5.27 53.56 3.29 53.58 3.34"/><polygon class="cls-51" points="53.57 3.33 49.3 5.3 49.27 5.26 53.55 3.27 53.57 3.33"/><polygon class="cls-51" points="53.56 3.29 49.29 5.27 49.27 5.23 53.53 3.25 53.56 3.29"/><polygon class="cls-51" points="53.55 3.27 49.27 5.26 49.26 5.2 53.53 3.22 53.55 3.27"/><polygon class="cls-51" points="53.53 3.25 49.27 5.23 49.25 5.18 53.52 3.2 53.53 3.25"/><polygon class="cls-51" points="53.53 3.22 49.26 5.2 49.24 5.16 53.5 3.18 53.53 3.22"/><rect class="cls-52" x="49.02" y="4.14" width="4.71" height="0.06" transform="translate(3 21.95) rotate(-24.82)"/><polygon class="cls-51" points="53.5 3.18 49.24 5.15 49.21 5.11 53.48 3.13 53.5 3.18"/><polygon class="cls-51" points="53.5 3.15 49.23 5.13 49.2 5.09 53.47 3.1 53.5 3.15"/><polygon class="cls-51" points="53.48 3.13 49.21 5.11 49.19 5.06 53.47 3.08 53.48 3.13"/><polygon class="cls-51" points="53.47 3.1 49.2 5.09 49.18 5.03 53.45 3.05 53.47 3.1"/><polygon class="cls-51" points="53.47 3.08 49.19 5.06 49.17 5.02 53.43 3.04 53.47 3.08"/></g><g class="cls-53"><polygon class="cls-10" points="51.98 14.73 53.78 4.55 53.9 4.58 52.1 14.76 51.98 14.73"/><polygon class="cls-11" points="52.04 14.75 53.85 4.57 53.96 4.6 52.15 14.77 52.04 14.75"/><polygon class="cls-11" points="52.1 14.76 53.9 4.58 54.01 4.61 52.2 14.79 52.1 14.76"/><polygon class="cls-12" points="52.15 14.77 53.96 4.6 54.07 4.61 52.27 14.79 52.15 14.77"/><polygon class="cls-12" points="52.2 14.79 54.01 4.6 54.12 4.62 52.33 14.8 52.2 14.79"/><polygon class="cls-12" points="52.27 14.79 54.07 4.61 54.19 4.62 52.37 14.8 52.27 14.79"/><polygon class="cls-54" points="52.33 14.8 54.12 4.62 54.24 4.65 52.43 14.82 52.33 14.8"/><polygon class="cls-54" points="52.37 14.8 54.19 4.63 54.3 4.65 52.49 14.82 52.37 14.8"/><polygon class="cls-54" points="52.44 14.82 54.24 4.65 54.35 4.66 52.54 14.84 52.44 14.82"/><polygon class="cls-54" points="52.49 14.82 54.3 4.65 54.41 4.66 52.6 14.84 52.49 14.82"/><polygon class="cls-55" points="52.55 14.84 54.35 4.66 54.47 4.68 52.66 14.86 52.55 14.84"/><polygon class="cls-55" points="52.6 14.84 54.41 4.66 54.52 4.69 52.72 14.87 52.6 14.84"/><polygon class="cls-55" points="52.66 14.86 54.47 4.68 54.59 4.7 52.77 14.88 52.66 14.86"/><polygon class="cls-56" points="52.72 14.87 54.52 4.69 54.63 4.71 52.83 14.88 52.72 14.87"/><polygon class="cls-56" points="52.77 14.88 54.59 4.71 54.7 4.73 52.89 14.9 52.77 14.88"/><polygon class="cls-17" points="52.83 14.88 54.63 4.71 54.75 4.73 52.95 14.9 52.83 14.88"/><polygon class="cls-17" points="52.89 14.9 54.7 4.73 54.81 4.74 53 14.91 52.89 14.9"/><polygon class="cls-57" points="52.95 14.9 54.74 4.73 54.86 4.75 53.06 14.92 52.95 14.9"/><polygon class="cls-57" points="53 14.91 54.8 4.74 54.93 4.76 53.11 14.94 53 14.91"/><polygon class="cls-58" points="53.06 14.92 54.86 4.75 54.98 4.77 53.18 14.94 53.06 14.92"/><polygon class="cls-58" points="53.11 14.94 54.93 4.76 55.03 4.78 53.23 14.96 53.11 14.94"/><polygon class="cls-58" points="53.18 14.94 54.98 4.76 55.09 4.79 53.28 14.96 53.18 14.94"/><polygon class="cls-59" points="53.23 14.96 55.03 4.78 55.14 4.79 53.34 14.98 53.23 14.96"/><polygon class="cls-59" points="53.28 14.96 55.09 4.79 55.21 4.8 53.39 14.98 53.28 14.96"/><polygon class="cls-60" points="53.34 14.98 55.14 4.79 55.27 4.82 53.45 15 53.34 14.98"/><polygon class="cls-60" points="53.4 14.98 55.21 4.8 55.32 4.82 53.51 15 53.4 14.98"/><polygon class="cls-61" points="53.45 15 55.27 4.82 55.38 4.84 53.57 15.02 53.45 15"/><polygon class="cls-61" points="53.51 15 55.32 4.82 55.44 4.85 53.63 15.03 53.51 15"/><polygon class="cls-61" points="53.57 15.02 55.37 4.84 55.49 4.86 53.67 15.03 53.57 15.02"/><polygon class="cls-62" points="53.63 15.03 55.44 4.85 55.55 4.88 53.75 15.05 53.63 15.03"/><polygon class="cls-62" points="53.68 15.03 55.49 4.86 55.6 4.88 53.8 15.06 53.68 15.03"/><polygon class="cls-63" points="53.75 15.05 55.55 4.88 55.66 4.89 53.85 15.08 53.75 15.05"/><polygon class="cls-63" points="53.8 15.06 55.6 4.88 55.72 4.89 53.91 15.08 53.8 15.06"/><polygon class="cls-64" points="53.86 15.08 55.66 4.89 55.77 4.9 53.97 15.09 53.86 15.08"/><polygon class="cls-64" points="53.91 15.08 55.72 4.89 55.83 4.91 54.02 15.09 53.91 15.08"/><polygon class="cls-64" points="53.97 15.09 55.77 4.9 55.88 4.93 54.08 15.11 53.97 15.09"/><polygon class="cls-65" points="54.02 15.09 55.83 4.91 55.94 4.94 54.14 15.12 54.02 15.09"/><polygon class="cls-65" points="54.08 15.11 55.88 4.93 56 4.95 54.19 15.13 54.08 15.11"/><polygon class="cls-66" points="54.14 15.12 55.94 4.94 56.05 4.96 54.25 15.13 54.14 15.12"/><polygon class="cls-66" points="54.19 15.13 56 4.95 56.11 4.97 54.3 15.14 54.19 15.13"/><polygon class="cls-66" points="54.25 15.13 56.05 4.96 56.17 4.98 54.37 15.15 54.25 15.13"/><polygon class="cls-67" points="54.3 15.14 56.11 4.97 56.23 4.99 54.41 15.17 54.3 15.14"/><polygon class="cls-68" points="54.37 15.15 56.17 4.98 56.28 4.99 54.48 15.18 54.37 15.15"/><polygon class="cls-68" points="54.41 15.17 56.23 4.99 56.34 5.01 54.53 15.18 54.41 15.17"/><polygon class="cls-68" points="54.48 15.18 56.28 4.99 56.4 5.02 54.59 15.19 54.48 15.18"/><polygon class="cls-69" points="54.54 15.18 56.34 5.01 56.45 5.03 54.66 15.21 54.54 15.18"/><polygon class="cls-69" points="54.59 15.19 56.4 5.02 56.51 5.04 54.7 15.21 54.59 15.19"/><polygon class="cls-69" points="54.66 15.21 56.45 5.03 56.57 5.05 54.76 15.24 54.66 15.21"/><polygon class="cls-70" points="54.7 15.21 56.51 5.03 56.62 5.06 54.82 15.24 54.7 15.21"/><polygon class="cls-71" points="54.77 15.24 56.57 5.05 56.68 5.07 54.88 15.25 54.77 15.24"/><polygon class="cls-71" points="54.81 15.24 56.62 5.06 56.75 5.07 54.93 15.25 54.81 15.24"/><polygon class="cls-71" points="54.88 15.25 56.68 5.07 56.8 5.09 54.98 15.27 54.88 15.25"/><polygon class="cls-71" points="54.93 15.25 56.75 5.07 56.84 5.09 55.05 15.28 54.93 15.25"/><polygon class="cls-71" points="54.98 15.27 56.8 5.09 56.91 5.11 55.11 15.29 54.98 15.27"/><polygon class="cls-72" points="55.05 15.28 56.85 5.09 56.96 5.12 55.16 15.29 55.05 15.28"/><polygon class="cls-72" points="55.11 15.29 56.91 5.11 57.03 5.13 55.22 15.3 55.11 15.29"/><polygon class="cls-72" points="55.16 15.29 56.96 5.12 57.08 5.14 55.27 15.32 55.16 15.29"/><polygon class="cls-73" points="55.22 15.3 57.03 5.13 57.13 5.14 55.33 15.33 55.22 15.3"/><polygon class="cls-74" points="55.27 15.32 57.08 5.14 57.19 5.16 55.39 15.34 55.27 15.32"/><polygon class="cls-75" points="55.33 15.33 57.13 5.14 57.24 5.17 55.44 15.35 55.33 15.33"/><polygon class="cls-75" points="55.39 15.34 57.19 5.16 57.31 5.18 55.51 15.36 55.39 15.34"/><polygon class="cls-76" points="55.44 15.35 57.24 5.17 57.36 5.19 55.55 15.37 55.44 15.35"/><polygon class="cls-76" points="55.51 15.36 57.31 5.18 57.43 5.2 55.61 15.38 55.51 15.36"/><polygon class="cls-76" points="55.55 15.37 57.36 5.19 57.48 5.2 55.67 15.38 55.55 15.37"/><polygon class="cls-77" points="55.61 15.38 57.41 5.2 57.53 5.22 55.72 15.4 55.61 15.38"/><polygon class="cls-77" points="55.67 15.38 57.48 5.2 57.6 5.23 55.79 15.4 55.67 15.38"/><polygon class="cls-77" points="55.72 15.4 57.53 5.22 57.65 5.25 55.84 15.41 55.72 15.4"/><polygon class="cls-77" points="55.79 15.4 57.59 5.23 57.7 5.25 55.9 15.42 55.79 15.4"/><polygon class="cls-78" points="55.84 15.41 57.65 5.25 57.76 5.26 55.95 15.44 55.84 15.41"/><polygon class="cls-78" points="55.9 15.42 57.7 5.25 57.81 5.27 56.01 15.44 55.9 15.42"/><polygon class="cls-78" points="55.95 15.44 57.76 5.26 57.88 5.28 56.06 15.46 55.95 15.44"/><polygon class="cls-79" points="56.01 15.44 57.81 5.27 57.94 5.28 56.13 15.47 56.01 15.44"/><polygon class="cls-79" points="56.06 15.46 57.88 5.28 57.98 5.3 56.18 15.48 56.06 15.46"/><polygon class="cls-80" points="56.13 15.47 57.94 5.28 58.05 5.3 56.24 15.48 56.13 15.47"/><polygon class="cls-80" points="56.18 15.48 57.98 5.3 58.1 5.32 56.29 15.5 56.18 15.48"/><polygon class="cls-41" points="56.24 15.48 58.05 5.3 58.17 5.33 56.36 15.51 56.24 15.48"/><polygon class="cls-41" points="56.29 15.5 58.1 5.32 58.21 5.33 56.41 15.52 56.29 15.5"/><polygon class="cls-42" points="56.36 15.51 58.17 5.33 58.27 5.34 56.46 15.52 56.36 15.51"/><polygon class="cls-42" points="56.41 15.52 58.21 5.33 58.34 5.37 56.52 15.53 56.41 15.52"/><polygon class="cls-42" points="56.46 15.52 58.27 5.34 58.38 5.37 56.57 15.54 56.46 15.52"/><polygon class="cls-43" points="56.52 15.53 58.34 5.36 58.44 5.37 56.64 15.55 56.52 15.53"/><polygon class="cls-43" points="56.58 15.54 58.38 5.37 58.49 5.38 56.69 15.57 56.58 15.54"/><polygon class="cls-43" points="56.64 15.55 58.44 5.37 58.56 5.4 56.75 15.57 56.64 15.55"/><polygon class="cls-44" points="56.69 15.57 58.49 5.38 58.62 5.42 56.8 15.58 56.69 15.57"/><rect class="cls-81" x="52.54" y="10.44" width="10.33" height="0.11" transform="translate(37.26 65.47) rotate(-79.91)"/><polygon class="cls-45" points="56.8 15.58 58.62 5.42 58.73 5.42 56.91 15.61 56.8 15.58"/><polygon class="cls-45" points="56.85 15.59 58.66 5.42 58.78 5.44 56.97 15.61 56.85 15.59"/><polygon class="cls-46" points="56.91 15.61 58.73 5.42 58.83 5.46 57.04 15.63 56.91 15.61"/><polygon class="cls-46" points="56.97 15.61 58.78 5.44 58.9 5.46 57.09 15.64 56.97 15.61"/><polygon class="cls-47" points="57.04 15.63 58.85 5.46 58.95 5.47 57.15 15.65 57.04 15.63"/><polygon class="cls-47" points="57.09 15.64 58.89 5.46 59.01 5.48 57.2 15.66 57.09 15.64"/><polygon class="cls-47" points="57.15 15.65 58.95 5.47 59.07 5.5 57.27 15.67 57.15 15.65"/><polygon class="cls-48" points="57.2 15.66 59.01 5.48 59.13 5.5 57.32 15.67 57.2 15.66"/><polygon class="cls-48" points="57.27 15.67 59.07 5.5 59.18 5.51 57.38 15.69 57.27 15.67"/><polygon class="cls-49" points="57.32 15.67 59.13 5.5 59.23 5.52 57.43 15.69 57.32 15.67"/><polygon class="cls-49" points="57.38 15.69 59.18 5.51 59.29 5.54 57.49 15.7 57.38 15.69"/><polygon class="cls-50" points="57.43 15.69 59.23 5.52 59.35 5.54 57.55 15.71 57.43 15.69"/><polygon class="cls-50" points="57.49 15.7 59.29 5.53 59.41 5.55 57.6 15.72 57.49 15.7"/><polygon class="cls-50" points="57.55 15.71 59.35 5.54 59.46 5.56 57.66 15.73 57.55 15.71"/><polygon class="cls-50" points="57.6 15.72 59.41 5.55 59.52 5.56 57.72 15.74 57.6 15.72"/><polygon class="cls-51" points="57.66 15.73 59.46 5.56 59.58 5.57 57.76 15.75 57.66 15.73"/><polygon class="cls-51" points="57.72 15.74 59.52 5.56 59.63 5.59 57.83 15.76 57.72 15.74"/><polygon class="cls-51" points="57.76 15.75 59.58 5.57 59.69 5.59 57.88 15.76 57.76 15.75"/><polygon class="cls-51" points="57.83 15.76 59.63 5.59 59.74 5.6 57.95 15.78 57.83 15.76"/><polygon class="cls-51" points="57.88 15.76 59.69 5.59 59.81 5.62 58 15.79 57.88 15.76"/><polygon class="cls-51" points="57.95 15.78 59.74 5.6 59.86 5.62 58.05 15.8 57.95 15.78"/><polygon class="cls-51" points="58 15.79 59.81 5.62 59.92 5.63 58.11 15.81 58 15.79"/><polygon class="cls-51" points="58.05 15.8 59.86 5.62 59.97 5.65 58.17 15.81 58.05 15.8"/><polygon class="cls-51" points="58.12 15.81 59.92 5.63 60.03 5.65 58.23 15.84 58.12 15.81"/><polygon class="cls-51" points="58.17 15.81 59.97 5.65 60.1 5.66 58.28 15.85 58.17 15.81"/><polygon class="cls-51" points="58.23 15.84 60.03 5.65 60.14 5.67 58.34 15.86 58.23 15.84"/><polygon class="cls-51" points="58.28 15.85 60.09 5.66 60.21 5.69 58.4 15.86 58.28 15.85"/><polygon class="cls-51" points="58.34 15.86 60.14 5.67 60.25 5.7 58.45 15.87 58.34 15.86"/><polygon class="cls-51" points="58.4 15.86 60.21 5.69 60.31 5.71 58.51 15.88 58.4 15.86"/><polygon class="cls-51" points="58.45 15.87 60.25 5.7 60.38 5.72 58.56 15.9 58.45 15.87"/><polygon class="cls-51" points="58.51 15.88 60.31 5.71 60.43 5.73 58.62 15.9 58.51 15.88"/><polygon class="cls-51" points="58.57 15.9 60.38 5.72 60.49 5.74 58.68 15.92 58.57 15.9"/><rect class="cls-52" x="54.42" y="10.76" width="10.33" height="0.12" transform="translate(38.52 67.6) rotate(-79.94)"/><polygon class="cls-51" points="58.68 15.92 60.49 5.74 60.59 5.76 58.78 15.93 58.68 15.92"/><polygon class="cls-51" points="58.74 15.92 60.54 5.75 60.66 5.76 58.85 15.93 58.74 15.92"/><polygon class="cls-51" points="58.79 15.93 60.59 5.76 60.71 5.79 58.9 15.96 58.79 15.93"/><polygon class="cls-51" points="58.85 15.93 60.66 5.76 60.77 5.79 58.96 15.96 58.85 15.93"/><polygon class="cls-51" points="58.9 15.96 60.71 5.78 60.83 5.8 59.03 15.97 58.9 15.96"/><polygon class="cls-51" points="58.96 15.96 60.77 5.79 60.88 5.8 59.07 15.98 58.96 15.96"/><polygon class="cls-51" points="59.03 15.97 60.83 5.8 60.94 5.82 59.13 15.99 59.03 15.97"/><polygon class="cls-51" points="59.08 15.98 60.88 5.8 60.99 5.82 59.19 16 59.08 15.98"/><polygon class="cls-51" points="59.13 15.99 60.94 5.82 61.05 5.84 59.25 16.01 59.13 15.99"/><polygon class="cls-51" points="59.19 16 60.99 5.82 61.12 5.84 59.3 16.03 59.19 16"/><polygon class="cls-51" points="59.25 16.01 61.05 5.84 61.16 5.85 59.36 16.04 59.25 16.01"/><polygon class="cls-51" points="59.3 16.03 61.12 5.84 61.23 5.87 59.42 16.04 59.3 16.03"/><polygon class="cls-51" points="59.35 16.04 61.16 5.85 61.27 5.89 59.48 16.05 59.35 16.04"/><polygon class="cls-51" points="59.42 16.04 61.23 5.87 61.34 5.89 59.53 16.05 59.42 16.04"/><polygon class="cls-51" points="59.48 16.05 61.27 5.89 61.39 5.89 59.59 16.07 59.48 16.05"/><polygon class="cls-51" points="59.53 16.05 61.33 5.89 61.45 5.9 59.64 16.08 59.53 16.05"/><rect class="cls-52" x="55.38" y="10.93" width="10.34" height="0.12" transform="translate(39.16 68.69) rotate(-79.95)"/><polygon class="cls-51" points="59.64 16.08 61.45 5.9 61.57 5.92 59.76 16.09 59.64 16.08"/><polygon class="cls-51" points="59.7 16.09 61.51 5.92 61.63 5.93 59.82 16.11 59.7 16.09"/><polygon class="cls-51" points="59.76 16.09 61.57 5.92 61.68 5.94 59.87 16.13 59.76 16.09"/><polygon class="cls-51" points="59.82 16.11 61.62 5.93 61.73 5.95 59.93 16.13 59.82 16.11"/><polygon class="cls-51" points="59.87 16.13 61.67 5.94 61.8 5.97 59.98 16.14 59.87 16.13"/><rect class="cls-52" x="55.72" y="10.99" width="10.33" height="0.11" transform="translate(39.38 69.07) rotate(-79.95)"/><polygon class="cls-51" points="59.98 16.14 61.8 5.97 61.9 5.99 60.1 16.17 59.98 16.14"/><polygon class="cls-51" points="60.04 16.15 61.85 5.97 61.96 5.99 60.15 16.17 60.04 16.15"/><polygon class="cls-51" points="60.11 16.17 61.9 5.98 62.02 6.01 60.21 16.19 60.11 16.17"/><polygon class="cls-51" points="60.15 16.17 61.96 5.99 62.08 6.01 60.27 16.19 60.15 16.17"/><polygon class="cls-51" points="60.21 16.19 62.02 6.01 62.13 6.03 60.33 16.2 60.21 16.19"/><polygon class="cls-51" points="60.27 16.19 62.08 6.01 62.19 6.03 60.38 16.21 60.27 16.19"/><polygon class="cls-51" points="60.33 16.2 62.13 6.03 62.24 6.05 60.44 16.22 60.33 16.2"/><polygon class="cls-51" points="60.38 16.21 62.19 6.03 62.3 6.05 60.5 16.24 60.38 16.21"/><polygon class="cls-51" points="60.44 16.22 62.24 6.05 62.36 6.07 60.55 16.24 60.44 16.22"/><polygon class="cls-51" points="60.5 16.24 62.3 6.05 62.42 6.07 60.61 16.25 60.5 16.24"/><polygon class="cls-51" points="60.55 16.24 62.36 6.07 62.48 6.08 60.66 16.26 60.55 16.24"/><polygon class="cls-51" points="60.61 16.25 62.42 6.07 62.53 6.1 60.73 16.27 60.61 16.25"/><polygon class="cls-51" points="60.66 16.26 62.48 6.08 62.58 6.11 60.78 16.27 60.66 16.26"/><polygon class="cls-51" points="60.73 16.27 62.53 6.1 62.65 6.12 60.83 16.28 60.73 16.27"/><polygon class="cls-51" points="60.78 16.27 62.58 6.11 62.7 6.13 60.89 16.3 60.78 16.27"/><polygon class="cls-51" points="60.83 16.28 62.65 6.12 62.76 6.13 60.95 16.31 60.83 16.28"/><polygon class="cls-51" points="60.89 16.3 62.7 6.13 62.81 6.14 61.01 16.32 60.89 16.3"/><polygon class="cls-51" points="60.95 16.31 62.76 6.13 62.87 6.15 61.07 16.32 60.95 16.31"/><polygon class="cls-51" points="61.01 16.32 62.81 6.15 62.93 6.17 61.12 16.34 61.01 16.32"/><polygon class="cls-51" points="61.07 16.32 62.87 6.15 62.99 6.18 61.18 16.35 61.07 16.32"/><polygon class="cls-51" points="61.12 16.34 62.93 6.17 63.04 6.19 61.23 16.36 61.12 16.34"/><polygon class="cls-51" points="61.18 16.35 62.99 6.18 63.09 6.19 61.29 16.37 61.18 16.35"/><polygon class="cls-51" points="61.23 16.36 63.04 6.18 63.15 6.21 61.36 16.37 61.23 16.36"/><polygon class="cls-51" points="61.29 16.37 63.09 6.19 63.21 6.21 61.41 16.4 61.29 16.37"/><polygon class="cls-51" points="61.36 16.37 63.15 6.21 63.27 6.21 61.46 16.4 61.36 16.37"/><polygon class="cls-51" points="61.4 16.39 63.21 6.21 63.33 6.23 61.52 16.41 61.4 16.39"/><polygon class="cls-51" points="61.46 16.4 63.27 6.21 63.38 6.25 61.57 16.42 61.46 16.4"/><polygon class="cls-51" points="61.52 16.41 63.33 6.23 63.44 6.25 61.64 16.43 61.52 16.41"/><polygon class="cls-51" points="61.58 16.42 63.38 6.25 63.5 6.28 61.68 16.43 61.58 16.42"/><polygon class="cls-51" points="61.63 16.43 63.44 6.25 63.55 6.28 61.74 16.46 61.63 16.43"/><polygon class="cls-51" points="61.69 16.43 63.5 6.26 63.61 6.29 61.8 16.46 61.69 16.43"/><polygon class="cls-51" points="61.74 16.46 63.55 6.28 63.66 6.29 61.86 16.47 61.74 16.46"/><rect class="cls-52" x="57.6" y="11.32" width="10.34" height="0.12" transform="translate(40.57 71.19) rotate(-79.91)"/><polygon class="cls-51" points="61.86 16.47 63.66 6.29 63.78 6.32 61.97 16.5 61.86 16.47"/><polygon class="cls-51" points="61.92 16.48 63.73 6.3 63.83 6.33 62.03 16.5 61.92 16.48"/><polygon class="cls-51" points="61.97 16.5 63.78 6.32 63.89 6.33 62.09 16.52 61.97 16.5"/><polygon class="cls-51" points="62.03 16.5 63.83 6.33 63.95 6.34 62.13 16.52 62.03 16.5"/><polygon class="cls-51" points="62.09 16.52 63.89 6.33 64 6.35 62.2 16.53 62.09 16.52"/><polygon class="cls-51" points="62.13 16.52 63.95 6.34 64.06 6.36 62.25 16.53 62.13 16.52"/><polygon class="cls-51" points="62.2 16.53 64 6.35 64.12 6.38 62.31 16.54 62.2 16.53"/><polygon class="cls-51" points="62.25 16.53 64.06 6.36 64.18 6.38 62.37 16.55 62.25 16.53"/><polygon class="cls-51" points="62.31 16.54 64.12 6.38 64.23 6.4 62.42 16.57 62.31 16.54"/><polygon class="cls-51" points="62.37 16.55 64.18 6.38 64.29 6.41 62.48 16.57 62.37 16.55"/><polygon class="cls-51" points="62.42 16.57 64.23 6.4 64.34 6.42 62.54 16.6 62.42 16.57"/><polygon class="cls-51" points="62.48 16.57 64.29 6.41 64.41 6.42 62.61 16.6 62.48 16.57"/><polygon class="cls-51" points="62.54 16.6 64.34 6.42 64.46 6.44 62.65 16.61 62.54 16.6"/><polygon class="cls-51" points="62.61 16.6 64.41 6.42 64.52 6.45 62.72 16.61 62.61 16.6"/><polygon class="cls-51" points="62.65 16.61 64.46 6.44 64.58 6.46 62.76 16.63 62.65 16.61"/><polygon class="cls-51" points="62.72 16.61 64.52 6.45 64.63 6.46 62.83 16.64 62.72 16.61"/><polygon class="cls-51" points="62.76 16.63 64.58 6.46 64.68 6.47 62.87 16.65 62.76 16.63"/><polygon class="cls-51" points="62.83 16.64 64.63 6.46 64.75 6.48 62.94 16.66 62.83 16.64"/><polygon class="cls-51" points="62.88 16.65 64.68 6.47 64.8 6.5 62.99 16.66 62.88 16.65"/><polygon class="cls-51" points="62.94 16.66 64.75 6.48 64.85 6.51 63.05 16.69 62.94 16.66"/><polygon class="cls-51" points="62.99 16.66 64.8 6.5 64.91 6.51 63.1 16.7 62.99 16.66"/><polygon class="cls-51" points="63.05 16.69 64.85 6.5 64.97 6.52 63.16 16.7 63.05 16.69"/><polygon class="cls-51" points="63.11 16.7 64.91 6.51 65.03 6.54 63.22 16.71 63.11 16.7"/><polygon class="cls-51" points="63.16 16.7 64.97 6.52 65.07 6.55 63.27 16.71 63.16 16.7"/><polygon class="cls-51" points="63.22 16.71 65.03 6.53 65.14 6.55 63.34 16.73 63.22 16.71"/><polygon class="cls-51" points="63.27 16.71 65.07 6.55 65.2 6.57 63.39 16.74 63.27 16.71"/></g><path class="cls-3" d="M.82,22.93a1.6,1.6,0,0,0-.59.62,1.46,1.46,0,0,0-.23.76,1.73,1.73,0,0,0,.21.83,1.51,1.51,0,0,0,.57.58,1.49,1.49,0,0,0,.81.22h.47v-.41H1.59a1.08,1.08,0,0,1-.52-.13A1.29,1.29,0,0,1,.64,25a1.21,1.21,0,0,1-.18-.68,1,1,0,0,1,.11-.47,1,1,0,0,1,.26-.4,1.33,1.33,0,0,1,.41-.25,1.55,1.55,0,0,1,.53-.09h.29v-.4H1.72A1.77,1.77,0,0,0,.82,22.93Z"/><path class="cls-3" d="M4.51,24a1.71,1.71,0,0,0-.35-.21,1.78,1.78,0,0,0-.47-.07,1.24,1.24,0,0,0-.62.15.93.93,0,0,0-.4.41,1.22,1.22,0,0,0-.15.58,1.23,1.23,0,0,0,.09.44,1.15,1.15,0,0,0,.23.39,1.14,1.14,0,0,0,.35.25,1.28,1.28,0,0,0,.44.09A.74.74,0,0,0,4,25.92a1.25,1.25,0,0,0,.27-.15v-.48a.71.71,0,0,1-.56.31.77.77,0,0,1-.38-.11A.7.7,0,0,1,3,25.21.71.71,0,0,1,3,24.83.81.81,0,0,1,3,24.45a.61.61,0,0,1,.26-.29.69.69,0,0,1,.39-.11.94.94,0,0,1,.36.08.62.62,0,0,1,.27.21.68.68,0,0,1,.09.35v1.25h.42V24.73a1.44,1.44,0,0,0-.08-.44A1,1,0,0,0,4.51,24Z"/><path class="cls-3" d="M8.14,23.89a.56.56,0,0,0-.24-.16.83.83,0,0,0-.32-.06,1.17,1.17,0,0,0-.38.07.7.7,0,0,0-.27.24,1.37,1.37,0,0,0-.29-.24,1.21,1.21,0,0,0-.37-.07,1,1,0,0,0-.41.1.86.86,0,0,0-.29.28.61.61,0,0,0-.1.37v1.52h.41V24.52A.49.49,0,0,1,6,24.17a.41.41,0,0,1,.29-.12c.29,0,.43.18.43.53v1.36h.41V24.58c0-.35.15-.53.45-.53a.43.43,0,0,1,.29.12.54.54,0,0,1,.11.35v1.42h.4V24.42a.61.61,0,0,0-.06-.29A.53.53,0,0,0,8.14,23.89Z"/><path class="cls-3" d="M12.37,24.47a1.56,1.56,0,0,0,.17-.25l.3-.5h-.47l-.38.65a.37.37,0,0,1-.36.16h-.15V22.7h-.42v3.24h.42v-1h.45a.37.37,0,0,1,.27.1.38.38,0,0,1,.1.29v.62h.41v-.65a.7.7,0,0,0-.14-.46.58.58,0,0,0-.37-.2h0A.26.26,0,0,0,12.37,24.47Z"/><path class="cls-3" d="M14.93,25.42a.72.72,0,0,1-.51.18.67.67,0,0,1-.52-.23.8.8,0,0,1,0-1.1.69.69,0,0,1,.52-.22.6.6,0,0,1,.29.06.66.66,0,0,1,.22.16l-1.11.61.17.32,1.51-.83a1.17,1.17,0,0,0-.42-.52,1.21,1.21,0,0,0-.66-.18,1.5,1.5,0,0,0-.44.07,1.23,1.23,0,0,0-.37.26,1.11,1.11,0,0,0-.27.37,1.3,1.3,0,0,0-.08.46,1.34,1.34,0,0,0,.08.46,1.68,1.68,0,0,0,.27.37,1.18,1.18,0,0,0,.37.24,1.5,1.5,0,0,0,.44.08,1.2,1.2,0,0,0,.57-.13.93.93,0,0,0,.41-.37,1,1,0,0,0,.18-.53l-.41-.05A1.09,1.09,0,0,1,14.93,25.42Z"/><polygon class="cls-3" points="14.38 23.13 14.64 23.49 14.96 23.49 14.56 22.93 14.2 22.93 13.81 23.49 14.11 23.49 14.38 23.13"/><polygon class="cls-3" points="14.85 23.23 15.12 23.23 15.63 22.67 15.21 22.67 14.85 23.23"/><path class="cls-3" d="M16.63,23.15h-.41v2.06a.77.77,0,0,0,.18.53.61.61,0,0,0,.48.2h.56v-.4h-.5a.39.39,0,0,1-.24-.05.34.34,0,0,1-.07-.22V24.11h.81v-.39h-.81Z"/><rect class="cls-82" x="20.12" y="22.7" width="0.41" height="3.24"/><path class="cls-3" d="M22.33,26.2c-.07,0-.12,0-.15.06a.19.19,0,0,0,0,.28c0,.05.08.06.15.06a.18.18,0,0,0,.15-.06.26.26,0,0,0,0-.28A.18.18,0,0,0,22.33,26.2Z"/><path class="cls-3" d="M23.53,24h.1s0,.08-.09.12a.41.41,0,0,1-.21.05,1.37,1.37,0,0,0-.24-.25,1,1,0,0,0-.32-.17,1.29,1.29,0,0,0-.4-.07,1.68,1.68,0,0,0-.44.07,1.55,1.55,0,0,0-.37.26.94.94,0,0,0-.25.37,1,1,0,0,0-.11.46,1,1,0,0,0,.11.46,1.1,1.1,0,0,0,.25.37,1.13,1.13,0,0,0,.36.24,1.86,1.86,0,0,0,.45.08,1.63,1.63,0,0,0,.44-.08,1.36,1.36,0,0,0,.38-.24.91.91,0,0,0,.24-.37,1,1,0,0,0,.11-.46,1,1,0,0,0,0-.29,1,1,0,0,0-.08-.23.41.41,0,0,0,.25-.08.29.29,0,0,0,.11-.26v-.3h-.25Zm-.64,1.38a.65.65,0,0,1-.52.23.69.69,0,0,1-.53-.23.83.83,0,0,1,0-1.1.72.72,0,0,1,.53-.22.68.68,0,0,1,.52.22.86.86,0,0,1,0,1.1Z"/><rect class="cls-82" x="24.34" y="23.72" width="0.41" height="2.22"/><path class="cls-3" d="M24.55,23a.2.2,0,0,0-.15.06.25.25,0,0,0-.06.15.28.28,0,0,0,.06.14.25.25,0,0,0,.15.06.2.2,0,0,0,.14-.06.19.19,0,0,0,.07-.14.22.22,0,0,0-.21-.21Z"/><polygon class="cls-3" points="27.45 23.44 27.7 23.44 28.22 22.89 27.79 22.89 27.45 23.44"/><rect class="cls-82" x="27.57" y="23.72" width="0.42" height="2.22"/><path class="cls-3" d="M29.59,23.8a.91.91,0,0,0-.37.21,1.07,1.07,0,0,0-.27.36,1.11,1.11,0,0,0-.09.46,1.16,1.16,0,0,0,.16.59,1.36,1.36,0,0,0,.44.39,1.21,1.21,0,0,0,.52.13h.41v-.4h-.34a.78.78,0,0,1-.53-.18.74.74,0,0,1-.13-.91.71.71,0,0,1,.29-.26.8.8,0,0,1,.37-.08h.34v-.39H30A.91.91,0,0,0,29.59,23.8Z"/><path class="cls-3" d="M31.9,23.67a.83.83,0,0,0-.32.06.8.8,0,0,0-.25.18V22.7h-.42v3.24h.42v-1.3a.51.51,0,0,1,.16-.41.48.48,0,0,1,.38-.18c.37,0,.56.2.56.59v1.3h.41v-1.3A.85.85,0,0,0,31.9,23.67Z"/><path class="cls-3" d="M36.24,23.8a.91.91,0,0,0-.37.21,1,1,0,0,0-.26.36,1,1,0,0,0-.1.46,1.16,1.16,0,0,0,.17.59,1.24,1.24,0,0,0,.43.39,1.29,1.29,0,0,0,.52.13H37v-.4h-.32a.8.8,0,0,1-.54-.18.72.72,0,0,1-.12-.91.69.69,0,0,1,.28-.26.84.84,0,0,1,.38-.08H37v-.39h-.4A.91.91,0,0,0,36.24,23.8Z"/><path class="cls-3" d="M39.47,24a1.55,1.55,0,0,0-.36-.21,1.73,1.73,0,0,0-.48-.07,1.16,1.16,0,0,0-.6.15.88.88,0,0,0-.4.41,1,1,0,0,0-.15.58,1,1,0,0,0,.09.44.88.88,0,0,0,.22.39,1,1,0,0,0,.36.25,1.22,1.22,0,0,0,.43.09.63.63,0,0,0,.33-.06.81.81,0,0,0,.27-.15v-.48a.69.69,0,0,1-.55.31.88.88,0,0,1-.39-.11.75.75,0,0,1-.25-.28.83.83,0,0,1-.1-.38,1,1,0,0,1,.09-.38.67.67,0,0,1,.26-.29.71.71,0,0,1,.39-.11.9.9,0,0,1,.36.08.57.57,0,0,1,.37.56v1.25h.41V24.73a1.19,1.19,0,0,0-.08-.44A1.11,1.11,0,0,0,39.47,24Z"/><path class="cls-3" d="M42.3,24a1.6,1.6,0,0,0-.37-.25,1.57,1.57,0,0,0-.45-.07,1.61,1.61,0,0,0-.43.07,1.83,1.83,0,0,0-.38.26,1.05,1.05,0,0,0-.25.37,1.11,1.11,0,0,0-.09.46,1.14,1.14,0,0,0,.09.46,1.27,1.27,0,0,0,.25.37,1.36,1.36,0,0,0,.38.24,1.63,1.63,0,0,0,.43.08,1.51,1.51,0,0,0,.45-.08,1.18,1.18,0,0,0,.37-.24,1.05,1.05,0,0,0,.25-.37,1.19,1.19,0,0,0,.1-.46,1.15,1.15,0,0,0-.1-.46A1,1,0,0,0,42.3,24ZM42,25.37a.69.69,0,0,1-.53.23.67.67,0,0,1-.52-.23.83.83,0,0,1,0-1.1.69.69,0,0,1,.52-.22.72.72,0,0,1,.53.22.83.83,0,0,1,0,1.1Z"/><path class="cls-3" d="M46.78,23.8a.91.91,0,0,0-.5-.13.86.86,0,0,0-.48.13.92.92,0,0,0-.35.33,1.07,1.07,0,0,0-.12.51v1.3h.42v-1.3a.54.54,0,0,1,.26-.51.56.56,0,0,1,.27-.08.57.57,0,0,1,.28.08.51.51,0,0,1,.2.21.58.58,0,0,1,.07.3v1.3h.42v-1.3a1.07,1.07,0,0,0-.13-.51A.77.77,0,0,0,46.78,23.8Z"/><path class="cls-3" d="M48.88,23.67a.88.88,0,0,0-.33.06.76.76,0,0,0-.24.18V22.7h-.42v3.24h.42v-1.3a.51.51,0,0,1,.16-.41.48.48,0,0,1,.39-.18c.36,0,.54.2.54.59v1.3h.41v-1.3C49.81,24,49.5,23.67,48.88,23.67Z"/><path class="cls-3" d="M52.36,24a1.55,1.55,0,0,0-.36-.21,1.72,1.72,0,0,0-.47-.07,1.26,1.26,0,0,0-.62.15,1,1,0,0,0-.4.41,1.21,1.21,0,0,0-.14.58.91.91,0,0,0,.09.44.81.81,0,0,0,.23.39.91.91,0,0,0,.34.25,1.38,1.38,0,0,0,.44.09.69.69,0,0,0,.34-.06,1.3,1.3,0,0,0,.28-.15v-.48a.74.74,0,0,1-.57.31.88.88,0,0,1-.39-.11.75.75,0,0,1-.25-.28.77.77,0,0,1,0-.76.59.59,0,0,1,.25-.29.71.71,0,0,1,.39-.11.9.9,0,0,1,.36.08.62.62,0,0,1,.27.21.61.61,0,0,1,.11.35v1.25h.4V24.73a1,1,0,0,0-.09-.44A.81.81,0,0,0,52.36,24Z"/><polygon class="cls-3" points="51.52 23.14 51.79 23.5 52.1 23.5 51.71 22.95 51.35 22.95 50.95 23.5 51.26 23.5 51.52 23.14"/><polygon class="cls-3" points="51.99 23.23 52.26 23.23 52.77 22.67 52.35 22.67 51.99 23.23"/><path class="cls-3" d="M54.57,24.11v-.39h-.81v-.57h-.4v2.06a.72.72,0,0,0,.17.53.63.63,0,0,0,.49.2h.55v-.4h-.5a.33.33,0,0,1-.22-.05.24.24,0,0,1-.09-.22V24.11Z"/></svg>