<svg id="Layer_1" data-name="Layer 1" xmlns="http://www.w3.org/2000/svg" viewBox="0 0 65 30"><defs><style>.cls-1{fill:#c4261c;}.cls-2{fill:#fff;}.cls-3{fill:#1f1a17;}</style></defs><rect class="cls-1" y="8.29" width="13.41" height="13.41"/><path class="cls-2" d="M6.71,8.87v0A6.13,6.13,0,1,0,12.84,15,6.13,6.13,0,0,0,6.71,8.87M3.13,15a6,6,0,0,0,2.19-1.39,6.07,6.07,0,0,0,1.39-2.18A5.94,5.94,0,0,0,8.1,13.61,6.07,6.07,0,0,0,10.28,15,6.07,6.07,0,0,0,8.1,16.39a5.94,5.94,0,0,0-1.39,2.18,6.07,6.07,0,0,0-1.39-2.18A6,6,0,0,0,3.13,15m-1.75-.42A5.35,5.35,0,0,1,6.29,9.67a5.26,5.26,0,0,1-4.91,4.91m0,.84a5.26,5.26,0,0,1,4.91,4.91,5.36,5.36,0,0,1-4.91-4.91m10.65,0a5.35,5.35,0,0,1-4.9,4.91A5.25,5.25,0,0,1,12,15.42m0-.84a5.25,5.25,0,0,1-4.9-4.91A5.35,5.35,0,0,1,12,14.58"/><path class="cls-3" d="M22.47,15.88a1.79,1.79,0,0,0-.4-.61l-.05.06.05-.06a2.78,2.78,0,0,0-.58-.42,7.27,7.27,0,0,0-.69-.32l-.8-.29a7.82,7.82,0,0,1-.83-.32,1.7,1.7,0,0,1-.71-.5,1.26,1.26,0,0,1-.23-.77.92.92,0,0,1,.36-.74,1.4,1.4,0,0,1,.9-.3,2,2,0,0,1,.86.17,1.84,1.84,0,0,1,.59.48,2.63,2.63,0,0,1,.41.69c.1.26.2.53.29.82v.05h.61l-.05-2.65h-.58l-.23.33a5.56,5.56,0,0,0-.78-.34A3.13,3.13,0,0,0,19.57,11a3,3,0,0,0-1,.16,2.54,2.54,0,0,0-.83.44,2.16,2.16,0,0,0-.56.69,1.74,1.74,0,0,0-.21.84,1.91,1.91,0,0,0,.41,1.26,2.87,2.87,0,0,0,1.12.78l.85.31.87.31a1.66,1.66,0,0,1,.81.56,1.35,1.35,0,0,1,.26.81,1.42,1.42,0,0,1-.08.52,1.08,1.08,0,0,1-.26.38,1.35,1.35,0,0,1-.46.26,2.31,2.31,0,0,1-.69.09,2.14,2.14,0,0,1-.91-.18,2.38,2.38,0,0,1-.69-.48,2.78,2.78,0,0,1-.5-.71,5.57,5.57,0,0,1-.34-.85l0-.05h-.6l.08,2.73h.58l.24-.36a5.37,5.37,0,0,0,.92.35A4,4,0,0,0,19.7,19h0a3.15,3.15,0,0,0,2.06-.67,2.19,2.19,0,0,0,.71-2.47"/><path class="cls-3" d="M50.59,18.28a.59.59,0,0,1-.25-.05.48.48,0,0,1-.21-.18.46.46,0,0,1-.07-.29c0-.46,0-.89,0-1.28s0-.85,0-1.35a2.17,2.17,0,0,0-.17-.91,1.37,1.37,0,0,0-.48-.56,1.83,1.83,0,0,0-.69-.28,5.57,5.57,0,0,0-.87-.06,2.84,2.84,0,0,0-.75.11,3.13,3.13,0,0,0-.66.26,2,2,0,0,0-.51.41.79.79,0,0,0-.21.52.8.8,0,0,0,.15.47.6.6,0,0,0,.49.22.84.84,0,0,0,.56-.18.49.49,0,0,0,.21-.39,1.9,1.9,0,0,0-.05-.4q0-.18-.06-.27a1.06,1.06,0,0,1,.28-.13,1.19,1.19,0,0,1,.47-.08,1.07,1.07,0,0,1,.57.13,1.18,1.18,0,0,1,.31.32,1.14,1.14,0,0,1,.13.35,2.42,2.42,0,0,1,0,.25v.48a8.63,8.63,0,0,1-1,.36l-1.07.34a4.29,4.29,0,0,0-.46.2,1.44,1.44,0,0,0-.4.3,1.35,1.35,0,0,0-.3.46,1.48,1.48,0,0,0-.1.57,1.28,1.28,0,0,0,.44,1A1.69,1.69,0,0,0,47,19a2.54,2.54,0,0,0,1.08-.21,2.88,2.88,0,0,0,.78-.54,1,1,0,0,0,.35.52A1.32,1.32,0,0,0,50,19a1.83,1.83,0,0,0,.49-.06l.49-.14,0,0v-.47h-.46M48.86,16l0,1.72a2.19,2.19,0,0,1-.49.4,1.42,1.42,0,0,1-.7.17.9.9,0,0,1-.6-.19.74.74,0,0,1-.23-.59,1,1,0,0,1,.16-.55,1.58,1.58,0,0,1,.44-.41,3.82,3.82,0,0,1,.68-.31l.78-.24"/><path class="cls-3" d="M57.76,18.32l-.23-.07a.39.39,0,0,1-.21-.15.59.59,0,0,1-.06-.26V15.11a1.93,1.93,0,0,0-.41-1.3,1.61,1.61,0,0,0-1.29-.5,2.53,2.53,0,0,0-.7.09,2.35,2.35,0,0,0-.53.22,3,3,0,0,0-.41.3l-.26.22v-.63l-.1-.1,0,0-2,.12V14h.07a2.91,2.91,0,0,1,.32,0,.67.67,0,0,1,.24.09.63.63,0,0,1,.21.22.6.6,0,0,1,.08.29v3.24a.48.48,0,0,1-.07.27.34.34,0,0,1-.2.14l-.23,0-.28,0h-.07v.49h3v-.5h-.06l-.29,0a.91.91,0,0,1-.25-.07.47.47,0,0,1-.22-.16.44.44,0,0,1-.07-.25v-3l.16-.2a.92.92,0,0,1,.29-.25,1.63,1.63,0,0,1,.44-.2,1.53,1.53,0,0,1,.54-.09.88.88,0,0,1,.66.28,1.16,1.16,0,0,1,.27.81v2.7a.48.48,0,0,1-.07.27.38.38,0,0,1-.2.14l-.25,0-.3,0h-.07v.49h3v-.5H58l-.27,0"/><path class="cls-3" d="M64.93,18.35a1.46,1.46,0,0,1-.57-.11,1.43,1.43,0,0,1-.44-.39l-.87-1.09c-.38-.47-.73-.88-1-1.23l.66-.58c.17-.16.3-.27.39-.34a3.94,3.94,0,0,1,.57-.35,4.43,4.43,0,0,1,.85-.33l.06,0v-.46H61.86v.48h.07a2.83,2.83,0,0,1,.47.1c.17,0,.21.1.2.14s0,0,0,.08l-.09.12c-.24.24-.54.53-.89.84l-.87.78V10.59l-.1-.11,0,0-2.24.13v.47h.07l.41,0a.63.63,0,0,1,.35.1.52.52,0,0,1,.21.23.69.69,0,0,1,.09.34v6.1a.48.48,0,0,1-.07.27.43.43,0,0,1-.2.14l-.24,0-.27,0h-.07v.49h3v-.5h-.06l-.29,0a1.45,1.45,0,0,1-.26-.07.44.44,0,0,1-.21-.15.58.58,0,0,1-.07-.28V16.59l.4-.33c.36.41.71.84,1,1.27s.67.89,1,1.29l0,0H65v-.5Z"/><path class="cls-3" d="M37.12,18.34l-.34-.06a1.07,1.07,0,0,1-.32-.12,1.21,1.21,0,0,1-.29-.22,1,1,0,0,1-.18-.31l-2.74-6.45h-.56l0,0c-.38.91-.83,1.95-1.32,3.1s-1,2.21-1.36,3.14a2.06,2.06,0,0,1-.23.41,1.41,1.41,0,0,1-.34.28,1.52,1.52,0,0,1-.35.13l-.36.06h-.07v.51h3.22v-.51h-.07a3.17,3.17,0,0,1-.8-.14c-.23-.08-.31-.17-.31-.25a1,1,0,0,1,0-.22,3.56,3.56,0,0,1,.1-.36c.05-.15.11-.31.18-.5s.27-.68.39-.94h2.46l.82,2a.81.81,0,0,1,0,.11.38.38,0,0,1,0,.1s0,0,0,0a.55.55,0,0,1-.2.08,4.19,4.19,0,0,1-.73.11h-.07v.51H37.2v-.51Zm-3.53-3h-2l1-2.3Z"/><path class="cls-3" d="M28.71,17.49l-.48-.26,0,.06a2.07,2.07,0,0,1-.71.77,1.66,1.66,0,0,1-.86.22,1.8,1.8,0,0,1-.84-.18,1.37,1.37,0,0,1-.57-.46,1.9,1.9,0,0,1-.33-.72,4.61,4.61,0,0,1-.11-1H28.6v-.23a2.92,2.92,0,0,0-.13-.9,1.94,1.94,0,0,0-1.18-1.24,2.87,2.87,0,0,0-1.11-.19,2.64,2.64,0,0,0-1.14.24,2.58,2.58,0,0,0-.85.63,2.71,2.71,0,0,0-.54.91,3,3,0,0,0-.18,1,3.39,3.39,0,0,0,.17,1.11,2.53,2.53,0,0,0,.52.92,2.41,2.41,0,0,0,.89.62A3.06,3.06,0,0,0,26.3,19a2.67,2.67,0,0,0,1.44-.38,2.8,2.8,0,0,0,1-1l0-.06ZM25.2,14.27a1.3,1.3,0,0,1,1-.4,1.13,1.13,0,0,1,.56.13,1,1,0,0,1,.34.34,1.28,1.28,0,0,1,.17.5,4.49,4.49,0,0,1,.06.48H24.78a1.68,1.68,0,0,1,.42-1.05"/><path class="cls-3" d="M44.3,16h0a2.07,2.07,0,0,0-.6-.58A3.2,3.2,0,0,0,42.44,15a2.54,2.54,0,0,0,1.4-.94,1.52,1.52,0,0,0,.23-.86,1.69,1.69,0,0,0-.24-.91,2,2,0,0,0-.61-.62,2.88,2.88,0,0,0-.82-.36,3.67,3.67,0,0,0-.94-.12H37.75v.53h.18l.36,0a1,1,0,0,1,.32.07.34.34,0,0,1,.19.15.42.42,0,0,1,.06.25v2.87h0v2.73a.38.38,0,0,1-.06.24.39.39,0,0,1-.21.15,1.87,1.87,0,0,1-.35.07l-.4,0h-.09v.52h4a4.31,4.31,0,0,0,1-.12,3.24,3.24,0,0,0,.9-.35,2.07,2.07,0,0,0,.67-.61,1.53,1.53,0,0,0,.26-.89A1.43,1.43,0,0,0,44.3,16m-4-4.24.41,0h.46a1.52,1.52,0,0,1,1.11.36,1.38,1.38,0,0,1,.35,1,2.46,2.46,0,0,1-.08.65,1.34,1.34,0,0,1-.29.5,1.08,1.08,0,0,1-.51.33,2.21,2.21,0,0,1-.78.12h-.67Zm2.32,6a1.78,1.78,0,0,1-1.26.41,1.68,1.68,0,0,1-.79-.15.45.45,0,0,1-.27-.42V15.31h1a2.08,2.08,0,0,1,1.34.38,1.16,1.16,0,0,1,.47,1,1.53,1.53,0,0,1-.44,1.19"/></svg>