<svg id="Layer_1" data-name="Layer 1" xmlns="http://www.w3.org/2000/svg" xmlns:xlink="http://www.w3.org/1999/xlink" viewBox="0 0 65 30"><defs><style>.cls-1{fill:none;}.cls-2{clip-path:url(#clip-path);}.cls-3{fill:url(#linear-gradient);}.cls-4{clip-path:url(#clip-path-2);}.cls-5{fill:url(#linear-gradient-2);}.cls-6{fill:url(#linear-gradient-3);}.cls-7{fill:#fff;}.cls-8{clip-path:url(#clip-path-4);}.cls-9{fill:url(#linear-gradient-4);}.cls-10{clip-path:url(#clip-path-5);}.cls-11{fill:url(#linear-gradient-5);}.cls-12{clip-path:url(#clip-path-6);}.cls-13{fill:url(#linear-gradient-6);}.cls-14{clip-path:url(#clip-path-7);}.cls-15{fill:url(#linear-gradient-7);}.cls-16{fill:#eb2427;}.cls-17{fill:#06519f;}</style><clipPath id="clip-path"><path class="cls-1" d="M11.75,20C5.81,20,1,20.87,1,22s4.86,2,10.85,2,10.85-.87,10.86-2-4.86-2-10.85-2Z"/></clipPath><linearGradient id="linear-gradient" x1="-145.03" y1="157.09" x2="-144.85" y2="157.09" gradientTransform="translate(-3196.64 3500.49) rotate(179.99) scale(22.14)" gradientUnits="userSpaceOnUse"><stop offset="0" stop-color="#20366a"/><stop offset="0.26" stop-color="#1e3b73"/><stop offset="0.69" stop-color="#184a8c"/><stop offset="1" stop-color="#1357a2"/></linearGradient><clipPath id="clip-path-2"><path class="cls-1" d="M11.73,20a40.56,40.56,0,0,0-8.15.71l.19,1.37,16.12,0,.19-1.37A41.19,41.19,0,0,0,11.83,20Z"/></clipPath><linearGradient id="linear-gradient-2" x1="-144.61" y1="156.94" x2="-144.43" y2="156.94" gradientTransform="translate(14689.64 13537.74) rotate(90) scale(93.53)" gradientUnits="userSpaceOnUse"><stop offset="0" stop-color="#676d94"/><stop offset="0.06" stop-color="#70769a"/><stop offset="0.17" stop-color="#888dac"/><stop offset="0.3" stop-color="#b0b3c8"/><stop offset="0.45" stop-color="#e7e8ee"/><stop offset="0.52" stop-color="#fff"/><stop offset="0.59" stop-color="#e0e1e9"/><stop offset="0.73" stop-color="#acafc5"/><stop offset="0.84" stop-color="#868baa"/><stop offset="0.94" stop-color="#6f759a"/><stop offset="1" stop-color="#676d94"/></linearGradient><linearGradient id="linear-gradient-3" x1="-144.6" y1="156.94" x2="-144.42" y2="156.94" gradientTransform="matrix(0, 91.47, -91.47, 0, 14366.89, 13240.24)" gradientUnits="userSpaceOnUse"><stop offset="0" stop-color="#60658f"/><stop offset="0.17" stop-color="#9194b1"/><stop offset="0.52" stop-color="#fff"/><stop offset="1" stop-color="#60658f"/></linearGradient><clipPath id="clip-path-4"><path class="cls-1" d="M4.48,13.45a7.43,7.43,0,0,0,13.94,3.6,2.71,2.71,0,0,0,.17-.95,2.76,2.76,0,0,0-4.7-2L12.2,15.8a4.44,4.44,0,0,1-7.67-3.06c0-.06,0-.13,0-.2a6.84,6.84,0,0,0-.06.91"/></clipPath><linearGradient id="linear-gradient-4" x1="-144.85" y1="157.1" x2="-144.67" y2="157.1" gradientTransform="translate(6710.02 -7252.89) scale(46.27)" gradientUnits="userSpaceOnUse"><stop offset="0" stop-color="#0c5daa"/><stop offset="0.19" stop-color="#0d5aa5"/><stop offset="0.41" stop-color="#0e5298"/><stop offset="0.63" stop-color="#114482"/><stop offset="0.86" stop-color="#153163"/><stop offset="1" stop-color="#18234c"/></linearGradient><clipPath id="clip-path-5"><path class="cls-1" d="M11.91,6A7.42,7.42,0,0,0,5.45,9.79a2.76,2.76,0,0,0,4.47,3.07l1.69-1.66a4.44,4.44,0,0,1,7.66,3.06c0,.09,0,.2,0,.31a6.59,6.59,0,0,0,.09-1.09A7.44,7.44,0,0,0,11.93,6Z"/></clipPath><linearGradient id="linear-gradient-5" x1="-143.29" y1="157.1" x2="-143.11" y2="157.1" gradientTransform="translate(5175.11 4716.24) rotate(90) scale(32.86)" gradientUnits="userSpaceOnUse"><stop offset="0" stop-color="#ec2227"/><stop offset="0.16" stop-color="#e72126"/><stop offset="0.34" stop-color="#d91f24"/><stop offset="0.55" stop-color="#c11b1f"/><stop offset="0.76" stop-color="#a01619"/><stop offset="0.98" stop-color="#751012"/><stop offset="1" stop-color="#700f11"/></linearGradient><clipPath id="clip-path-6"><path class="cls-1" d="M4.54,12.54c0,.07,0,.14,0,.2A4.45,4.45,0,0,0,12,16l-2.69-2.7A2.77,2.77,0,0,1,5.45,9.79a7.38,7.38,0,0,0-.91,2.75"/></clipPath><linearGradient id="linear-gradient-6" x1="-143.71" y1="156.78" x2="-143.53" y2="156.78" gradientTransform="translate(5410.67 4962.33) rotate(90) scale(34.46)" gradientUnits="userSpaceOnUse"><stop offset="0" stop-color="#0c5daa"/><stop offset="0.17" stop-color="#0d59a3"/><stop offset="0.42" stop-color="#0f4d90"/><stop offset="0.72" stop-color="#133970"/><stop offset="1" stop-color="#18234c"/></linearGradient><clipPath id="clip-path-7"><path class="cls-1" d="M14.7,9.81a4.48,4.48,0,0,0-2.81,1.11l2.7,2.71a2.91,2.91,0,0,1,1.25-.29,2.76,2.76,0,0,1,2.75,2.76,2.71,2.71,0,0,1-.17.95h0a7.28,7.28,0,0,0,.84-2.48c0-.11,0-.22,0-.31A4.43,4.43,0,0,0,15,9.81Z"/></clipPath><linearGradient id="linear-gradient-7" x1="-145.15" y1="157.84" x2="-144.97" y2="157.84" gradientTransform="translate(5104.13 -5523.23) scale(35.08)" gradientUnits="userSpaceOnUse"><stop offset="0" stop-color="#700f11"/><stop offset="0.71" stop-color="#c51f22"/><stop offset="1" stop-color="#ea2629"/></linearGradient></defs><g class="cls-2"><rect class="cls-3" x="9.84" y="11.13" width="4.02" height="21.72" transform="translate(-10.16 33.8) rotate(-89.89)"/></g><g class="cls-4"><rect class="cls-5" x="10.76" y="12.78" width="2.13" height="16.5" transform="translate(-9.22 32.82) rotate(-89.9)"/></g><g class="cls-4"><rect class="cls-6" x="10.76" y="12.78" width="2.13" height="16.5" transform="translate(-9.22 32.82) rotate(-89.9)"/></g><path class="cls-7" d="M19.89,22.05a.32.32,0,0,0-.3-.31H4.07a.31.31,0,0,0,0,.61H19.59a.31.31,0,0,0,.3-.3"/><g class="cls-8"><rect class="cls-9" x="5.24" y="8.67" width="12.59" height="16.1" transform="translate(-8.07 22.02) rotate(-70.52)"/></g><g class="cls-10"><rect class="cls-11" x="5.21" y="6.03" width="14.14" height="8.54"/></g><g class="cls-12"><rect class="cls-13" x="3.77" y="9.03" width="8.95" height="8.93" transform="translate(-2.91 2.29) rotate(-13.44)"/></g><g class="cls-14"><rect class="cls-15" x="11.89" y="9.81" width="7.39" height="7.24"/></g><path class="cls-16" d="M34.47,15.55l-6.72-7A1.7,1.7,0,0,0,26.52,8h-.63a1.25,1.25,0,0,0-1.26,1.25V18h2V10.43l6.72,7a1.7,1.7,0,0,0,1.24.57h.64a1.26,1.26,0,0,0,1.25-1.26V8h-2Z"/><path class="cls-16" d="M38.41,10.52v4.94A2.49,2.49,0,0,0,40.88,18h9.33V16H41.36a1,1,0,0,1-1-.94V11a1,1,0,0,1,1-1h8.85V8H40.88a2.49,2.49,0,0,0-2.47,2.49"/><path class="cls-16" d="M64,10.52A2.49,2.49,0,0,0,61.52,8H52.18V18h9.34A2.48,2.48,0,0,0,64,15.46v-1A2.5,2.5,0,0,0,63.45,13,1.48,1.48,0,0,0,64,11.77Zm-2,4.84a.63.63,0,0,1-.62.63H54.14V14h7.24a.63.63,0,0,1,.62.63Zm0-4a.53.53,0,0,1-.55.61H54.14V10h7.27a.64.64,0,0,1,.63.65Z"/><polygon class="cls-17" points="25.78 21.24 25.14 19.98 24.63 19.98 24.63 21.95 25.04 21.95 25.04 20.66 25.69 21.95 26.18 21.95 26.18 19.98 25.78 19.98 25.78 21.24"/><path class="cls-17" d="M27.41,20l-.68,2h.44l.15-.43H28l.14.43h.48l-.72-2Zm0,1.17.2-.6.2.6Z"/><polygon class="cls-17" points="28.93 20.34 29.45 20.34 29.45 21.95 29.89 21.95 29.89 20.34 30.41 20.34 30.41 19.98 28.93 19.98 28.93 20.34"/><rect class="cls-17" x="31.01" y="19.98" width="0.44" height="1.97"/><path class="cls-17" d="M33,19.94a.72.72,0,0,0-.53.18.68.68,0,0,0-.19.49v.6a.88.88,0,0,0,.15.55A.68.68,0,0,0,33,22a.66.66,0,0,0,.57-.23.83.83,0,0,0,.14-.54v-.6a.67.67,0,0,0-.18-.49.74.74,0,0,0-.53-.18m.28.66v.62a.53.53,0,0,1-.06.3s-.07.1-.22.1-.2-.05-.23-.1a.63.63,0,0,1,0-.29v-.62c0-.27.14-.31.28-.31a.29.29,0,0,1,.21.08.34.34,0,0,1,.07.22"/><polygon class="cls-17" points="35.6 21.24 34.97 19.98 34.46 19.98 34.46 21.95 34.87 21.95 34.87 20.66 35.52 21.95 36.01 21.95 36.01 19.98 35.6 19.98 35.6 21.24"/><path class="cls-17" d="M37.24,20l-.68,2H37l.15-.43h.63l.14.43h.48l-.71-2Zm0,1.17.2-.6.2.6Z"/><polygon class="cls-17" points="39.38 19.98 38.94 19.98 38.94 21.95 40.11 21.95 40.11 21.58 39.38 21.58 39.38 19.98"/><path class="cls-17" d="M42.85,21.33a.33.33,0,0,1-.06.21.17.17,0,0,1-.17.08c-.14,0-.19-.05-.21-.1a.47.47,0,0,1,0-.28v-.53a.75.75,0,0,1,0-.3.22.22,0,0,1,.22-.11c.15,0,.21.05.21.19v.14h.44v-.19c0-.23-.11-.5-.63-.5a.65.65,0,0,0-.72.73v.53a.91.91,0,0,0,.13.55.68.68,0,0,0,.57.23.58.58,0,0,0,.66-.65v-.08h-.43Z"/><rect class="cls-17" x="43.99" y="19.98" width="0.44" height="1.97"/><polygon class="cls-17" points="45.03 20.34 45.55 20.34 45.55 21.95 45.99 21.95 45.99 20.34 46.51 20.34 46.51 19.98 45.03 19.98 45.03 20.34"/><rect class="cls-17" x="47.11" y="19.98" width="0.44" height="1.97"/><polygon class="cls-17" points="49.58 20.32 49.58 19.98 48.2 19.98 48.2 20.34 49.06 20.34 48.17 21.58 48.17 21.95 49.59 21.95 49.59 21.58 48.66 21.58 49.58 20.32"/><polygon class="cls-17" points="50.52 21.13 51.24 21.13 51.24 20.76 50.52 20.76 50.52 20.35 51.3 20.35 51.3 19.99 50.08 19.99 50.08 21.96 51.32 21.96 51.32 21.59 50.52 21.59 50.52 21.13"/><polygon class="cls-17" points="53.32 21.24 52.68 19.98 52.18 19.98 52.18 21.95 52.58 21.95 52.58 20.66 53.23 21.95 53.73 21.95 53.73 19.98 53.32 19.98 53.32 21.24"/><path class="cls-17" d="M57,20.9a.44.44,0,0,0,.19-.41.45.45,0,0,0-.18-.38.69.69,0,0,0-.43-.13H55.8v2h.77c.44,0,.66-.21.66-.59A.46.46,0,0,0,57,20.9m-.74.2h.2c.32,0,.35.13.35.25a.21.21,0,0,1-.07.17.32.32,0,0,1-.2.06h-.28Zm.49-.56c0,.13-.06.2-.21.2h-.28v-.4h.27a.23.23,0,0,1,.16.05.19.19,0,0,1,.06.15m0,.38h0"/><path class="cls-17" d="M58.42,20l-.69,2h.45l.15-.43H59l.15.43h.47l-.71-2Zm0,1.17.2-.6.2.6Z"/><polygon class="cls-17" points="61.28 21.24 60.64 19.98 60.13 19.98 60.13 21.95 60.54 21.95 60.54 20.66 61.19 21.95 61.69 21.95 61.69 19.98 61.28 19.98 61.28 21.24"/><polygon class="cls-17" points="63.17 20.88 63.97 19.98 63.45 19.98 62.88 20.63 62.88 19.98 62.44 19.98 62.44 21.95 62.88 21.95 62.88 21.18 63.45 21.95 64 21.95 63.17 20.88"/></svg>