<svg id="Layer_1" data-name="Layer 1" xmlns="http://www.w3.org/2000/svg" viewBox="0 0 65 30"><defs><style>.cls-1,.cls-4{fill:#1e417c;}.cls-1,.cls-2,.cls-3{fill-rule:evenodd;}.cls-2{fill:#89d2dd;}.cls-3{fill:#0f9bd7;}</style></defs><path class="cls-1" d="M59,12.7h-.43a.47.47,0,0,0-.44.37.65.65,0,0,0,0,.2v2.62a1.49,1.49,0,0,1,0,.19l-.13-.15L56.29,14c-.32-.36-.63-.73-.94-1.1a.45.45,0,0,0-.29-.18,5.61,5.61,0,0,0-.58,0v5.16a4.09,4.09,0,0,0,.61,0,.41.41,0,0,0,.34-.3.64.64,0,0,0,0-.24V14.69a1.28,1.28,0,0,1,0-.18l.12.13c.84,1,1.68,1.95,2.51,2.94a.69.69,0,0,0,.67.3h.27c0-.25,0-5.07,0-5.18Z"/><path class="cls-1" d="M41,12.69h-.16a.49.49,0,0,0-.41.37,1.94,1.94,0,0,0,0,.24v2.76l-.13-.14L38.59,14l-1-1.13a.48.48,0,0,0-.41-.19h-.45v5.15l0,0h.38a.5.5,0,0,0,.55-.55V14.68a.71.71,0,0,1,0-.14.34.34,0,0,1,.13.1L39,16l1.47,1.73a.43.43,0,0,0,.29.18h.56c0-.23,0-5.06,0-5.18Z"/><path class="cls-1" d="M47.45,15l-.06,0,.09-.12a1.34,1.34,0,0,0,0-1.57,1.44,1.44,0,0,0-1.17-.57h-2v5.18h.41c.62,0,1.23,0,1.85,0a1.59,1.59,0,0,0,1.16-.5A1.54,1.54,0,0,0,47.45,15Zm-2.14-1.42h0c.31,0,.61,0,.91,0a.51.51,0,0,1,.46.42.53.53,0,0,1-.2.55.57.57,0,0,1-.35.12h-.84A6.55,6.55,0,0,1,45.31,13.59ZM46.56,17l-.27,0h-1V15.6l.11,0h.92l.27,0a.68.68,0,0,1,.56.69A.67.67,0,0,1,46.56,17Z"/><path class="cls-1" d="M19.72,12.93a2.7,2.7,0,0,0-1.65-.29,2.58,2.58,0,0,0-1.72.88,2.65,2.65,0,0,0-.64,1.88,2.61,2.61,0,0,0,2.34,2.54,2.85,2.85,0,0,0,1.53-.22,2.61,2.61,0,0,0,1.55-2.44c0-.15,0-.3-.05-.45A2.52,2.52,0,0,0,19.72,12.93Zm.19,3.25a1.77,1.77,0,0,1-1.65.9,1.6,1.6,0,0,1-1.34-.9,1.83,1.83,0,0,1-.07-1.63,1.66,1.66,0,0,1,1.71-1A1.68,1.68,0,0,1,20,14.72,1.86,1.86,0,0,1,19.91,16.18Z"/><path class="cls-1" d="M62.46,15.07l2.28-2.37h-1a.56.56,0,0,0-.43.19l-1.65,1.75-.12.11h0v-2h-.58a.47.47,0,0,0-.39.36.82.82,0,0,0,0,.22v4.48s0,.07,0,.11h.57a.37.37,0,0,0,.26-.12.52.52,0,0,0,.15-.39V15.52s0-.1,0-.19l.17.19c.64.72,1.29,1.44,1.93,2.17a.51.51,0,0,0,.43.19h.9l.1,0Z"/><path class="cls-1" d="M52.22,14.28,51.68,13a.48.48,0,0,0-.34-.32,2.8,2.8,0,0,0-.5,0c-.74,1.73-1.48,3.44-2.22,5.18h.67a.5.5,0,0,0,.51-.34c.09-.22.2-.44.28-.67a.19.19,0,0,1,.21-.14h1.94l.07.14c.09.22.19.44.28.67a.5.5,0,0,0,.51.34h.66a1.16,1.16,0,0,0-.06-.15Zm-1.7,1.57.67-1.56.66,1.56Z"/><path class="cls-1" d="M34.54,14.36,34,13a.45.45,0,0,0-.37-.31,3.81,3.81,0,0,0-.48,0c-.73,1.72-1.47,3.44-2.22,5.18h.72a.48.48,0,0,0,.45-.3l.15-.35c.07-.16.14-.32.2-.49h2.11l.09.22c.09.21.18.41.26.61a.43.43,0,0,0,.37.3c.25,0,.52,0,.79,0L36,17.73Zm-1.73,1.49c.21-.52.43-1,.66-1.55.24.53.45,1,.67,1.55Z"/><path class="cls-1" d="M29.58,17H28.13V15.54h1.58v-.87H28.65a3,3,0,0,1-.52,0V13.57h1.72a.43.43,0,0,0,.37-.31,2.6,2.6,0,0,0,0-.56h-3.1v5.18h2.78a.42.42,0,0,0,.38-.34,4.64,4.64,0,0,0,0-.53Z"/><path class="cls-1" d="M25.78,16.6a.72.72,0,0,0-.43.15,1.78,1.78,0,0,1-1.52.24,1.76,1.76,0,1,1,1.22-3.29,1,1,0,0,0,.31.11.68.68,0,0,0,.73-.48l0,0L26,13.2a2.65,2.65,0,0,0-1.38-.54,2.74,2.74,0,0,0-2,.51,2.47,2.47,0,0,0-1,2.05,2.52,2.52,0,0,0,1.32,2.36,2.84,2.84,0,0,0,1.76.33A2.74,2.74,0,0,0,26,17.37a2,2,0,0,0,.39-.38A.68.68,0,0,0,25.78,16.6Z"/><path class="cls-1" d="M6.5,21.47a6.5,6.5,0,0,0,5.64-3.26C7.69,17.34,5.81,20,1.84,19.5a6.47,6.47,0,0,0,4.66,2"/><path class="cls-2" d="M6.5,8.46A6.51,6.51,0,0,0,0,15a6.93,6.93,0,0,0,.16,1.45,6.71,6.71,0,0,0,2.76-.24,7.6,7.6,0,0,1,3.13,0,2.74,2.74,0,0,1-.14-.87,2.69,2.69,0,1,1,4.27,2.18,5.45,5.45,0,0,1,2.16.36A6.4,6.4,0,0,0,13,15,6.51,6.51,0,0,0,6.5,8.46"/><path class="cls-3" d="M6.3,16.69c-2.35-.52-3.74.71-5.72.65l0,.05a3.13,3.13,0,0,0,2.19,1.28l.33,0a24.5,24.5,0,0,0,4.46-.91A2.63,2.63,0,0,1,6.3,16.69"/><path class="cls-4" d="M16.22,21.14V19.25h.4l.78,1.38V19.25h.35v1.89h-.38l-.8-1.37v1.37Z"/><path class="cls-4" d="M19.93,19.81h-.42a.44.44,0,0,0-.13-.14l-.17-.08-.19,0a.65.65,0,0,0-.44.16.69.69,0,0,0-.11.13,1.3,1.3,0,0,0-.08.17.52.52,0,0,0,0,.17.67.67,0,0,0,0,.24.6.6,0,0,0,.14.2.69.69,0,0,0,.22.16.6.6,0,0,0,.26.05.62.62,0,0,0,.32-.09.53.53,0,0,0,.23-.24H18.8v-.33H20v0a.93.93,0,0,1-.14.49,1,1,0,0,1-.37.35,1.06,1.06,0,0,1-.5.12,1,1,0,0,1-.7-.28.94.94,0,0,1-.3-.69,1,1,0,0,1,.07-.39,1.16,1.16,0,0,1,.22-.31,1.06,1.06,0,0,1,.33-.22,1,1,0,0,1,.38-.07,1,1,0,0,1,.91.59Z"/><path class="cls-4" d="M20.1,21.14l.78-1.89h.28L22,21.14h-.38l-.21-.49h-.67l-.2.49Zm.55-2,.28-.27h.2l.28.27h-.28L21,19l-.1.13Zm.17,1.18h.4l-.2-.57Z"/><path class="cls-4" d="M22.14,21.14V19.25h.4l.78,1.38V19.25h.35v1.89h-.39l-.79-1.37v1.37Z"/><path class="cls-4" d="M24.74,21.14V19.25h.35V20h.68v-.76h.35v1.89h-.35v-.79h-.68v.79Z"/><path class="cls-4" d="M26.32,21.14l.79-1.89h.27l.8,1.89h-.39l-.2-.49h-.67l-.21.49Zm.61-2.25.11-.2.42.26-.1.18Zm.12,1.42h.4l-.2-.57Z"/><path class="cls-4" d="M28.37,21.14V19.25h.39l.79,1.38V19.25h.35v1.89h-.39l-.79-1.37v1.37Z"/><path class="cls-4" d="M32.07,19.81h-.41a.62.62,0,0,0-.14-.14l-.17-.08a.63.63,0,0,0-.19,0,.65.65,0,0,0-.44.16.69.69,0,0,0-.11.13.61.61,0,0,0-.07.17.55.55,0,0,0,0,.17.52.52,0,0,0,0,.24.46.46,0,0,0,.13.2.69.69,0,0,0,.22.16.67.67,0,0,0,.59,0,.59.59,0,0,0,.23-.24h-.79v-.33h1.23v0a.93.93,0,0,1-.14.49,1,1,0,0,1-.37.35,1,1,0,0,1-.49.12,1,1,0,0,1-.39-.07,1,1,0,0,1-.32-.21.94.94,0,0,1-.3-.69.85.85,0,0,1,.08-.39.84.84,0,0,1,.22-.31,1,1,0,0,1,.32-.22,1,1,0,0,1,1.08.21A.72.72,0,0,1,32.07,19.81Z"/><path class="cls-4" d="M33.3,21.14V19.59H33v-.34h1v.34h-.35v1.55Z"/><path class="cls-4" d="M34.18,21.14V19.25h.48l.5,1.44.52-1.44h.47v1.89H35.8V19.72l-.49,1.42H35l-.49-1.42v1.42Z"/><path class="cls-4" d="M37.38,21.14V19.59H37v-.34h1v.34h-.35v1.55Z"/><path class="cls-4" d="M38.26,21.14V19.25h.4l.78,1.38V19.25h.35v1.89H39.4l-.79-1.37v1.37Z"/><path class="cls-4" d="M40.15,21.14V19.25h.35V20h.67v-.76h.35v1.89h-.35v-.79H40.5v.79Z"/><path class="cls-4" d="M41.89,21.14V19.25h.34V20h.68v-.76h.35v1.89h-.35v-.79h-.68v.79Z"/><path class="cls-4" d="M44.33,21.14V19.25h.48l.51,1.44.51-1.44h.47v1.89H46V19.72l-.48,1.42h-.3l-.49-1.42v1.42Z"/><path class="cls-4" d="M46.82,21.14V19.59h-.35v-.34h1.05v.34h-.35v1.55Z"/><path class="cls-4" d="M48.28,21.14l-.73-1.89h.36l.51,1.44.51-1.44h.37l-.73,1.89Z"/><path class="cls-4" d="M50.71,21.14h-.4v-.82h-.25v-.27h.25v-.8h.62l.2,0a.7.7,0,0,1,.19.06l.17.11a1,1,0,0,1,.24.33,1,1,0,0,1,.09.4,1.23,1.23,0,0,1,0,.2,1.18,1.18,0,0,1-.07.2,1,1,0,0,1-.1.17.67.67,0,0,1-.14.15.75.75,0,0,1-.34.18A2.65,2.65,0,0,1,50.71,21.14ZM51,20.05v.27h-.29v.48h.24l.18,0a.51.51,0,0,0,.16-.09.55.55,0,0,0,.17-.2.63.63,0,0,0,.06-.27.68.68,0,0,0,0-.19.56.56,0,0,0-.09-.17.57.57,0,0,0-.13-.14.65.65,0,0,0-.23-.09l-.31,0h0v.46Z"/><path class="cls-4" d="M51.94,21.14l.78-1.89H53l.79,1.89H53.4l-.2-.49h-.67l-.21.49Zm.72-.83h.4l-.2-.57Zm.07,1.23v-.25H53v.25Z"/><path class="cls-4" d="M54,21.14V19.25h.35v1.89Z"/><path class="cls-4" d="M55.41,21.14V19.25H56l.2,0a.6.6,0,0,1,.19.06l.17.11a.78.78,0,0,1,.24.33,1,1,0,0,1,.09.4,1.23,1.23,0,0,1,0,.2,1.18,1.18,0,0,1-.07.2,1,1,0,0,1-.1.17.5.5,0,0,1-.14.15.75.75,0,0,1-.34.18,2.65,2.65,0,0,1-.44,0Zm.35-.34H56l.18,0a.51.51,0,0,0,.16-.09.55.55,0,0,0,.17-.2.63.63,0,0,0,.06-.27.68.68,0,0,0,0-.19.56.56,0,0,0-.09-.17.57.57,0,0,0-.13-.14.65.65,0,0,0-.23-.09l-.31,0h0Z"/><path class="cls-4" d="M57.17,19.25h.35v1.18a.57.57,0,0,0,0,.14.23.23,0,0,0,0,.11.29.29,0,0,0,.1.12.28.28,0,0,0,.15,0,.28.28,0,0,0,.13,0,.36.36,0,0,0,.11-.1.56.56,0,0,0,0-.12s0-.1,0-.16V19.25h.35v.34a.1.1,0,0,0,.1-.08.73.73,0,0,0,0-.25h.19a.62.62,0,0,1-.1.34.26.26,0,0,1-.22.12v.71a1.23,1.23,0,0,1,0,.29.65.65,0,0,1-.11.22,1,1,0,0,1-.23.18.66.66,0,0,1-.27.06.62.62,0,0,1-.26-.06.73.73,0,0,1-.22-.16.47.47,0,0,1-.1-.16.55.55,0,0,1,0-.17c0-.06,0-.12,0-.2Z"/><path class="cls-4" d="M59.74,19.22h0a.9.9,0,0,1,.34.06.72.72,0,0,1,.26.14.75.75,0,0,1,.17.19c.05,0,.09,0,.12-.1a.75.75,0,0,0,0-.29h.2a1,1,0,0,1,0,.27.45.45,0,0,1-.11.17.18.18,0,0,1-.13.05,1.47,1.47,0,0,1,.1.22,1,1,0,0,1,0,.27,1,1,0,0,1-.13.5.93.93,0,0,1-.36.35,1,1,0,0,1-.49.13,1,1,0,0,1-.91-.6,1,1,0,0,1-.08-.37,1,1,0,0,1,.14-.5.93.93,0,0,1,.35-.36A1,1,0,0,1,59.74,19.22Zm.63,1a.73.73,0,0,0-.08-.33.59.59,0,0,0-.24-.23.56.56,0,0,0-.31-.09h0a.66.66,0,0,0-.32.08.67.67,0,0,0-.23.88.72.72,0,0,0,.23.23.62.62,0,0,0,.32.09.56.56,0,0,0,.31-.09.76.76,0,0,0,.24-.23A.72.72,0,0,0,60.37,20.21Z"/><path class="cls-4" d="M61,21.14V19.25h.4l.78,1.38V19.25h.35v1.89h-.39l-.79-1.37v1.37Z"/><path class="cls-4" d="M64.7,19.81h-.42a.44.44,0,0,0-.13-.14L64,19.59l-.19,0a.65.65,0,0,0-.44.16.69.69,0,0,0-.11.13,1.3,1.3,0,0,0-.08.17.55.55,0,0,0,0,.17.69.69,0,0,0,0,.24.77.77,0,0,0,.13.2.87.87,0,0,0,.23.16.58.58,0,0,0,.26.05.62.62,0,0,0,.32-.09.53.53,0,0,0,.23-.24h-.78v-.33h1.22v0a.92.92,0,0,1-.13.49,1,1,0,0,1-.37.35,1.08,1.08,0,0,1-.5.12,1,1,0,0,1-.38-.07,1,1,0,0,1-.55-.52,1,1,0,0,1-.08-.38,1,1,0,0,1,.08-.39,1.16,1.16,0,0,1,.22-.31,1,1,0,0,1,.32-.22,1,1,0,0,1,.39-.07.94.94,0,0,1,.37.07,1,1,0,0,1,.33.21A1,1,0,0,1,64.7,19.81Z"/></svg>