<svg id="Layer_1" data-name="Layer 1" xmlns="http://www.w3.org/2000/svg" xmlns:xlink="http://www.w3.org/1999/xlink" viewBox="0 0 65 30"><defs><style>.cls-1,.cls-2,.cls-3{fill-rule:evenodd;}.cls-1{fill:url(#GradientFill_1);}.cls-2{fill:url(#GradientFill_2);}.cls-3{fill:#064523;}</style><linearGradient id="GradientFill_1" x1="56.74" y1="13.15" x2="44.98" y2="4.92" gradientUnits="userSpaceOnUse"><stop offset="0" stop-color="#006941"/><stop offset="0.4" stop-color="#007b48"/><stop offset="1" stop-color="#85c441"/></linearGradient><linearGradient id="GradientFill_2" x1="49.37" y1="4.06" x2="56.33" y2="8.93" gradientUnits="userSpaceOnUse"><stop offset="0" stop-color="#006941"/><stop offset="0.3" stop-color="#007b48"/><stop offset="1" stop-color="#85c441"/></linearGradient></defs><path class="cls-1" d="M49.1,4.13c-1,.21-1.41.68-1.38,1.36a11.06,11.06,0,0,0,1.6,3.56,22,22,0,0,0,3,3.86c.93.92,1.51,1.12,2.51-.24a21.62,21.62,0,0,0,2.3-3.61A18.46,18.46,0,0,0,58,7a1.77,1.77,0,0,0-.69-2.21,2.18,2.18,0,0,1,1.23,2,6.76,6.76,0,0,1-.36,2.27,26.54,26.54,0,0,1-1.74,4.58A28,28,0,0,1,54.49,17c-1.54,2.11-3,1.43-4.75,0a18,18,0,0,1-3.05-3.32,24.62,24.62,0,0,1-2.52-4.58c-.82-2-.19-3,.82-3.63A11.24,11.24,0,0,1,49.1,4.13Z"/><path class="cls-2" d="M49.07,8.64c1.6-.24,5.76-.5,7.23.25a.83.83,0,0,1,.45,1c.15-.27.29-.54.43-.82A18.46,18.46,0,0,0,58,7a1.77,1.77,0,0,0-.69-2.21h0a5.63,5.63,0,0,0-1-.38A15.33,15.33,0,0,0,53.19,4c-.45,0-.91,0-1.38,0a23.55,23.55,0,0,0-2.71.18c-1,.21-1.41.68-1.38,1.36A9.57,9.57,0,0,0,49.07,8.64Z"/><path class="cls-3" d="M44.88,26a1.92,1.92,0,0,0,1.78-1.79,7.14,7.14,0,0,0-.09-2.88,1.75,1.75,0,0,0-.5-.85,1.91,1.91,0,0,0-1.21-.4,1.88,1.88,0,0,0-1.46.47c-.09.07-.17.1-.17,0l0-2.7-1.49,0V25.6a6.49,6.49,0,0,0,3.16.41Zm-40.1-.15c.32,0,.26,0,.45-.23a16.4,16.4,0,0,0,2.51-7.71,7.21,7.21,0,0,0-1.83.22,15.88,15.88,0,0,1-2,6.17h0a15.88,15.88,0,0,1-2-6.17A7.21,7.21,0,0,0,0,17.92a16.4,16.4,0,0,0,2.51,7.71c.19.26.13.23.45.23Zm43-5.48.14,1.36c.6-.06,1.08-.22,1.7-.26.94,0,1.53-.06,1.5.62H49c-.88,0-1.61.42-1.51,2.21.11,2.15,2.67,2,3.83,1.13v.49h1.36c0-2.2.12-4.51-.27-5.13-.76-1.19-3.23-.75-4.62-.43Zm-31.93,5.3-.15-1.33a13.48,13.48,0,0,1-2.28.25c-.71,0-1-.37-1-1.39a1.29,1.29,0,0,0,.95.45c.93,0,1.8,0,2.72,0,0-1.7.19-3.17-1.51-3.54a5.17,5.17,0,0,0-2.25.05,1.65,1.65,0,0,0-1.27,1.27c-.39,1.33-.28,3.3.58,4.06s3,.56,4.19.19Zm-2.72-4.25h.75a.67.67,0,0,1,.67.68v.3h-2.1v-.3a.68.68,0,0,1,.68-.68Zm47.8,4.49L61,23.44c0-.16.14,0,.18.11a9.79,9.79,0,0,0,1.68,2.18c.2.21.25.19.61.19H65a8.61,8.61,0,0,1-2.39-2.85c-.12-.26-.12-.23.06-.48s.51-.61.83-1L64.83,20l0,0H63.43c-.26,0-.25,0-.43.15L61.33,22a1.45,1.45,0,0,1-.19.17c-.21.15-.17.11-.17-.11l0-4.22H59.44l0,8.09Zm-35.13-.19-.13-1.32a10.63,10.63,0,0,1-2.13.16c-.73-.08-.82-.46-.82-1.05,0-.36,0-.76,0-1.11a.79.79,0,0,1,.82-.87,11.43,11.43,0,0,1,2.13.16l.13-1.32c-2.6-.61-4.22-.3-4.59,1.71a9,9,0,0,0,.07,2.21c.46,1.77,2,2,4.52,1.43Zm-8.17-5.64h-.95v1.4h1c0,.47,0,1,0,1.45v1.37a1.7,1.7,0,0,0,.45,1.37,1.18,1.18,0,0,0,.59.2,5,5,0,0,0,1.83-.13c0-.4,0-.8-.05-1.2-.58.06-1.3.18-1.3-.12V21.5h1.39V20.1H19.14V18.7H17.61v1.39ZM8.32,25.92,9.8,26l.06-5.84H8.32v5.8ZM28.48,20h1.33A1.89,1.89,0,0,1,31.7,21.9v2.23A1.89,1.89,0,0,1,29.81,26H28.48a1.89,1.89,0,0,1-1.88-1.88V21.9A1.89,1.89,0,0,1,28.48,20Zm.29,1.42a.67.67,0,0,0-.67.68v1.81a.68.68,0,0,0,.67.68h.75a.69.69,0,0,0,.68-.68V22.11a.68.68,0,0,0-.68-.68Zm5.4,4.49c0-1.48,0-3,0-4.46h1.11a.56.56,0,0,1,.59.51v4H37.4l0-4.46h1.22a.53.53,0,0,1,.6.54v3.92h1.48l0-4.21a1.45,1.45,0,0,0-1.5-1.63h-1a1.24,1.24,0,0,0-1,.4c-.22.23-.11.24-.32,0a1.41,1.41,0,0,0-1.12-.43h-.68a1.32,1.32,0,0,0-1,.46c-.25.25-.22.33-.22-.06v-.36H32.68c0,1.94,0,3.87,0,5.8Zm20.94,0c0-1.48,0-3,0-4.46h1.13a.55.55,0,0,1,.6.54v3.92h1.51l0-3.9c0-1-.39-1.94-1.62-1.94h-.69a1.32,1.32,0,0,0-1,.43c-.26.25-.25.39-.25,0v-.39H53.6c0,1.94,0,3.88,0,5.81Zm-5.63-2.51h1.65v.86c0,.36-1,.37-1.7.36-.49,0-.43,0-.45-.43,0-.16,0-.32,0-.48,0-.33.07-.31.5-.31Zm-4.29-1V24a.68.68,0,0,1-.68.68h-.76c-.53,0-.54,0-.54-.75V22.18c0-.76,0-.76.54-.76h.76a.68.68,0,0,1,.68.68Z"/></svg>