<svg id="Layer_1" data-name="Layer 1" xmlns="http://www.w3.org/2000/svg" xmlns:xlink="http://www.w3.org/1999/xlink" viewBox="0 0 65 30"><defs><style>.cls-1{fill:#005d9c;}.cls-1,.cls-2,.cls-3,.cls-4,.cls-5,.cls-6{fill-rule:evenodd;}.cls-2{fill:#fbbe12;}.cls-3{fill:url(#GradientFill_5);}.cls-4{fill:url(#GradientFill_4);}.cls-5{fill:url(#GradientFill_3);}.cls-6{fill:url(#GradientFill_3-2);}</style><linearGradient id="GradientFill_5" x1="53.24" y1="11.97" x2="48.47" y2="6.76" gradientUnits="userSpaceOnUse"><stop offset="0" stop-color="#61b9e2"/><stop offset="1" stop-color="#0062a2"/></linearGradient><linearGradient id="GradientFill_4" x1="45.8" y1="9.13" x2="48.18" y2="11.82" gradientUnits="userSpaceOnUse"><stop offset="0" stop-color="#60bbe1"/><stop offset="1" stop-color="#0062a2"/></linearGradient><linearGradient id="GradientFill_3" x1="44.44" y1="15.64" x2="58.41" y2="15.64" gradientUnits="userSpaceOnUse"><stop offset="0" stop-color="#ffdc55"/><stop offset="1" stop-color="#ee8722"/></linearGradient><linearGradient id="GradientFill_3-2" x1="56.33" y1="12.46" x2="55.46" y2="9.37" xlink:href="#GradientFill_3"/></defs><path class="cls-1" d="M8.6,14.89v-4.6c1.4-.15,2.11.58,2.24,1.93a2.58,2.58,0,0,1-.73,2.2,2.19,2.19,0,0,1-1.51.47ZM8.6,9l-2.38.24V19H8.6V16.11h1a3.57,3.57,0,0,0,2.08-6.57A6,6,0,0,0,8.6,9Z"/><polygon class="cls-1" points="13.47 9.16 16.92 19.03 18.04 19.03 19.16 19.03 22.61 9.16 19.69 9.16 18.04 15.27 16.39 9.16 13.47 9.16"/><path class="cls-2" d="M33.89,15.38a4.84,4.84,0,0,1-.22,1.45A3.39,3.39,0,0,1,33,18a2.85,2.85,0,0,1-1,.77,3.82,3.82,0,0,1-2.87,0,3,3,0,0,1-1-.77,3.37,3.37,0,0,1-.63-1.15,4.54,4.54,0,0,1-.22-1.45,4.44,4.44,0,0,1,.22-1.44,3.32,3.32,0,0,1,.63-1.14,3,3,0,0,1,1-.77A3.82,3.82,0,0,1,32,12a2.85,2.85,0,0,1,1,.77,3.34,3.34,0,0,1,.64,1.14,4.72,4.72,0,0,1,.22,1.44Zm-1.66,0a4.4,4.4,0,0,0-.1-1,2.54,2.54,0,0,0-.31-.77,1.55,1.55,0,0,0-.52-.5,1.67,1.67,0,0,0-1.47,0,1.46,1.46,0,0,0-.52.5,2.54,2.54,0,0,0-.31.77,4.9,4.9,0,0,0,0,2,2.34,2.34,0,0,0,.31.77,1.41,1.41,0,0,0,.52.51,1.47,1.47,0,0,0,.74.18,1.4,1.4,0,0,0,1.25-.69,2.34,2.34,0,0,0,.31-.77A4.37,4.37,0,0,0,32.23,15.37Z"/><path class="cls-2" d="M42,19V14.2a1,1,0,0,0-.28-.79,1,1,0,0,0-.76-.28,1.29,1.29,0,0,0-.94.34V19H38.45V14.12a1,1,0,0,0-.29-.73,1.21,1.21,0,0,0-.81-.26,2.1,2.1,0,0,0-.88.16V19H34.89V12.39A5.07,5.07,0,0,1,36,12a5.4,5.4,0,0,1,1.28-.14,3.27,3.27,0,0,1,1.27.21,2.44,2.44,0,0,1,.77.5,2.89,2.89,0,0,1,.85-.49,3.35,3.35,0,0,1,1.27-.22,2.13,2.13,0,0,1,1.65.62,2.34,2.34,0,0,1,.59,1.68V19Z"/><path class="cls-2" d="M27.14,12.13c-.18.3-.36.6-.55.9-4.14-1-3.93,5.78-.06,4.73.17.28.34.56.5.85a3.61,3.61,0,0,1-1.52.41c-2.62.15-4.09-2.24-3.47-4.61S24.89,11.34,27.14,12.13Z"/><path class="cls-2" d="M22.17,19.74V27.5h2.89c3.28,0,4-3.31,1.36-4.13,2.7-1.33,1-3.7-1.28-3.67l-3,0Zm1.69,1,1.36,0a1,1,0,0,1,.89,1c.08.87-.81,1.28-1.56,1.28h-.69V20.69Zm0,5.83V23.87h.75c.82,0,1.78.48,1.7,1.51A1.26,1.26,0,0,1,25,26.53Z"/><path class="cls-2" d="M29.17,20.77l.51.94c1-.36,3.13-.62,2.8,1.1-1.47,0-3.84.59-3.78,2.47,0,1.42,1.42,2.1,2.67,2.22l2.77-.06v-4.7a2.11,2.11,0,0,0-.77-1.83c-1.07-1-2.71-.74-4.2-.14Zm3.28,5.73h-1a1.18,1.18,0,0,1-1.08-1.24,1.43,1.43,0,0,1,1.42-1.61h.62Z"/><path class="cls-2" d="M40.78,22.69V27.5H39.1V22.59a.93.93,0,0,0-.3-.73A1.26,1.26,0,0,0,38,21.6a2.21,2.21,0,0,0-.91.16V27.5H35.4V20.86a5.36,5.36,0,0,1,1.13-.36,5.71,5.71,0,0,1,1.33-.14,3.49,3.49,0,0,1,1.31.21A2.16,2.16,0,0,1,40.78,22.69Z"/><path class="cls-2" d="M42,19.94h1.61v2.75l.11.1,2-2.28H48l-3.22,3.32,3.56,3.67H46.09l-2.32-2.66-.12-.14v2.8H42V19.94Zm1.61,2.75v.22l.11-.12Z"/><path class="cls-3" d="M58,9.36,51.23,2.5,47.85,5.92,44,9.72h0c1-.91,3.8-1.19,4.64-1.28h0A20.61,20.61,0,0,1,58,9.36Z"/><path class="cls-4" d="M48.67,12.37V8.44c-1,.1-4.75.49-5,1.86S47.75,12.27,48.67,12.37Z"/><path class="cls-5" d="M44.44,12.39l6.78,6.86,3.37-3.42L58.41,12h0c-1,.91-3.79,1.19-4.63,1.28h0A20.66,20.66,0,0,1,44.44,12.39Z"/><path class="cls-6" d="M53.78,9.38v3.93c1-.1,4.74-.49,5-1.86S54.69,9.48,53.78,9.38Z"/></svg>