<svg id="Layer_1" data-name="Layer 1" xmlns="http://www.w3.org/2000/svg" viewBox="0 0 65 30"><defs><style>.cls-1{fill:#1825aa;}.cls-2{fill:#eb0029;}</style></defs><g id="Logo"><polygon class="cls-1" points="13 16.13 13 18.13 13.44 18.13 13.44 17.48 13.59 17.34 13.59 17.34 14.38 18.13 15 18.13 13.92 17.05 13.92 17.05 14.94 16.13 14.38 16.13 13.44 16.97 13.44 16.13 13 16.13"/><path class="cls-1" d="M9.29,17.69l.21.44H10l-.88-1.87-.06-.14H8.69l-.06.14-.88,1.87h.5l.2-.44Zm-.42-.9.25.52H8.63Z"/><path class="cls-1" d="M6.78,16.12H5.5v2H6.91a.6.6,0,0,0,.59-.6.54.54,0,0,0-.25-.46.51.51,0,0,0,.12-.35A.59.59,0,0,0,6.78,16.12Zm-.84.38h.75a.22.22,0,1,1,0,.44H5.94Zm.87,1.25H5.94v-.44h.87a.22.22,0,1,1,0,.44Z"/><polygon class="cls-1" points="12 18.13 12.44 18.13 12.44 16.13 12 16.13 12 17.5 10.88 16.13 10.44 16.13 10.44 18.13 10.88 18.13 10.88 16.75 12 18.13"/><path class="cls-2" d="M10.4,12.6H5.29c-.08.33-.14.66-.19,1H9.4Z"/><path class="cls-2" d="M20.86,6.9H9.14A9.45,9.45,0,0,0,8,7.9H22A9.45,9.45,0,0,0,20.86,6.9Z"/><path class="cls-2" d="M25,14.5H5c0,.17,0,.33,0,.5s0,.33,0,.5H20V17l-5,5-3.25-3.25h-6A10,10,0,0,0,25,15C25,14.83,25,14.67,25,14.5Z"/><path class="cls-2" d="M15,5a10,10,0,0,0-4.36,1h8.72A10,10,0,0,0,15,5Z"/><path class="cls-2" d="M18.7,11.7h5.74c-.12-.34-.26-.68-.41-1H17.7Z"/><path class="cls-2" d="M16.8,9.8h6.74a9.86,9.86,0,0,0-.69-1h-7Z"/><path class="cls-2" d="M14.2,8.8h-7a9.86,9.86,0,0,0-.69,1H13.2Z"/><path class="cls-2" d="M12.3,10.7H6a8.74,8.74,0,0,0-.41,1H11.3Z"/><path class="cls-1" d="M44.37,16.5a4,4,0,1,1,3.08-6.56,15.45,15.45,0,0,1,2.1-1.37,6.5,6.5,0,1,0,0,7.86,15.52,15.52,0,0,1-2.1-1.38A4,4,0,0,1,44.37,16.5Z"/><path class="cls-1" d="M58.49,12a3.44,3.44,0,0,0-2.55-5.74H50.41a3.69,3.69,0,0,1,.22,1.25V18.75h5.62A3.75,3.75,0,0,0,58.49,12ZM53.12,8.62H55.5a1.25,1.25,0,0,1,0,2.5H53.12Zm2.75,7.75H53.12v-3h2.75a1.5,1.5,0,0,1,0,3Z"/><path class="cls-1" d="M34,11.71c-.6-.17-1.82-.43-2.73-.66-.5-.13-1.19-.49-1.19-1.24,0-.54.56-1.5,2.25-1.47A2.07,2.07,0,0,1,34.55,10,16.06,16.06,0,0,1,37,9.21,4.55,4.55,0,0,0,32.36,6a5.29,5.29,0,0,0-3.12.89A3.59,3.59,0,0,0,27.61,9.8a3.38,3.38,0,0,0,1.88,3,14.8,14.8,0,0,0,3.11,1,5.06,5.06,0,0,1,1.95.66.93.93,0,0,1,.31.75c0,.77-.84,1.48-2.31,1.48-1.86,0-2.52-.89-2.61-1.65a15.79,15.79,0,0,1-2.44.79,4.33,4.33,0,0,0,1.67,2.25,5.66,5.66,0,0,0,3.38.94c2.82,0,4.81-1.75,4.81-3.94C37.36,12.56,34.86,12,34,11.71Z"/><polygon class="cls-1" points="33.06 20.81 33.31 21 33.75 21 33.25 20.56 32.88 20.56 32.38 21 32.81 21 33.06 20.81"/><polygon class="cls-1" points="56.94 21 56.5 20.56 55.94 20.56 56.5 21 56.94 21"/><polygon class="cls-1" points="50.75 21 50.31 20.56 49.75 20.56 50.31 21 50.75 21"/><polygon class="cls-1" points="41.13 21 40.69 20.56 40.13 20.56 40.69 21 41.13 21"/><path class="cls-1" d="M32.75,21.25l-.84,2.5h.55l.2-.62h.81l.19.62h.55l-.83-2.5Zm0,1.44.27-.88.27.88Z"/><path class="cls-1" d="M40.5,21.25l-.84,2.5h.55l.2-.62h.81l.19.62H42l-.83-2.5Zm0,1.44.27-.88.27.88Z"/><path class="cls-1" d="M50.12,21.25l-.83,2.5h.55l.19-.62h.81l.2.62h.55l-.84-2.5Zm.05,1.44.27-.88.27.88Z"/><polygon class="cls-1" points="29 22.81 27.94 21.25 27.5 21.25 27.5 23.75 28 23.75 28 22.19 29.06 23.75 29.5 23.75 29.5 21.25 29 21.25 29 22.81"/><polygon class="cls-1" points="35.88 22.81 34.81 21.25 34.38 21.25 34.38 23.75 34.88 23.75 34.88 22.19 35.94 23.75 36.38 23.75 36.38 21.25 35.88 21.25 35.88 22.81"/><polygon class="cls-1" points="43.62 22.81 42.56 21.25 42.12 21.25 42.12 23.75 42.62 23.75 42.62 22.19 43.69 23.75 44.12 23.75 44.12 21.25 43.62 21.25 43.62 22.81"/><polygon class="cls-1" points="59.5 21.25 59.5 22.81 58.44 21.25 58 21.25 58 23.75 58.5 23.75 58.5 22.19 59.56 23.75 60 23.75 60 21.25 59.5 21.25"/><path class="cls-1" d="M30.87,21.68c.32,0,.44.13.48.38h.52a.9.9,0,0,0-1-.86c-.75,0-1.06.49-1.06,1.18v.25c0,.68.31,1.17,1.06,1.17a.9.9,0,0,0,1-.91v-.51h-1v.43h.5v.09c0,.25-.17.43-.5.43s-.52-.27-.52-.7v-.25C30.35,21.88,30.52,21.68,30.87,21.68Z"/><path class="cls-1" d="M45.5,21.68c.31,0,.44.13.47.38h.53a.91.91,0,0,0-1-.86c-.75,0-1.06.49-1.06,1.18v.25c0,.68.31,1.17,1.06,1.17a.9.9,0,0,0,1-.91v-.51h-1v.43H46v.09c0,.25-.18.43-.5.43s-.53-.27-.53-.7v-.25C45,21.88,45.15,21.68,45.5,21.68Z"/><path class="cls-1" d="M54.25,21.68c.31,0,.44.13.47.38h.53a.91.91,0,0,0-1-.86c-.75,0-1.06.49-1.06,1.18v.25c0,.68.31,1.17,1.06,1.17a.9.9,0,0,0,1-.91v-.51h-1v.43h.5v.09c0,.25-.18.43-.5.43s-.53-.27-.53-.7v-.25C53.72,21.88,53.9,21.68,54.25,21.68Z"/><polygon class="cls-1" points="39 22.25 38 22.25 38 21.25 37.5 21.25 37.5 23.75 38 23.75 38 22.69 39 22.69 39 23.75 39.5 23.75 39.5 21.25 39 21.25 39 22.25"/><path class="cls-1" d="M48.6,22.29l-.38-.08c-.22-.05-.35-.14-.35-.29s.18-.3.44-.3.43.14.43.32h.5c0-.44-.37-.74-.94-.74s-.95.25-.95.75a.72.72,0,0,0,.65.71l.37.09c.26.05.38.13.38.31s-.16.31-.48.31-.47-.12-.47-.31h-.51c0,.34.23.74,1,.74s1-.3,1-.8S49,22.37,48.6,22.29Z"/><rect class="cls-1" x="51.75" y="21.25" width="0.5" height="2.5"/><path class="cls-1" d="M56.62,21.2c-.68,0-1.06.42-1.06,1.17v.26c0,.75.38,1.17,1.06,1.17s1.07-.42,1.07-1.17v-.26C57.69,21.62,57.31,21.2,56.62,21.2Zm.54,1.43c0,.49-.22.7-.54.7s-.53-.21-.53-.7v-.26c0-.49.22-.69.53-.69s.54.2.54.69Z"/></g></svg>