<svg width="68" height="24" viewBox="0 0 68 24" fill="none" xmlns="http://www.w3.org/2000/svg">
    <g clip-path="url(#clip0_793_382)">
    <path d="M22.5904 18.6007C22.5986 18.6107 22.6089 18.6187 22.6206 18.6242C22.6323 18.6297 22.6451 18.6325 22.658 18.6324H23.3804C23.3965 18.6325 23.4122 18.6282 23.4259 18.6199C23.4397 18.6116 23.4508 18.5996 23.4582 18.5854C23.4652 18.5709 23.4681 18.5547 23.4667 18.5387C23.4652 18.5227 23.4595 18.5073 23.45 18.4943L22.7552 17.5549C22.7472 17.5438 22.7368 17.5348 22.7247 17.5286C22.7126 17.5224 22.6992 17.5191 22.6856 17.5191H21.8987C21.8822 17.519 21.8662 17.5237 21.8524 17.5326C21.8385 17.5415 21.8276 17.5542 21.8209 17.5692C21.8136 17.5839 21.8107 17.6004 21.8125 17.6168C21.8144 17.6331 21.8208 17.6485 21.8311 17.6613L22.5904 18.6007Z" fill="#1F2B7B"/>
    <path d="M39.718 17.8261C39.7271 17.8418 39.7412 17.8542 39.7579 17.8614C39.7747 17.8686 39.7933 17.8702 39.8111 17.866C39.9212 17.8356 40.0346 17.8187 40.1488 17.8158C40.2511 17.8158 40.2839 17.8363 40.288 17.8404C40.292 17.8445 40.2931 17.8404 40.2931 17.8578C40.2933 17.8643 40.2918 17.8708 40.2888 17.8765C40.2857 17.8823 40.2812 17.8871 40.2757 17.8905C40.229 17.9235 40.178 17.95 40.1242 17.9693C40.0477 17.9993 39.9747 18.0374 39.9063 18.0829C39.8462 18.1294 39.7985 18.1898 39.7671 18.2589C39.7271 18.3504 39.7082 18.4498 39.7118 18.5495C39.7118 18.5718 39.7207 18.5931 39.7364 18.6089C39.7521 18.6246 39.7735 18.6335 39.7957 18.6335H40.2613C40.2838 18.6324 40.3049 18.6226 40.3202 18.6061C40.3355 18.5897 40.3438 18.5679 40.3432 18.5454C40.3717 18.5264 40.4014 18.5093 40.4322 18.4943C40.5778 18.4365 40.7126 18.3549 40.8313 18.2528C40.8788 18.1992 40.9149 18.1366 40.9376 18.0687C40.9603 18.0009 40.969 17.9291 40.9633 17.8578C40.9633 17.561 40.8293 17.208 40.1887 17.208C39.9665 17.2049 39.7462 17.2484 39.542 17.3359C39.5311 17.3403 39.5213 17.3471 39.5133 17.3558C39.5054 17.3645 39.4994 17.3748 39.4959 17.386C39.4922 17.3972 39.4909 17.4089 39.4922 17.4206C39.4934 17.4322 39.4971 17.4435 39.5031 17.4536L39.718 17.8261Z" fill="#1F2B7B"/>
    <path d="M52.6566 17.6756C52.5565 17.6201 52.4414 17.5979 52.3278 17.6123C52.2143 17.6266 52.1083 17.6768 52.0252 17.7555C51.9754 17.8016 51.9358 17.8577 51.909 17.9201C51.8822 17.9825 51.8688 18.0498 51.8697 18.1177C51.8689 18.1858 51.8823 18.2533 51.9089 18.316C51.9355 18.3787 51.9747 18.4352 52.0242 18.482C52.1238 18.5784 52.257 18.6323 52.3957 18.6323C52.5343 18.6323 52.6675 18.5784 52.7671 18.482C52.8493 18.4028 52.9022 18.298 52.9172 18.1849C52.9323 18.0717 52.9086 17.9568 52.85 17.8588C52.8031 17.7815 52.7363 17.7183 52.6566 17.6756Z" fill="#1F2B7B"/>
    <path d="M53.873 18.6324H54.6118C54.6255 18.6324 54.6389 18.6292 54.6512 18.6232C54.6634 18.6171 54.6741 18.6084 54.6825 18.5976L55.014 18.1443L55.3456 18.5976C55.3537 18.6084 55.3642 18.6171 55.3763 18.6231C55.3884 18.6292 55.4017 18.6324 55.4152 18.6324H56.154C56.1704 18.6325 56.1865 18.628 56.2005 18.6193C56.2144 18.6106 56.2256 18.5981 56.2328 18.5833C56.2397 18.5684 56.2423 18.5519 56.2403 18.5357C56.2383 18.5194 56.2318 18.504 56.2215 18.4912L55.4561 17.5518C55.4478 17.5419 55.4375 17.5339 55.4258 17.5284C55.4142 17.523 55.4014 17.5201 55.3885 17.5201H54.6446C54.6317 17.5199 54.6189 17.5226 54.6072 17.5281C54.5955 17.5336 54.5852 17.5417 54.5771 17.5518L53.8116 18.4912C53.8011 18.5038 53.7943 18.5191 53.7922 18.5354C53.7901 18.5517 53.7927 18.5682 53.7997 18.5831C53.8067 18.598 53.8178 18.6105 53.8317 18.6192C53.8456 18.628 53.8617 18.6326 53.8781 18.6324H53.873Z" fill="#1F2B7B"/>
    <path d="M8.89034 18.6324H9.62917C9.64266 18.6324 9.65595 18.6292 9.66802 18.6231C9.68009 18.6171 9.6906 18.6084 9.69876 18.5976L10.0283 18.1443L10.3598 18.5976C10.368 18.6084 10.3785 18.6171 10.3906 18.6231C10.4026 18.6292 10.4159 18.6324 10.4294 18.6324H11.1682C11.1847 18.6326 11.2008 18.628 11.2147 18.6192C11.2286 18.6105 11.2397 18.598 11.2467 18.5831C11.2537 18.5683 11.2563 18.5517 11.2542 18.5354C11.252 18.5191 11.2453 18.5038 11.2347 18.4912L10.4693 17.5518C10.4613 17.5419 10.4512 17.5339 10.4397 17.5284C10.4282 17.5229 10.4156 17.52 10.4028 17.5201H9.65578C9.64302 17.52 9.63042 17.5229 9.6189 17.5284C9.60739 17.5339 9.59726 17.5419 9.58926 17.5518L8.82383 18.4912C8.81327 18.5038 8.80654 18.5191 8.80443 18.5354C8.80231 18.5517 8.80491 18.5683 8.81191 18.5831C8.8189 18.598 8.83001 18.6105 8.84391 18.6192C8.85781 18.628 8.87392 18.6326 8.89034 18.6324Z" fill="#1F2B7B"/>
    <path d="M3.85253 17.8056H2.96737C2.94198 17.8068 2.91797 17.8175 2.9 17.8355C2.88203 17.8534 2.87139 17.8774 2.87015 17.9028V20.4283L0.989307 17.8414C0.97994 17.8296 0.967914 17.8203 0.954217 17.814C0.94052 17.8078 0.925542 17.8049 0.910512 17.8056H0.102097C0.076715 17.8068 0.0527023 17.8175 0.0347329 17.8355C0.0167635 17.8534 0.00612315 17.8774 0.00488281 17.9028V22.1833C0.00488281 22.2105 0.0156641 22.2365 0.0348549 22.2557C0.0540457 22.2749 0.080074 22.2857 0.107214 22.2857H0.984191C1.01133 22.2857 1.03736 22.2749 1.05655 22.2557C1.07574 22.2365 1.08652 22.2105 1.08652 22.1833V19.6772L2.96532 22.2355C2.97464 22.2476 2.98655 22.2575 3.00019 22.2644C3.01383 22.2713 3.02883 22.2751 3.04411 22.2754H3.86276C3.8899 22.2754 3.91593 22.2646 3.93512 22.2455C3.95431 22.2263 3.96509 22.2002 3.96509 22.1731V17.8987C3.96394 17.8852 3.9601 17.872 3.95379 17.8599C3.94749 17.8479 3.93884 17.8372 3.92836 17.8285C3.91788 17.8199 3.90577 17.8134 3.89275 17.8094C3.87973 17.8055 3.86606 17.8042 3.85253 17.8056Z" fill="#1F2B7B"/>
    <path d="M7.80274 19.0244H6.94623C6.91909 19.0244 6.89306 19.0351 6.87387 19.0543C6.85468 19.0735 6.8439 19.0996 6.8439 19.1267V19.2382C6.58712 19.0492 6.27656 18.9474 5.95771 18.9476C5.76194 18.9443 5.568 18.9857 5.39066 19.0687C5.21332 19.1517 5.05727 19.2741 4.9344 19.4265C4.66614 19.7526 4.5251 20.1649 4.53736 20.587C4.52591 21.0097 4.66642 21.4225 4.93338 21.7505C5.05679 21.904 5.21376 22.0272 5.39222 22.1106C5.57068 22.1939 5.76589 22.2353 5.96283 22.2314C6.28235 22.2308 6.59314 22.127 6.84902 21.9357V22.0298C6.84902 22.2468 6.81525 22.431 6.69654 22.5149C6.51235 22.6459 6.12554 22.6367 5.63742 22.478C5.40407 22.4006 5.17998 22.2976 4.9692 22.171C4.95477 22.1637 4.93883 22.16 4.92267 22.16C4.9065 22.1601 4.89058 22.1639 4.87621 22.1713C4.86183 22.1787 4.84941 22.1894 4.83996 22.2025C4.83051 22.2156 4.8243 22.2308 4.82184 22.2468L4.76453 22.8863C4.76354 22.9032 4.76676 22.9201 4.7739 22.9355C4.78105 22.9509 4.79189 22.9642 4.80547 22.9743C5.24858 23.2941 5.78072 23.4669 6.32713 23.4686C6.74056 23.4892 7.14632 23.3516 7.46198 23.0838C7.75362 22.8249 7.90098 22.4381 7.90098 21.9347V19.1206C7.89947 19.0952 7.88858 19.0713 7.87042 19.0535C7.85226 19.0357 7.82814 19.0253 7.80274 19.0244ZM6.51951 19.9453C6.6394 19.9953 6.75036 20.0644 6.84799 20.15V21.0423C6.75104 21.1302 6.63999 21.2011 6.51951 21.2521C6.19614 21.3892 5.91371 21.3616 5.75203 21.1498C5.64286 20.9865 5.5897 20.7922 5.60058 20.5962C5.5967 20.4565 5.62035 20.3174 5.67016 20.1868C5.70623 20.0887 5.77071 20.0036 5.85538 19.9423C5.94058 19.8843 6.04199 19.8549 6.14498 19.8584C6.27448 19.8622 6.40187 19.8921 6.51951 19.9464V19.9453Z" fill="#1F2B7B"/>
    <path d="M32.0165 19.0244H31.16C31.1338 19.0257 31.109 19.037 31.0909 19.0561C31.0728 19.0751 31.0628 19.1004 31.0628 19.1267V19.2382C30.8055 19.0494 30.4947 18.9476 30.1756 18.9476C29.979 18.9435 29.784 18.9845 29.6057 19.0676C29.4274 19.1506 29.2706 19.2734 29.1472 19.4265C28.8814 19.7525 28.7422 20.1635 28.7552 20.5839C28.7434 21.0065 28.8836 21.4193 29.1502 21.7474C29.2736 21.9009 29.4306 22.0241 29.6091 22.1075C29.7875 22.1909 29.9827 22.2322 30.1797 22.2283C30.4995 22.2275 30.8106 22.1238 31.0669 21.9326V22.0267C31.0669 22.2437 31.0321 22.4279 30.9134 22.5118C30.7292 22.6428 30.3434 22.6336 29.8543 22.475C29.6209 22.3975 29.3968 22.2945 29.186 22.168C29.1716 22.1607 29.1557 22.1569 29.1395 22.1569C29.1234 22.157 29.1074 22.1609 29.0931 22.1682C29.0787 22.1756 29.0663 22.1863 29.0568 22.1994C29.0474 22.2125 29.0412 22.2277 29.0387 22.2437L28.9814 22.8833C28.9799 22.9003 28.983 22.9175 28.9904 22.933C28.9978 22.9484 29.0091 22.9617 29.0233 22.9713C29.4661 23.291 29.9979 23.4638 30.544 23.4655C30.9574 23.4861 31.3632 23.3485 31.6788 23.0808C31.9705 22.8219 32.1178 22.435 32.1178 21.9316V19.1175C32.1155 19.0921 32.1039 19.0686 32.0852 19.0513C32.0664 19.0341 32.042 19.0245 32.0165 19.0244ZM30.7333 19.9453C30.8534 19.9955 30.9646 20.0646 31.0628 20.15V21.0423C30.9653 21.13 30.854 21.2009 30.7333 21.2521C30.4099 21.3892 30.1275 21.3616 29.9658 21.1498C29.8566 20.9865 29.8035 20.7922 29.8144 20.5962C29.8105 20.4565 29.8341 20.3174 29.8839 20.1868C29.92 20.0887 29.9845 20.0036 30.0692 19.9423C30.1544 19.8843 30.2558 19.8549 30.3588 19.8584C30.4883 19.8621 30.6157 19.892 30.7333 19.9464V19.9453Z" fill="#1F2B7B"/>
    <path d="M11.6113 19.0244H10.7559C10.7287 19.0244 10.7027 19.0351 10.6835 19.0543C10.6643 19.0735 10.6535 19.0995 10.6535 19.1267V19.2382C10.3999 19.0405 10.0879 18.9326 9.76632 18.9312C9.56836 18.9286 9.37256 18.9726 9.19478 19.0597C9.017 19.1468 8.86223 19.2746 8.74301 19.4327C8.47459 19.778 8.33492 20.2061 8.34801 20.6432C8.34438 20.9369 8.4037 21.2279 8.52197 21.4967C8.62981 21.7458 8.80264 21.9614 9.02237 22.1209C9.23897 22.2766 9.4996 22.359 9.76632 22.3563C10.0879 22.3549 10.3999 22.2469 10.6535 22.0493V22.169C10.6535 22.1961 10.6643 22.2222 10.6835 22.2413C10.7027 22.2605 10.7287 22.2713 10.7559 22.2713H11.6113C11.6385 22.2713 11.6645 22.2605 11.6837 22.2413C11.7029 22.2222 11.7137 22.1961 11.7137 22.169V19.1216C11.7124 19.0953 11.701 19.0706 11.682 19.0525C11.6629 19.0344 11.6376 19.0243 11.6113 19.0244ZM9.4143 20.6504C9.40273 20.4411 9.45636 20.2334 9.5678 20.0559C9.60977 19.9909 9.66782 19.9379 9.73632 19.9021C9.80482 19.8662 9.88143 19.8487 9.9587 19.8512C10.0848 19.8546 10.2089 19.8843 10.323 19.9382C10.4449 19.9929 10.5571 20.0668 10.6556 20.1572V21.1375C10.5916 21.1973 10.5208 21.2495 10.4448 21.293C10.364 21.3407 10.2777 21.3785 10.1879 21.4056C10.1033 21.4388 10.0119 21.4513 9.92139 21.4418C9.83093 21.4324 9.74406 21.4014 9.66808 21.3514C9.58059 21.2831 9.51569 21.19 9.48184 21.0843C9.43457 20.9446 9.41172 20.7978 9.4143 20.6504Z" fill="#1F2B7B"/>
    <path d="M14.8882 19.0694C14.7056 18.9846 14.507 18.9401 14.3057 18.9389C14.1044 18.9377 13.9052 18.9797 13.7216 19.0622C13.5818 19.1187 13.45 19.1933 13.3297 19.2843V19.1216C13.3297 19.0944 13.3189 19.0684 13.2997 19.0492C13.2805 19.03 13.2545 19.0192 13.2273 19.0192H12.3719C12.3447 19.0192 12.3187 19.03 12.2995 19.0492C12.2803 19.0684 12.2695 19.0944 12.2695 19.1216V22.1792C12.2695 22.2064 12.2803 22.2324 12.2995 22.2516C12.3187 22.2708 12.3447 22.2816 12.3719 22.2816H13.2273C13.2545 22.2816 13.2805 22.2708 13.2997 22.2516C13.3189 22.2324 13.3297 22.2064 13.3297 22.1792V20.1326C13.5235 19.9726 13.7633 19.8787 14.0143 19.8645C14.0673 19.8606 14.1206 19.8677 14.1708 19.8853C14.2209 19.9029 14.267 19.9306 14.3059 19.9668C14.3439 20.0121 14.3725 20.0644 14.39 20.1208C14.4076 20.1772 14.4138 20.2365 14.4083 20.2953V22.1782C14.4082 22.2045 14.4183 22.2298 14.4364 22.2488C14.4545 22.2679 14.4792 22.2792 14.5055 22.2805H15.362C15.3891 22.2805 15.4151 22.2697 15.4343 22.2506C15.4535 22.2314 15.4643 22.2053 15.4643 22.1782V20.1858C15.4707 19.9454 15.4157 19.7073 15.3047 19.4941C15.2119 19.3137 15.0667 19.1657 14.8882 19.0694Z" fill="#1F2B7B"/>
    <path d="M19.5666 18.9384C19.2051 18.9391 18.8542 19.0609 18.5699 19.2843V17.8987C18.5686 17.8725 18.5572 17.8478 18.5382 17.8297C18.5191 17.8116 18.4939 17.8015 18.4676 17.8015H17.6121C17.5858 17.8015 17.5605 17.8116 17.5415 17.8297C17.5224 17.8478 17.5111 17.8725 17.5098 17.8987V22.1792C17.5098 22.2064 17.5205 22.2324 17.5397 22.2516C17.5589 22.2708 17.585 22.2816 17.6121 22.2816H18.4676C18.4947 22.2816 18.5208 22.2708 18.5399 22.2516C18.5591 22.2324 18.5699 22.2064 18.5699 22.1792V20.1326C18.759 19.9728 18.995 19.879 19.2422 19.8655C19.2998 19.8604 19.3578 19.8683 19.4119 19.8887C19.4661 19.909 19.5149 19.9412 19.5549 19.983C19.5949 20.0247 19.625 20.0749 19.6429 20.1299C19.6609 20.1848 19.6663 20.2431 19.6587 20.3004V22.1833C19.6587 22.2096 19.6688 22.2349 19.6869 22.2539C19.705 22.273 19.7297 22.2843 19.7559 22.2857H20.6124C20.6387 22.2843 20.6634 22.273 20.6815 22.2539C20.6996 22.2349 20.7097 22.2096 20.7097 22.1833V20.1858C20.7097 19.7857 20.6002 19.4746 20.3842 19.2648C20.2771 19.158 20.1494 19.074 20.0089 19.0179C19.8683 18.9618 19.7179 18.9347 19.5666 18.9384Z" fill="#1F2B7B"/>
    <path d="M24.4336 19.0244H23.5781C23.5509 19.0244 23.5249 19.0351 23.5057 19.0543C23.4865 19.0735 23.4757 19.0996 23.4757 19.1267V19.2382C23.2225 19.0406 22.9108 18.9326 22.5896 18.9312C22.3916 18.9287 22.1958 18.9727 22.0181 19.0598C21.8403 19.147 21.6855 19.2747 21.5663 19.4327C21.2978 19.778 21.1582 20.2061 21.1713 20.6432C21.1677 20.9369 21.227 21.2279 21.3452 21.4967C21.4531 21.7458 21.6259 21.9614 21.8456 22.1209C22.0625 22.2768 22.3235 22.3592 22.5906 22.3563C22.9118 22.3549 23.2235 22.2469 23.4768 22.0493V22.169C23.4768 22.1961 23.4876 22.2222 23.5067 22.2414C23.5259 22.2605 23.552 22.2713 23.5791 22.2713H24.4346C24.4617 22.2713 24.4878 22.2605 24.5069 22.2414C24.5261 22.2222 24.5369 22.1961 24.5369 22.169V19.1216C24.5356 19.0952 24.5241 19.0703 24.5048 19.0521C24.4856 19.034 24.46 19.0241 24.4336 19.0244ZM22.3082 20.2145C22.3442 20.109 22.409 20.0158 22.4954 19.9453C22.578 19.8837 22.679 19.852 22.7819 19.8553C22.9081 19.8587 23.0321 19.8884 23.1462 19.9423C23.2681 19.997 23.3804 20.0709 23.4788 20.1613V21.1416C23.4148 21.2014 23.3441 21.2536 23.268 21.2971C23.1872 21.3448 23.101 21.3826 23.0112 21.4097C22.9267 21.4429 22.8354 21.4554 22.7451 21.4459C22.6548 21.4365 22.5681 21.4055 22.4923 21.3555C22.4048 21.287 22.3396 21.194 22.3051 21.0884C22.2573 20.9474 22.2345 20.7992 22.2375 20.6504C22.2345 20.502 22.2585 20.3543 22.3082 20.2145Z" fill="#1F2B7B"/>
    <path d="M27.7103 19.0694C27.5277 18.9846 27.329 18.9401 27.1278 18.9389C26.9265 18.9377 26.7273 18.9797 26.5437 19.0622C26.4039 19.1187 26.2721 19.1933 26.1518 19.2843V19.1216C26.1518 19.0953 26.1417 19.07 26.1236 19.051C26.1055 19.0319 26.0808 19.0206 26.0545 19.0192H25.198C25.1709 19.0192 25.1449 19.03 25.1257 19.0492C25.1065 19.0684 25.0957 19.0944 25.0957 19.1216V22.1792C25.0957 22.2064 25.1065 22.2324 25.1257 22.2516C25.1449 22.2708 25.1709 22.2816 25.198 22.2816H26.0545C26.0808 22.2802 26.1055 22.2689 26.1236 22.2498C26.1417 22.2308 26.1518 22.2055 26.1518 22.1792V20.1326C26.3459 19.9725 26.5861 19.8786 26.8374 19.8645C26.8904 19.8608 26.9436 19.8679 26.9938 19.8855C27.0439 19.9031 27.0899 19.9308 27.129 19.9668C27.2053 20.0585 27.2421 20.1766 27.2313 20.2953V22.1782C27.2313 22.2053 27.2421 22.2314 27.2613 22.2506C27.2805 22.2697 27.3065 22.2805 27.3337 22.2805H28.1892C28.2163 22.2805 28.2423 22.2697 28.2615 22.2506C28.2807 22.2314 28.2915 22.2053 28.2915 22.1782V20.1858C28.2979 19.9454 28.2429 19.7073 28.1319 19.4941C28.0374 19.3132 27.8904 19.1652 27.7103 19.0694Z" fill="#1F2B7B"/>
    <path d="M37.3352 19.8614C37.45 19.7603 37.5408 19.635 37.6012 19.4945C37.6616 19.3539 37.6899 19.2018 37.6842 19.0489C37.6898 18.8796 37.6587 18.7111 37.5929 18.5549C37.5272 18.3988 37.4285 18.2587 37.3035 18.1443C37.0475 17.9146 36.7131 17.7919 36.3692 17.8015H34.4065C34.3803 17.8015 34.355 17.8115 34.3359 17.8296C34.3169 17.8477 34.3055 17.8725 34.3042 17.8987V22.1792C34.3042 22.2064 34.315 22.2324 34.3342 22.2516C34.3534 22.2708 34.3794 22.2816 34.4065 22.2816H36.5708C36.9421 22.2919 37.303 22.1589 37.5788 21.9101C37.7131 21.7871 37.8192 21.6366 37.8898 21.4688C37.9605 21.301 37.994 21.1199 37.9881 20.938C37.9982 20.6808 37.9198 20.428 37.7661 20.2216C37.6532 20.069 37.5055 19.9455 37.3352 19.8614ZM35.4155 20.4243H36.4296C36.489 20.4218 36.5483 20.4316 36.6038 20.4531C36.6592 20.4746 36.7097 20.5073 36.752 20.5491C36.832 20.645 36.8759 20.7659 36.8759 20.8909C36.8759 21.0158 36.832 21.1368 36.752 21.2327C36.7093 21.2738 36.6587 21.3057 36.6033 21.3267C36.5479 21.3476 36.4888 21.3571 36.4296 21.3544H35.4206L35.4155 20.4243ZM36.4532 19.4255C36.417 19.4604 36.3742 19.4874 36.3272 19.505C36.2802 19.5226 36.23 19.5304 36.1799 19.5278H35.4155V18.7266H36.1799C36.2304 18.7236 36.2809 18.7312 36.3283 18.7488C36.3757 18.7664 36.4189 18.7937 36.4552 18.8289C36.4912 18.8695 36.5188 18.9168 36.5363 18.968C36.5539 19.0193 36.5611 19.0736 36.5575 19.1277C36.5614 19.1819 36.5541 19.2362 36.5362 19.2874C36.5182 19.3386 36.49 19.3856 36.4532 19.4255Z" fill="#1F2B7B"/>
    <path d="M41.6097 19.0244H40.7532C40.7269 19.0257 40.7022 19.037 40.6841 19.0561C40.666 19.0751 40.6559 19.1004 40.6559 19.1267V19.2382C40.4023 19.0406 40.0903 18.9326 39.7687 18.9312C39.5708 18.9288 39.3751 18.973 39.1974 19.0601C39.0196 19.1472 38.8648 19.2748 38.7454 19.4327C38.4894 19.7846 38.3516 20.2086 38.3516 20.6438C38.3516 21.0789 38.4894 21.5029 38.7454 21.8548C38.8649 22.0127 39.0197 22.1402 39.1974 22.2273C39.3751 22.3144 39.5708 22.3586 39.7687 22.3563C40.0903 22.3549 40.4023 22.247 40.6559 22.0493V22.169C40.6559 22.1953 40.666 22.2206 40.6841 22.2396C40.7022 22.2587 40.7269 22.27 40.7532 22.2713H41.6097C41.6359 22.27 41.6607 22.2587 41.6787 22.2396C41.6968 22.2206 41.7069 22.1953 41.7069 22.169V19.1216C41.7056 19.0962 41.695 19.0722 41.677 19.0542C41.6591 19.0362 41.6351 19.0256 41.6097 19.0244ZM39.4136 20.6504C39.4027 20.4412 39.4563 20.2337 39.5671 20.0559C39.6093 19.9911 39.6673 19.9382 39.7358 19.9024C39.8043 19.8665 39.8808 19.8489 39.9581 19.8512C40.0842 19.8545 40.2083 19.8841 40.3224 19.9382C40.4447 19.9935 40.5573 20.0682 40.6559 20.1592V21.1385C40.557 21.2286 40.4444 21.3026 40.3224 21.3575C40.0614 21.4731 39.8301 21.4742 39.6685 21.3575C39.581 21.289 39.5158 21.196 39.4812 21.0904C39.4337 20.9487 39.4109 20.7999 39.4136 20.6504Z" fill="#1F2B7B"/>
    <path d="M44.8867 19.0694C44.704 18.9846 44.5051 18.9401 44.3037 18.9389C44.1023 18.9376 43.9029 18.9797 43.7191 19.0622C43.5795 19.1185 43.448 19.1931 43.3282 19.2843V19.1216C43.3282 19.0944 43.3174 19.0684 43.2982 19.0492C43.2791 19.03 43.253 19.0192 43.2259 19.0192H42.3704C42.3433 19.0192 42.3172 19.03 42.298 19.0492C42.2788 19.0684 42.2681 19.0944 42.2681 19.1216V22.1792C42.2681 22.2064 42.2788 22.2324 42.298 22.2516C42.3172 22.2708 42.3433 22.2816 42.3704 22.2816H43.2259C43.253 22.2816 43.2791 22.2708 43.2982 22.2516C43.3174 22.2324 43.3282 22.2064 43.3282 22.1792V20.1326C43.522 19.9726 43.7619 19.8787 44.0128 19.8645C44.0658 19.8607 44.1191 19.8678 44.1692 19.8854C44.2194 19.903 44.2654 19.9307 44.3045 19.9668C44.3424 20.0121 44.371 20.0644 44.3886 20.1208C44.4061 20.1772 44.4123 20.2365 44.4068 20.2953V22.1782C44.4068 22.2045 44.4168 22.2298 44.4349 22.2488C44.453 22.2679 44.4778 22.2792 44.504 22.2805H45.3605C45.3868 22.2792 45.4115 22.2679 45.4296 22.2488C45.4477 22.2298 45.4578 22.2045 45.4577 22.1782V20.1858C45.4644 19.9455 45.4098 19.7074 45.2991 19.4941C45.2074 19.3143 45.0637 19.1663 44.8867 19.0694Z" fill="#1F2B7B"/>
    <path d="M51.4478 17.8056H50.4634C50.4429 17.8062 50.4231 17.813 50.4064 17.825C50.3898 17.8371 50.3772 17.8538 50.3703 17.8731L49.4114 20.8233L48.4464 17.8731C48.4395 17.8538 48.4269 17.8371 48.4103 17.825C48.3937 17.813 48.3738 17.8062 48.3533 17.8056H47.3689C47.3537 17.8066 47.3388 17.8109 47.3255 17.8183C47.3121 17.8258 47.3006 17.8361 47.2918 17.8486C47.283 17.861 47.277 17.8753 47.2744 17.8904C47.2718 17.9054 47.2727 17.9209 47.2768 17.9356L48.7934 22.2161C48.8006 22.2348 48.8132 22.251 48.8295 22.2627C48.8459 22.2743 48.8654 22.2809 48.8854 22.2816H49.9313C49.9514 22.2809 49.9708 22.2743 49.9872 22.2627C50.0036 22.251 50.0161 22.2348 50.0234 22.2161L51.5399 17.9356C51.5454 17.9209 51.5471 17.905 51.5449 17.8895C51.5428 17.874 51.5369 17.8592 51.5276 17.8465C51.5183 17.8341 51.5063 17.824 51.4925 17.8169C51.4786 17.8098 51.4634 17.8059 51.4478 17.8056Z" fill="#1F2B7B"/>
    <path d="M52.8234 19.0244H51.9668C51.9132 19.0244 51.8696 19.0679 51.8696 19.1216V22.1803C51.8696 22.2339 51.9132 22.2775 51.9668 22.2775H52.8234C52.877 22.2775 52.9206 22.2339 52.9206 22.1803V19.1216C52.9206 19.0679 52.877 19.0244 52.8234 19.0244Z" fill="#1F2B7B"/>
    <path d="M55.2752 22.5128C55.1955 22.4682 55.1056 22.4449 55.0143 22.4453C54.8759 22.4433 54.7423 22.4963 54.6428 22.5926C54.5933 22.639 54.554 22.6951 54.5274 22.7575C54.5008 22.8199 54.4875 22.8871 54.4883 22.9549C54.4876 23.023 54.5009 23.0905 54.5275 23.1532C54.5541 23.2159 54.5934 23.2724 54.6428 23.3192C54.7419 23.4163 54.8751 23.4706 55.0138 23.4706C55.1525 23.4706 55.2857 23.4163 55.3847 23.3192C55.4344 23.2726 55.4739 23.2161 55.5005 23.1534C55.5271 23.0906 55.5403 23.023 55.5393 22.9549C55.5403 22.8636 55.5155 22.7738 55.4676 22.696C55.4207 22.6191 55.3544 22.5559 55.2752 22.5128Z" fill="#1F2B7B"/>
    <path d="M55.0184 18.9384C54.7958 18.9311 54.5742 18.9717 54.3685 19.0573C54.1629 19.1429 53.9779 19.2716 53.8262 19.4347C53.5303 19.7711 53.3675 20.204 53.3687 20.6521C53.3698 21.1001 53.5347 21.5323 53.8324 21.8671C53.9857 22.0301 54.172 22.1586 54.3787 22.2441C54.5855 22.3297 54.8081 22.3703 55.0317 22.3634C55.4946 22.3664 55.9448 22.2124 56.3088 21.9265C56.3247 21.9133 56.3363 21.8955 56.342 21.8756C56.3476 21.8557 56.3471 21.8346 56.3405 21.8149L56.1359 21.2767C56.1307 21.264 56.1231 21.2525 56.1134 21.2428C56.1037 21.2332 56.0922 21.2255 56.0796 21.2204C56.0671 21.2146 56.0534 21.2116 56.0397 21.2116C56.0259 21.2116 56.0123 21.2146 55.9998 21.2204C55.7277 21.3696 55.4247 21.4537 55.1146 21.466C54.9553 21.4723 54.7994 21.4186 54.6776 21.3156C54.5696 21.2204 54.4949 21.0931 54.4648 20.9523H56.4971C56.5222 20.9525 56.5465 20.9434 56.5654 20.9268C56.5843 20.9102 56.5964 20.8872 56.5994 20.8622C56.5994 20.8111 56.6056 20.7599 56.6056 20.7077C56.6056 20.1766 56.4654 19.7448 56.187 19.4245C55.9087 19.1042 55.5106 18.9384 55.0184 18.9384ZM54.4914 20.2349C54.5243 20.1328 54.5824 20.0406 54.6602 19.9668C54.7632 19.8742 54.8984 19.8256 55.0368 19.8318C55.308 19.8318 55.4687 19.9607 55.5372 20.2349H54.4914Z" fill="#1F2B7B"/>
    <path d="M59.4163 22.0288L59.2393 21.4537C59.2356 21.4412 59.2294 21.4296 59.2211 21.4196C59.2128 21.4096 59.2025 21.4014 59.191 21.3955C59.1794 21.3896 59.1667 21.386 59.1538 21.3851C59.1408 21.3842 59.1278 21.386 59.1155 21.3903C58.9918 21.4347 58.862 21.4595 58.7307 21.4639C58.5261 21.4639 58.436 21.3749 58.436 21.1641V19.8799H59.1646C59.1783 19.8808 59.192 19.8787 59.2048 19.8739C59.2176 19.8691 59.2293 19.8616 59.239 19.8519C59.2487 19.8422 59.2562 19.8306 59.261 19.8177C59.2658 19.8049 59.2678 19.7912 59.2669 19.7775V19.1165C59.2669 19.0893 59.2562 19.0633 59.237 19.0441C59.2178 19.0249 59.1917 19.0141 59.1646 19.0141H58.436V18.2968C58.436 18.2705 58.426 18.2452 58.4079 18.2262C58.3898 18.2071 58.365 18.1958 58.3388 18.1945H57.4823C57.4551 18.1945 57.4291 18.2052 57.4099 18.2244C57.3907 18.2436 57.38 18.2696 57.38 18.2968V19.0397L56.8683 19.1492C56.8468 19.1545 56.8276 19.1667 56.8135 19.1838C56.7995 19.201 56.7914 19.2222 56.7905 19.2444V19.7826C56.7905 19.8098 56.8013 19.8358 56.8205 19.855C56.8397 19.8742 56.8657 19.885 56.8929 19.885H57.382V21.2849C57.382 21.6471 57.4843 21.9224 57.6972 22.1035C57.9157 22.2848 58.1932 22.3794 58.4769 22.3696C58.7858 22.3672 59.0897 22.2921 59.3642 22.1506C59.3868 22.1408 59.4048 22.1228 59.4146 22.1001C59.4243 22.0774 59.4249 22.0519 59.4163 22.0288Z" fill="#1F2B7B"/>
    <path d="M8.72145 7.40672C8.45642 7.83749 8.06263 8.174 7.59581 8.36863C8.17091 8.57329 8.87699 8.9427 9.27608 9.48301C9.66309 9.98677 9.87379 10.6038 9.87574 11.239C9.87574 12.4547 9.48723 13.3556 8.71019 13.9416C7.9335 14.5269 6.66357 14.8186 5.33327 14.8186H0.511429C0.443574 14.8226 0.375616 14.8126 0.311734 14.7894C0.247853 14.7662 0.189399 14.7301 0.139968 14.6835C0.0924924 14.6344 0.0555632 14.5761 0.0314531 14.5122C0.00734296 14.4484 -0.00343786 14.3802 -0.00022582 14.312V2.98192C-0.00393393 2.91409 0.00612167 2.84622 0.0293356 2.78238C0.0525495 2.71854 0.0884416 2.66006 0.134851 2.61046C0.185024 2.56336 0.244338 2.52706 0.309116 2.50382C0.373895 2.48059 0.442756 2.47091 0.511429 2.47538H5.1327C7.81173 2.47538 9.15158 3.61808 9.15226 5.90347C9.15753 6.43574 9.00784 6.95804 8.72145 7.40672ZM5.11633 7.36783C5.51132 7.36783 5.8132 7.24606 6.02196 6.99944C6.23581 6.73814 6.34681 6.40769 6.33407 6.07027C6.33452 5.91835 6.30348 5.76798 6.24289 5.62866C6.1823 5.48934 6.09348 5.3641 5.98205 5.26083C5.87082 5.14936 5.73831 5.06138 5.5924 5.00214C5.44649 4.9429 5.29016 4.9136 5.1327 4.91598H2.47209V7.36783H5.11633ZM6.18773 12.3114C6.58273 12.3114 6.88563 12.1886 7.09336 11.942C7.30784 11.681 7.41924 11.3505 7.40649 11.0129C7.40729 10.8621 7.37699 10.7127 7.31748 10.5741C7.25797 10.4356 7.17053 10.3108 7.06062 10.2075C6.94942 10.096 6.81692 10.008 6.671 9.94874C6.52508 9.8895 6.36874 9.86022 6.21127 9.86266H2.46902V12.3186L6.18773 12.3114Z" fill="#1F2B7B"/>
    <path d="M33.4624 7.42719C33.1981 7.85904 32.8042 8.1964 32.3368 8.39114C32.9109 8.59581 33.617 8.96522 34.0171 9.50553C34.4036 10.0077 34.615 10.6227 34.6188 11.2564C34.6188 12.4735 34.2303 13.3743 33.4532 13.959C32.6765 14.5443 31.4066 14.836 30.0763 14.836H25.2473C25.1793 14.8422 25.1108 14.8335 25.0465 14.8103C24.9823 14.7871 24.9239 14.7501 24.8756 14.7019C24.8273 14.6536 24.7901 14.5954 24.7668 14.5312C24.7435 14.467 24.7346 14.3985 24.7408 14.3304V3.00342C24.7337 2.93492 24.7418 2.8657 24.7647 2.80074C24.7876 2.73578 24.8246 2.6767 24.873 2.62776C24.9215 2.57882 24.9802 2.54124 25.0449 2.51772C25.1096 2.49421 25.1787 2.48534 25.2473 2.49176H29.8737C32.5527 2.49176 33.8922 3.63412 33.8922 5.91883C33.8993 6.45279 33.7499 6.97713 33.4624 7.42719ZM29.8604 7.39342C30.2554 7.39342 30.5573 7.27062 30.766 7.02503C30.9794 6.76309 31.0904 6.43249 31.0781 6.09484C31.0785 5.94292 31.0475 5.79257 30.9869 5.65326C30.9263 5.51395 30.8375 5.3887 30.7261 5.2854C30.6149 5.17392 30.4824 5.08595 30.3365 5.02671C30.1906 4.96746 30.0342 4.93816 29.8768 4.94054H27.21V7.39649L29.8604 7.39342ZM30.9318 12.336C31.3268 12.336 31.6287 12.2132 31.8374 11.9676C32.0514 11.706 32.1624 11.3752 32.1495 11.0374C32.15 10.8856 32.119 10.7354 32.0584 10.5963C31.9978 10.4571 31.909 10.332 31.7975 10.229C31.6864 10.1173 31.5539 10.0292 31.408 9.96999C31.2621 9.91074 31.1057 9.88154 30.9482 9.88415H27.21V12.3401L30.9318 12.336Z" fill="#1F2B7B"/>
    <path d="M41.492 14.838C41.4504 14.8369 41.4094 14.8277 41.3715 14.8107C41.3335 14.7938 41.2993 14.7694 41.2707 14.7392C41.2422 14.709 41.2199 14.6734 41.2052 14.6345C41.1905 14.5956 41.1836 14.5541 41.185 14.5126V13.8986H41.1604C40.9864 14.2547 40.6979 14.4103 40.2937 14.5955C39.9349 14.7586 39.5448 14.8414 39.1506 14.838C38.1109 14.838 37.2063 14.5054 36.62 13.6857C36.0623 12.9091 35.832 12.2603 35.832 11.1357C35.832 10.0284 36.0029 9.34896 36.6343 8.5958C36.9365 8.22283 37.3199 7.92391 37.7553 7.72189C38.1908 7.51988 38.6666 7.42012 39.1465 7.43025C39.5417 7.42479 39.9331 7.50838 40.2916 7.67482C40.6795 7.858 40.9711 8.00535 41.1645 8.35328H41.1891V7.75669C41.1877 7.71518 41.1946 7.6738 41.2093 7.63497C41.224 7.59613 41.2463 7.5606 41.2749 7.53044C41.3034 7.50027 41.3377 7.47606 41.3756 7.45922C41.4136 7.44237 41.4545 7.43322 41.4961 7.4323H42.9543C43.0372 7.4355 43.1156 7.47142 43.1721 7.5322C43.2287 7.59299 43.2589 7.6737 43.2561 7.75669V14.5105C43.2592 14.5937 43.2291 14.6747 43.1725 14.7357C43.1159 14.7967 43.0374 14.8328 42.9543 14.8359L41.492 14.838ZM40.6979 9.78387C40.5414 9.61021 40.3491 9.47254 40.1343 9.38033C39.9195 9.28811 39.6872 9.24355 39.4535 9.2497C39.22 9.24486 38.9883 9.29266 38.7757 9.38956C38.5631 9.48646 38.3751 9.62997 38.2256 9.80945C37.9043 10.1824 37.7342 10.662 37.7487 11.1541C37.7371 11.6393 37.9131 12.1102 38.2399 12.469C38.3956 12.6409 38.5855 12.7784 38.7973 12.8727C39.0092 12.967 39.2384 13.0161 39.4704 13.0167C39.7023 13.0174 39.9318 12.9697 40.1442 12.8766C40.3566 12.7835 40.5473 12.6472 40.704 12.4762C41.0315 12.1048 41.205 11.6224 41.1891 11.1275C41.2053 10.6329 41.0292 10.1513 40.6979 9.78387ZM41.1645 13.8955C40.9471 14.2049 40.6466 14.4465 40.2978 14.5924C39.938 14.7572 39.5464 14.841 39.1506 14.838" fill="#1F2B7B"/>
    <path d="M49.8853 14.838C49.796 14.8413 49.7091 14.8092 49.6435 14.7486C49.578 14.688 49.539 14.6039 49.5353 14.5146V10.8031C49.5353 10.3255 49.4603 9.96875 49.3102 9.73271C49.1178 9.42571 48.864 9.2804 48.3718 9.2804C47.8509 9.2804 47.5378 9.68973 47.3823 9.91383C47.1776 10.2065 46.9105 10.6506 46.9105 11.1418V14.5085C46.9095 14.5532 46.8995 14.5973 46.8813 14.6381C46.8631 14.6789 46.837 14.7157 46.8044 14.7464C46.7719 14.7771 46.7335 14.8009 46.6917 14.8167C46.6498 14.8324 46.6052 14.8396 46.5605 14.838H44.869C44.7798 14.8413 44.6929 14.8092 44.6273 14.7486C44.5617 14.688 44.5228 14.6039 44.519 14.5146V7.77716C44.5208 7.73294 44.5312 7.68949 44.5497 7.64929C44.5682 7.6091 44.5945 7.57295 44.627 7.54292C44.6595 7.51288 44.6976 7.48955 44.7391 7.47426C44.7807 7.45897 44.8248 7.45201 44.869 7.45379H46.3989C46.4431 7.45201 46.4872 7.45897 46.5288 7.47426C46.5703 7.48955 46.6084 7.51288 46.6409 7.54292C46.6734 7.57295 46.6997 7.6091 46.7182 7.64929C46.7367 7.68949 46.7471 7.73294 46.7488 7.77716V8.38194H46.7847C47.327 7.68199 47.9686 7.45379 48.9582 7.45379C49.77 7.45379 50.4522 7.66801 51.0048 8.09643C51.3576 8.37345 51.6175 8.7515 51.7498 9.18012C51.8764 9.59857 51.9358 10.0345 51.9258 10.4715V14.5105C51.9244 14.5552 51.9143 14.5991 51.8959 14.6398C51.8775 14.6804 51.8512 14.717 51.8186 14.7475C51.7859 14.778 51.7476 14.8016 51.7057 14.8172C51.6639 14.8327 51.6194 14.8398 51.5748 14.838H49.8853Z" fill="#1F2B7B"/>
    <path d="M57.1622 11.0804L59.2855 14.355C59.3163 14.4013 59.3339 14.4551 59.3365 14.5107C59.3391 14.5663 59.3265 14.6215 59.3001 14.6704C59.2737 14.7194 59.2345 14.7603 59.1867 14.7887C59.1389 14.8172 59.0843 14.8321 59.0287 14.8319H57.4078C57.3543 14.8316 57.3018 14.8175 57.2555 14.7907C57.2092 14.764 57.1707 14.7256 57.1437 14.6794L55.2527 11.4467H55.2281V14.5228C55.2281 14.6042 55.1958 14.6823 55.1382 14.7399C55.0806 14.7975 55.0025 14.8298 54.9211 14.8298H53.4383C53.3569 14.8298 53.2788 14.7975 53.2213 14.7399C53.1637 14.6823 53.1313 14.6042 53.1313 14.5228V5.24753C53.1313 5.16611 53.1637 5.08803 53.2213 5.03045C53.2788 4.97288 53.3569 4.94054 53.4383 4.94054H54.916C54.9974 4.94054 55.0755 4.97288 55.1331 5.03045C55.1906 5.08803 55.223 5.16611 55.223 5.24753V10.3426H55.2476L57.1151 7.55714C57.1436 7.5198 57.1803 7.4895 57.2223 7.46857C57.2644 7.44763 57.3106 7.43662 57.3576 7.43639H59.0256C59.0852 7.43571 59.1436 7.45238 59.1939 7.48435C59.2441 7.51632 59.284 7.56222 59.3086 7.61646C59.3333 7.67069 59.3416 7.73092 59.3326 7.78979C59.3236 7.84867 59.2976 7.90365 59.2579 7.94805L57.1867 10.711C57.143 10.7615 57.1169 10.8249 57.1125 10.8916C57.1081 10.9582 57.1255 11.0245 57.1622 11.0804Z" fill="#1F2B7B"/>
    <path d="M13.8813 9.33157L16.2523 14.3263C16.3148 14.4749 16.4197 14.6018 16.5539 14.691C16.6882 14.7802 16.8458 14.8278 17.007 14.8278C17.1682 14.8278 17.3258 14.7802 17.46 14.691C17.5943 14.6018 17.6992 14.4749 17.7617 14.3263L20.1593 9.31212L23.1269 3.10882C23.1701 3.0255 23.1939 2.93349 23.1965 2.83968C23.1965 2.60023 23.0461 2.4805 22.7452 2.4805H20.8388C20.7061 2.47144 20.574 2.50484 20.4616 2.57585C20.3492 2.64687 20.2623 2.75181 20.2135 2.8755L17.0054 9.73168L13.8148 2.87038C13.7659 2.74697 13.6791 2.64224 13.567 2.57126C13.4548 2.50028 13.323 2.46671 13.1905 2.47539H11.2984C10.9976 2.47539 10.8472 2.59511 10.8472 2.83457C10.8498 2.92838 10.8736 3.02038 10.9168 3.1037L13.8813 9.33157Z" fill="#1F2B7B"/>
    <path d="M67.9999 4.17919H63.2763L60.9155 0.0900441C61.0163 0.0311469 61.1309 0.000106812 61.2476 0.000106812C61.3643 0.000106812 61.4789 0.0311469 61.5797 0.0900441L67.6663 3.60409C67.7679 3.66178 67.8523 3.74544 67.9109 3.84649C67.9696 3.94755 68.0003 4.06237 67.9999 4.17919Z" fill="#00C2F3"/>
    <path d="M63.2763 4.1792H67.9999C68.0003 4.29631 67.9696 4.41143 67.911 4.51282C67.8524 4.61421 67.768 4.69824 67.6663 4.75635L61.5797 8.26937C61.479 8.32868 61.3644 8.35996 61.2476 8.35996C61.1308 8.35996 61.0161 8.32868 60.9155 8.26937L63.2763 4.1792Z" fill="#1F2B7B"/>
    <path d="M60.9158 0.0900574L63.2766 4.1833L60.9158 8.27654C60.8125 8.21878 60.7268 8.13417 60.6677 8.03166C60.6086 7.92916 60.5784 7.81258 60.5802 7.69428V0.665158C60.5799 0.548108 60.6109 0.433107 60.6699 0.332015C60.7289 0.230923 60.8138 0.147399 60.9158 0.0900574Z" fill="url(#paint0_radial_793_382)"/>
    </g>
    <defs>
    <radialGradient id="paint0_radial_793_382" cx="0" cy="0" r="1" gradientUnits="userSpaceOnUse" gradientTransform="translate(61.1921 0.814561) scale(6.71496 6.71496)">
    <stop stop-color="#00C2F3"/>
    <stop offset="1" stop-color="#1F2B7B"/>
    </radialGradient>
    <clipPath id="clip0_793_382">
    <rect width="68" height="23.4706" fill="white"/>
    </clipPath>
    </defs>
    </svg>