<svg id="Layer_1" data-name="Layer 1" xmlns="http://www.w3.org/2000/svg" viewBox="0 0 65 30"><defs><style>.cls-1{fill:#1e4485;}.cls-2{fill:#ed2228;}</style></defs><polygon class="cls-1" points="14.37 15.12 12.24 10.45 10.7 10.45 13.77 16.59 14.97 16.59 18.01 10.45 16.48 10.45 14.37 15.12"/><rect class="cls-1" x="18.36" y="10.45" width="1.47" height="6.15"/><polygon class="cls-1" points="20.7 16.59 24.91 16.59 24.91 15.48 21.79 15.48 21.79 14.07 24.91 14.07 24.91 12.97 21.79 12.97 21.79 11.56 24.91 11.56 24.91 10.45 20.7 10.45 20.7 16.59"/><polygon class="cls-1" points="25.58 11.56 27.15 11.56 27.15 16.59 28.73 16.59 28.73 11.56 30.32 11.56 30.32 10.45 25.58 10.45 25.58 11.56"/><path class="cls-1" d="M34.37,10.51l-3.29,6.15h1.6l.88-1.6h2.79l.85,1.6h1.62L35.5,10.51ZM34.09,14l.85-1.87L35.77,14Z"/><path class="cls-1" d="M48.38,10.51l-3.29,6.15h1.6l.88-1.6h2.79l.85,1.6h1.62l-3.32-6.15ZM48.1,14,49,12.1,49.78,14Z"/><path class="cls-1" d="M44.19,13.25A1.36,1.36,0,0,0,45,12a1.63,1.63,0,0,0-1.56-1.57H40.2l0,.05v6.09H43s2.28.1,2.28-1.7A1.65,1.65,0,0,0,44.19,13.25ZM42.86,11.5s.86,0,.86.68-.79.69-.79.69H41.41V11.5Zm.24,4H41.42l0-1.56H43s.95,0,.95.77S43.1,15.49,43.1,15.49Z"/><polygon class="cls-1" points="57.47 14.36 54.22 10.41 52.94 10.41 52.94 16.57 54.23 16.57 54.23 12.72 57.42 16.55 58.66 16.55 58.66 10.41 57.47 10.41 57.47 14.36"/><polygon class="cls-1" points="63.39 16.56 64.95 16.56 62.37 12.87 64.83 10.42 63.23 10.41 60.66 13.04 60.66 10.41 59.47 10.41 59.47 16.59 60.66 16.59 60.66 14.57 61.47 13.76 63.39 16.56"/><path class="cls-1" d="M15,20.1a3.38,3.38,0,0,1,0,.49v.18a2.51,2.51,0,0,1-.08.71,1,1,0,0,1-1.07.64h-1V20.86h-.32v-.34h.32V19.26h1a1.33,1.33,0,0,1,.67.15.87.87,0,0,1,.34.37A1.42,1.42,0,0,1,15,20.1Zm-.61.4a.87.87,0,0,0-.12-.55c-.07-.09-.22-.13-.46-.13l-.28,0v.68h.37v.34h-.37v.68l.23,0h.07a.58.58,0,0,0,.46-.14.52.52,0,0,0,.06-.15,1.06,1.06,0,0,0,0-.33Z"/><path class="cls-1" d="M17.47,20.58v.18a1.91,1.91,0,0,1-.08.7A.94.94,0,0,1,17,22a1.29,1.29,0,0,1-.66.15,1.34,1.34,0,0,1-.66-.15,1,1,0,0,1-.4-.5,1.93,1.93,0,0,1-.09-.7v-.18a1.6,1.6,0,0,1,.15-.83.91.91,0,0,1,.34-.36,1.24,1.24,0,0,1,.66-.16,1.2,1.2,0,0,1,.66.16.93.93,0,0,1,.35.36A1.79,1.79,0,0,1,17.47,20.58Zm-.59-1.49h-.36l-.2-.26-.19.26h-.37l.37-.52h.39Zm-.56,2.45c.21,0,.35-.05.4-.14s.1-.22.1-.49v-.43c0-.32,0-.5-.11-.55a.55.55,0,0,0-.39-.13.52.52,0,0,0-.38.13c-.08.06-.12.23-.12.53v.44c0,.27,0,.44.1.5S16.11,21.54,16.32,21.54Zm.45-2.82-.41-.53h.46l.23.53Z"/><path class="cls-1" d="M19.75,22.09h-.66l-.79-1.52v1.52h-.66V19.25h.66l.79,1.5v-1.5h.66Z"/><path class="cls-1" d="M21.94,22l-.23.06-.26,0h-.32a1,1,0,0,1-1.07-.65,2.34,2.34,0,0,1-.08-.7v-.19a1.74,1.74,0,0,1,.14-.82,1.07,1.07,0,0,1,1-.52,3.3,3.3,0,0,1,.66.07l.05.56a4.23,4.23,0,0,0-.65-.06.61.61,0,0,0-.45.12c-.09.06-.13.25-.13.56v.45c0,.26,0,.42.12.47s.2.14.45.14h.12v-.62h-.39L21,20.4h1Z"/><path class="cls-1" d="M25.61,22.09h-.67V20.92h-.7v1.17h-.66V19.25h.66V20.4h.7V19.25h.67Z"/><path class="cls-1" d="M27.4,19.25l.94,2.84h-.73l-.12-.44h-.91l-.12.44h-.73l.94-2.84Zm-.22-.16-.25-.58h-.49l.43.58Zm-.48,2h.66L27,19.91Z"/><path class="cls-1" d="M30.56,22.09h-.67l-.78-1.52v1.52h-.66V19.25h.66l.78,1.5v-1.5h.67Z"/><path class="cls-1" d="M32.82,22.09h-.67V20.92h-.7v1.17h-.66V19.25h.66V20.4h.7V19.25h.67Z"/><path class="cls-1" d="M35.73,21.54a3.9,3.9,0,0,0,.54-.06V22l-.27.05a2.38,2.38,0,0,1-.39,0,1,1,0,0,1-1.07-.66,1.63,1.63,0,0,1-.07-.28c0-.12,0-.26,0-.42v-.19a2.47,2.47,0,0,1,0-.5,1.1,1.1,0,0,1,.1-.32,1.06,1.06,0,0,1,1-.53,3.46,3.46,0,0,1,.66.08v.56a4,4,0,0,0-.6-.06.6.6,0,0,0-.46.13.89.89,0,0,0-.11.56v.43a1.42,1.42,0,0,0,0,.33.35.35,0,0,0,.07.15c.07.1.23.14.46.14Z"/><path class="cls-1" d="M38.8,20.76a1.93,1.93,0,0,1-.09.7.89.89,0,0,1-.4.5A1.44,1.44,0,0,1,37,22a1,1,0,0,1-.41-.5,2.12,2.12,0,0,1-.08-.7V19.25h.64V20.9c0,.27,0,.44.11.5s.19.14.4.15.34-.06.4-.15.1-.22.1-.48V19.25h.65Zm-1.26-1.67-.43-.58h.49l.25.58Z"/><path class="cls-1" d="M41.14,22.09h-.66l-.79-1.52v1.52H39V19.25h.66l.79,1.5v-1.5h.66Z"/><path class="cls-1" d="M43.33,22l-.23.06-.26,0h-.32a1,1,0,0,1-1.07-.65,2.34,2.34,0,0,1-.08-.7v-.19a1.74,1.74,0,0,1,.14-.82,1.06,1.06,0,0,1,1-.52,3.21,3.21,0,0,1,.65.07l.06.56a4.23,4.23,0,0,0-.65-.06.61.61,0,0,0-.45.12c-.09.06-.13.25-.13.56v.45c0,.26,0,.42.12.47s.2.14.45.14h.12v-.62h-.39l0-.52h1Z"/><path class="cls-1" d="M46.4,22.09,46.34,22l-.23-.4L46,21.35l-.35-.61v1.35H45V19.25h.66v1.23l.73-1.23H47L46.2,20.6l0,.06.09.15.13.21.64,1.07Z"/><path class="cls-1" d="M49.32,22.09h-.67V20.92H48v1.17h-.66V19.25H48V20.4h.7V19.25h.67Z"/><path class="cls-1" d="M51.11,19.25l.94,2.84h-.73l-.12-.44h-.9l-.13.44h-.73l.94-2.84Zm-.69,1.88h.65l-.33-1.22Zm.44-2,.43-.58H50.8l-.24.58Z"/><path class="cls-1" d="M53.46,19.8v2.29H52.8V19.8h-.61v-.55h1.89v.55Z"/><path class="cls-1" d="M57.35,22.09h-.9l-.82-2.84h.73l.54,2,.54-2h.73Z"/><path class="cls-1" d="M60.54,20.58v.18a1.85,1.85,0,0,1-.09.7,1,1,0,0,1-.4.5,1.34,1.34,0,0,1-.66.15,1.36,1.36,0,0,1-.67-.15,1,1,0,0,1-.4-.5,1.93,1.93,0,0,1-.09-.7v-.18a1.6,1.6,0,0,1,.15-.83,1,1,0,0,1,.34-.36,1.26,1.26,0,0,1,.67-.16,1.24,1.24,0,0,1,.66.16.91.91,0,0,1,.34.36A1.65,1.65,0,0,1,60.54,20.58Zm-1.15,1c.21,0,.34-.05.4-.14s.09-.22.09-.49v-.43c0-.32,0-.5-.11-.55a.52.52,0,0,0-.38-.13.55.55,0,0,0-.39.13c-.08.06-.12.23-.12.53v.44c0,.27,0,.44.1.5S59.17,21.54,59.39,21.54Zm.14.89a.24.24,0,0,1,0,.32.2.2,0,0,1-.15.06.2.2,0,0,1-.14-.06.24.24,0,0,1,0-.32.2.2,0,0,1,.14-.06A.2.2,0,0,1,59.53,22.43Z"/><path class="cls-1" d="M62.81,22.09h-.66l-.78-1.52v1.52H60.7V19.25h.67l.78,1.5v-1.5h.66Z"/><path class="cls-1" d="M65,22l-.23.06-.26,0H64.2a1,1,0,0,1-1.08-.65,2.34,2.34,0,0,1-.08-.7v-.19a1.6,1.6,0,0,1,.15-.82,1,1,0,0,1,1-.52,3.23,3.23,0,0,1,.66.07l0,.56a4.11,4.11,0,0,0-.64-.06.62.62,0,0,0-.46.12c-.08.06-.12.25-.12.56v.45c0,.26,0,.42.11.47s.21.14.45.14h.12v-.62H64L64,20.4h1Z"/><polygon class="cls-2" points="3.86 16.54 10.78 16.54 7.31 10.54 3.86 16.54"/><polygon class="cls-2" points="1.87 13.3 0 16.54 3.81 16.54 1.87 13.3"/><polygon class="cls-2" points="4.13 14.73 6.93 9.88 5.38 7.19 2.58 12.06 4.13 14.73"/></svg>