<svg width="400" height="128" viewBox="0 0 400 128" fill="none" xmlns="http://www.w3.org/2000/svg">
<path d="M394.88 55.0575C393.7 53.0375 392.03 51.4875 390.33 49.9375C384.83 45.0075 377.93 41.4975 370.89 39.9075C370.37 39.7875 370.03 39.3075 370.08 38.7775C370.82 32.0275 370.01 25.1075 367.57 18.6675C366.74 19.0475 365.67 19.6075 364.41 20.4075L364.31 20.4675C366.77 27.3075 367.29 34.6375 365.92 41.6075C365.8 42.2275 366.22 42.8175 366.84 42.8975C376.38 44.2475 385.43 49.1775 391.76 56.6575C386.26 61.3775 379.71 64.8675 372.71 66.5875C372.21 66.7075 371.87 67.1675 371.9 67.6875C372.33 76.0375 370.41 84.4175 366.47 91.7775C390.4 100.327 408.46 76.0075 394.88 55.0575Z" fill="#FFC62F"/>
<path d="M366.71 12.8175C358.39 16.4275 351.06 22.8875 346.52 30.5975C346.25 31.0575 345.68 31.2475 345.2 31.0275C339.14 28.2675 332.24 26.8875 325.39 27.1875C325.47 28.0975 325.64 29.2975 325.97 30.7675L325.99 30.8475C333.27 30.6075 340.38 32.3975 346.59 35.8575C347.14 36.1675 347.84 35.9375 348.11 35.3775C352.3 26.7075 359.83 19.6475 368.84 15.9075L369.34 17.1475C371.88 23.4875 372.89 30.3775 372.43 37.1375C372.4 37.6475 372.72 38.1075 373.22 38.2375C379.61 39.9675 385.54 43.0675 390.66 47.3375H390.67C391.96 48.4475 393.22 49.5975 394.42 50.8475C396.29 48.5075 397.69 45.5375 398.46 42.8175C405.77 23.2075 385.55 4.76749 366.7 12.8175" fill="#FFC62F"/>
<path d="M361.09 84.8274L361.15 84.6874C360.84 84.4774 360.53 84.2774 360.23 84.0574C354.59 79.9474 350.28 74.6374 347.42 68.5074C347.15 67.9374 346.47 67.7174 345.91 68.0074C337.41 72.5074 327.16 73.9074 317.68 71.5274C319.37 64.4674 322.58 57.8174 327.24 52.2674C327.57 51.8774 327.58 51.3074 327.25 50.9074C322.02 44.4274 318.63 36.5174 317.51 28.1974V28.1174C315.09 28.7474 312.58 29.9574 310.57 31.3074C287.52 46.4774 300.75 77.6874 327.11 76.3474C333.18 76.3474 339.04 75.1074 344.39 72.8174C344.89 72.5974 345.47 72.7874 345.73 73.2574C349.01 79.0474 353.76 84.2174 359.47 87.9974C359.93 87.2174 360.5 86.1674 361.08 84.8274" fill="#FFC62F"/>
<path d="M386.09 53.7874L386.03 53.7374C380.28 58.2074 373.48 60.9274 366.43 61.7974C365.81 61.8774 365.38 62.4574 365.49 63.0774C367.14 72.5374 365.35 82.7874 360.09 91.0174L358.99 90.3074C353.17 86.5874 348.4 81.7374 344.8 75.9774C344.53 75.5374 343.99 75.3574 343.51 75.5474C335.75 78.5174 327.13 79.2974 318.93 77.8274C317.72 101.317 344.93 113.447 360.94 95.5774C367.91 88.0274 370.44 76.0774 369.58 66.0174C369.53 65.4874 369.91 64.9774 370.43 64.8774C376.97 63.5274 383.38 60.5774 388.75 56.2874C388.12 55.6174 387.25 54.7574 386.08 53.7974" fill="#FFC62F"/>
<path d="M361.37 8.07743C361.37 8.07743 361.36 8.06743 361.36 8.05743C345.09 -9.77257 316.67 4.29743 319.67 27.7474C320.76 36.2574 324.56 44.6174 330.13 50.9274C330.48 51.3274 330.48 51.9274 330.12 52.3274C325.65 57.2474 322.2 63.3974 320.37 70.0074C321.26 70.2174 322.43 70.4274 323.9 70.5674H324.04C326.06 63.5774 329.95 57.3474 335.16 52.4874C335.62 52.0574 335.62 51.3374 335.17 50.8974C334.57 50.3074 333.98 49.7074 333.42 49.0674C327.51 42.6674 323.75 33.9374 323.08 25.0974C330.26 24.4874 337.71 25.5374 344.34 28.2474C344.82 28.4374 345.36 28.2774 345.64 27.8374C350.17 20.8774 356.63 15.2174 364.18 11.5574C363.39 10.3274 362.4 9.14743 361.36 8.05743" fill="#FFC62F"/>
<path d="M42.05 113.937C56.06 113.937 61.32 106.927 61.32 97.7374C61.32 88.5474 55.63 80.9474 42.05 80.9474H17.67V113.937H42.05ZM40.74 68.8274C53.3 68.8274 57.53 61.8174 57.53 53.6474C57.53 45.4774 53.29 39.4874 40.59 39.4874H17.67V68.8274H40.74V68.8274ZM0 123.707V29.7074C0 27.4474 1.84 25.6174 4.1 25.6174H45.41C66.14 25.6174 75.63 37.0074 75.63 50.1474C75.63 62.1874 69.58 71.1274 58.14 73.9374C58 73.9774 58 74.1774 58.14 74.2074C70.42 76.7674 78.98 86.8574 78.98 99.9174C78.98 115.247 67.88 127.797 47.3 127.797H4.1C1.84 127.797 0 125.967 0 123.707" fill="#006B68"/>
<path d="M85.51 123.707V25.6174H99.08C101.34 25.6174 103.18 27.4474 103.18 29.7074V127.797H89.61C87.35 127.797 85.51 125.967 85.51 123.707" fill="#006B68"/>
<path d="M152.99 113.937C171.97 113.937 181.46 101.237 181.46 76.5674C181.46 51.8974 171.53 39.4874 152.55 39.4874H130.8V113.937H152.99ZM113.13 127.807V29.7174C113.13 27.4574 114.97 25.6274 117.23 25.6274H156.06C183.07 25.6274 199.86 44.8974 199.86 76.2774C199.86 107.657 183.8 127.807 156.79 127.807H113.13V127.807Z" fill="#006B68"/>
<path d="M254.85 127.807H239.38C232.62 127.807 229.97 125.657 227.77 119.517L195.42 25.6174H210.13C212.7 25.6974 215.04 27.2774 215.96 29.8074L240.54 103.127C241.41 106.047 242.29 109.257 243.02 112.617C243.6 109.407 244.48 106.197 245.5 103.127L268.59 34.6374C270.84 28.4474 275.19 25.6174 280.46 25.6174H298.1C298.34 25.6374 298.55 25.7774 298.62 26.0274C298.98 27.3874 298 28.2474 296.84 29.0374C295.11 30.2274 293.92 30.7674 292.32 31.9574C288.05 35.1574 285.58 40.3374 283.69 45.0674C282.89 47.0574 282.19 49.1074 281.46 51.1374L254.84 127.797L254.85 127.807Z" fill="#006B68"/>
</svg>
