<svg id="Layer_1" data-name="Layer 1" xmlns="http://www.w3.org/2000/svg" viewBox="0 0 65 30"><defs><style>.cls-1{fill:#ae1c3f;}.cls-2{fill:#fff;}.cls-3{fill:#053f2b;}.cls-4{fill:#fcdc08;stroke:#9a232b;stroke-miterlimit:2.61;stroke-width:0.12px;}</style></defs><path class="cls-1" d="M40.79,15.93a2.23,2.23,0,0,1,1.05.43,1.27,1.27,0,0,1,.48,1,1.43,1.43,0,0,1-.31.87,1.78,1.78,0,0,1-.88.6,5.42,5.42,0,0,1-1.69.19H36.26v-.16h.26a.7.7,0,0,0,.6-.24,1.25,1.25,0,0,0,.12-.67V14a1.1,1.1,0,0,0-.15-.71.77.77,0,0,0-.57-.19h-.26V13h2.91a6.45,6.45,0,0,1,1.31.11,2.19,2.19,0,0,1,1.14.57,1.31,1.31,0,0,1,.39.94,1.18,1.18,0,0,1-.31.81,1.85,1.85,0,0,1-.91.54Zm-2.6-.24a2.5,2.5,0,0,0,.42,0,4.27,4.27,0,0,0,.52,0,3.3,3.3,0,0,0,1.09-.14,1.16,1.16,0,0,0,.56-.43,1.14,1.14,0,0,0,.19-.64,1.11,1.11,0,0,0-.48-.9,2.26,2.26,0,0,0-1.41-.38,3.51,3.51,0,0,0-.89.1v2.33Zm0,2.9a5.51,5.51,0,0,0,1.14.11,2.22,2.22,0,0,0,1.37-.36,1.1,1.1,0,0,0,.47-.9,1.23,1.23,0,0,0-.21-.68,1.41,1.41,0,0,0-.7-.51,3.19,3.19,0,0,0-1.19-.19h-.53a1.69,1.69,0,0,0-.35,0v2.49ZM47.53,17H44.92l-.45,1a1.47,1.47,0,0,0-.17.53.3.3,0,0,0,.15.24,1.34,1.34,0,0,0,.63.14V19H43v-.16a1.25,1.25,0,0,0,.54-.18,2.67,2.67,0,0,0,.57-.87l2.37-5h.17l2.34,5a2.15,2.15,0,0,0,.52.79,1.08,1.08,0,0,0,.64.21V19H47.45v-.16a1.21,1.21,0,0,0,.55-.12.31.31,0,0,0,.14-.25,1.85,1.85,0,0,0-.2-.63L47.53,17Zm-.14-.33-1.14-2.45-1.17,2.45Zm2.7-3.7v.17a1.63,1.63,0,0,1,.44,0,1.42,1.42,0,0,1,.44.18,3.28,3.28,0,0,1,.45.41V18a1.24,1.24,0,0,1-.11.65.72.72,0,0,1-.61.24h-.24V19h2.35v-.16h-.24a.81.81,0,0,1-.58-.19,1.11,1.11,0,0,1-.14-.7V14.24l4.45,4.88h.17V14a1.24,1.24,0,0,1,.11-.65.71.71,0,0,1,.61-.23h.24V13H55.08v.17h.24a.82.82,0,0,1,.58.18A1.15,1.15,0,0,1,56,14v3.5L51.92,13Zm10.52,2.7,2.48,2.22a4.36,4.36,0,0,0,1,.75,2.45,2.45,0,0,0,.86.23V19H61.8v-.16a.71.71,0,0,0,.41-.09.23.23,0,0,0,.13-.19.42.42,0,0,0-.05-.2,1.65,1.65,0,0,0-.31-.31L59.65,16V18a1.86,1.86,0,0,0,.07.61.4.4,0,0,0,.21.19,1,1,0,0,0,.45.11h.23V19H57.74v-.16H58a.76.76,0,0,0,.6-.22A1.26,1.26,0,0,0,58.7,18V14a2,2,0,0,0-.06-.61.5.5,0,0,0-.21-.19,1,1,0,0,0-.45-.1h-.24V13h2.87v.17h-.23a1,1,0,0,0-.45.1.5.5,0,0,0-.22.21,2.27,2.27,0,0,0-.06.59v1.86l.69-.57a14.89,14.89,0,0,0,1.78-1.62.56.56,0,0,0,.13-.31.21.21,0,0,0-.1-.18.55.55,0,0,0-.35-.08h-.16V13h2.48v.17a1.62,1.62,0,0,0-.4,0,2.15,2.15,0,0,0-.44.19,3.85,3.85,0,0,0-.63.45c-.08.06-.41.37-1,.92l-1,.92ZM17.61,19H14.87v-.3a3,3,0,0,0,.6-.08c.16-.05.24-.1.24-.16a.28.28,0,0,0,0-.09.29.29,0,0,0,0-.1l-.54-1.36h-2.3c-.09.2-.16.38-.21.52s-.1.29-.15.41-.06.22-.08.3a.72.72,0,0,0,0,.19c0,.11.09.2.29.26a2.52,2.52,0,0,0,.65.11V19H10.84v-.3a1.4,1.4,0,0,0,.31,0,1.1,1.1,0,0,0,.29-.1,1.48,1.48,0,0,0,.29-.24,1.81,1.81,0,0,0,.2-.35c.33-.76.69-1.61,1.09-2.56s.75-1.79,1.06-2.52h.37l2.19,5.21a.88.88,0,0,0,.16.27,1.27,1.27,0,0,0,.24.2,1.28,1.28,0,0,0,.28.1,1.81,1.81,0,0,0,.29,0V19ZM15,16.55l-1-2.34-1,2.34Zm9.22.06-.3,0a1.26,1.26,0,0,0-.3.08.36.36,0,0,0-.2.18.61.61,0,0,0-.06.28v.46c0,.34,0,.57,0,.69s0,.22,0,.3a7.19,7.19,0,0,1-1.22.39,5.6,5.6,0,0,1-1.2.14A3.55,3.55,0,0,1,19.71,19a3.1,3.1,0,0,1-1-.62,3,3,0,0,1-1-2.28A3.39,3.39,0,0,1,18,14.77a3.15,3.15,0,0,1,.7-1,2.84,2.84,0,0,1,1.05-.66A3.78,3.78,0,0,1,22,13a3.18,3.18,0,0,1,.72.3l.19-.29h.37l0,2.11H23c-.07-.23-.15-.46-.24-.68a2.48,2.48,0,0,0-.37-.61,1.82,1.82,0,0,0-.56-.43,1.67,1.67,0,0,0-.78-.16,1.93,1.93,0,0,0-.88.19,1.75,1.75,0,0,0-.67.55,2.42,2.42,0,0,0-.44.88A4.33,4.33,0,0,0,18.86,16,3.81,3.81,0,0,0,19,17.09a2.51,2.51,0,0,0,.44.88,2.05,2.05,0,0,0,.71.6,2.24,2.24,0,0,0,1,.22,2.17,2.17,0,0,0,.74-.12,1.54,1.54,0,0,0,.47-.24,2.28,2.28,0,0,0,0-.45c0-.15,0-.28,0-.38v-.33a.79.79,0,0,0-.06-.32.34.34,0,0,0-.22-.2,1.29,1.29,0,0,0-.41-.1l-.41,0V16.3h2.88v.31ZM31.56,19H29.8c-.4-.56-.75-1.05-1.07-1.46s-.66-.84-1-1.27H27V18.2a.76.76,0,0,0,0,.27.4.4,0,0,0,.22.17l.29.05.35,0V19H25.17v-.3l.32,0a1.3,1.3,0,0,0,.3-.05.46.46,0,0,0,.2-.16.58.58,0,0,0,.06-.28V13.83a.71.71,0,0,0-.05-.26.32.32,0,0,0-.21-.18l-.31-.06a2.43,2.43,0,0,0-.31-.05V13h3a3.89,3.89,0,0,1,.78.08,2.12,2.12,0,0,1,.66.26,1.3,1.3,0,0,1,.46.44,1.24,1.24,0,0,1,.17.66,1.71,1.71,0,0,1-.11.62,1.31,1.31,0,0,1-.35.46,1.79,1.79,0,0,1-.5.32,3.7,3.7,0,0,1-.64.23l.81,1,.79,1a1.91,1.91,0,0,0,.36.38,1.86,1.86,0,0,0,.33.19,1.07,1.07,0,0,0,.3.09l.3,0V19Zm-2.43-4.5a1.15,1.15,0,0,0-.34-.87,1.34,1.34,0,0,0-1-.32H27v2.59h.61a1.55,1.55,0,0,0,1.06-.38,1.31,1.31,0,0,0,.43-1Zm6,4.5h-3v-.27l.36,0a1.65,1.65,0,0,0,.34-.05.51.51,0,0,0,.22-.13.43.43,0,0,0,.07-.24V13.88a1.7,1.7,0,0,0,0-.41.45.45,0,0,0-.24-.15l-.35-.09-.35-.05v-.27h3v.27l-.35,0-.34.07a.36.36,0,0,0-.24.15.43.43,0,0,0-.06.22v4.62a.36.36,0,0,0,.07.22.41.41,0,0,0,.23.16l.32.06a1.73,1.73,0,0,0,.37,0Z"/><rect class="cls-2" y="10.66" width="8.78" height="8.67" rx="0.41"/><path class="cls-3" d="M3.06,18.92H7.78a.59.59,0,0,0,.58-.57V13.69Z"/><path class="cls-1" d="M8.36,11.65a.58.58,0,0,0-.58-.57H6L.42,16.64v1.71a.58.58,0,0,0,.58.57H2.71l5.65-5.58Z"/><path class="cls-3" d="M1,11.08a.57.57,0,0,0-.58.57v4.63l5.27-5.2Z"/><path class="cls-4" d="M3.26,18.84a3.48,3.48,0,0,1,.58-.17.79.79,0,0,0,.69-.78c0-.17-.26,0-.26,0a2.55,2.55,0,0,0-.68.19A.87.87,0,0,0,3.26,18.84Z"/><path class="cls-4" d="M5.34,16.85a.87.87,0,0,1-.46.93,6.48,6.48,0,0,0-.65.26.75.75,0,0,1,.29-.78A2.54,2.54,0,0,1,5.1,17,.44.44,0,0,0,5.34,16.85Z"/><path class="cls-4" d="M5.63,16a.72.72,0,0,1,0,.91c-.09.12-.51.39-.62.52a.91.91,0,0,1,0-.83,2.13,2.13,0,0,1,.41-.38A1,1,0,0,0,5.63,16Z"/><path class="cls-4" d="M5.2,15.05s-.33.19-.11.73a3.84,3.84,0,0,1,.28.64.73.73,0,0,0,.28-.85A1,1,0,0,0,5.2,15.05Z"/><path class="cls-4" d="M4.36,14.3a.73.73,0,0,0,.15.67c.12.13.62.29.84.45C5.35,15.42,5.62,14.55,4.36,14.3Z"/><path class="cls-4" d="M3.65,13.69s1.1.08.95,1.07a3.87,3.87,0,0,0-.45-.23c-.09,0-.53-.18-.5-.59A1.86,1.86,0,0,0,3.65,13.69Z"/><path class="cls-4" d="M3.67,12.74a.72.72,0,0,0-.21.83,1.21,1.21,0,0,0,.36.42s.13-.35.21-.61.11-.52-.15-.68A.15.15,0,0,0,3.67,12.74Z"/><path class="cls-4" d="M3.59,13.05s-.32-.93.82-1.18a.54.54,0,0,1-.17.73C4.13,12.71,3.66,12.94,3.59,13.05Z"/><path class="cls-4" d="M5.36,11.17s-1.18,0-1.13,1a3.3,3.3,0,0,0,.94-.44A.87.87,0,0,0,5.36,11.17Z"/></svg>