<svg id="Layer_1" data-name="Layer 1" xmlns="http://www.w3.org/2000/svg" viewBox="0 0 65 30"><defs><style>.cls-1{fill:#005992;}.cls-2{fill:#d71149;}.cls-3{fill:#005790;}</style></defs><path class="cls-1" d="M7,15.25v4.28H8.6V14A1.53,1.53,0,0,0,7,15.25Z"/><path class="cls-1" d="M19.38,15.25v4.28H21V14A1.54,1.54,0,0,0,19.38,15.25Z"/><path class="cls-1" d="M25,13.8a2,2,0,0,0-1.55.74V14H21.8v5.55h1.61V15.92a1.26,1.26,0,0,1,1-.64c.75,0,.84.85.84.85v3.42h1.65V15.72A2,2,0,0,0,25,13.8Z"/><path class="cls-1" d="M44.54,16.13v3.42h1.65V15.72a2,2,0,0,0-3.51-1.18V14H41.06v5.55h1.62V15.92a1.25,1.25,0,0,1,1-.64C44.45,15.28,44.54,16.13,44.54,16.13Z"/><path class="cls-1" d="M38.66,19.55h1.6V14h-1.6v.66a2.49,2.49,0,0,0-1.8-.8,2.81,2.81,0,0,0-2.63,3,2.81,2.81,0,0,0,2.63,2.95,2.49,2.49,0,0,0,1.8-.8ZM37.31,18.2a1.43,1.43,0,1,1,1.35-1.72v.59A1.4,1.4,0,0,1,37.31,18.2Z"/><path class="cls-1" d="M48.77,17.1l.11.06,1.55,2.35h2.21l-2.33-3L52.68,14h-2.1l-1.81,2V12.85c-.1-1.48-1.71-1.39-1.71-1.39l0,7.92,0,.17h1.69Z"/><path class="cls-1" d="M12.16,13.85a2.95,2.95,0,0,0,0,5.89,2.87,2.87,0,0,0,2.7-1.93H13.38a1.44,1.44,0,0,1-1.2.72,1.52,1.52,0,0,1-1.41-1.24H15a2.59,2.59,0,0,0,0-.48A2.92,2.92,0,0,0,12.16,13.85Zm-1.34,2.3a1.48,1.48,0,0,1,1.36-1.06,1.48,1.48,0,0,1,1.36,1.06Z"/><path class="cls-1" d="M6,11.49,4.09,16.55l-2-5.06H0l3.16,8s1.21.25,1.55-.39,3.06-7.59,3.06-7.59Z"/><path class="cls-1" d="M17.78,12.59H16.16V14h-.83v1.3h.83V17.7a1.81,1.81,0,0,0,1.53,1.81h1V18.16a.87.87,0,0,1-.87-.9v-2h.92V14h-.92Z"/><path class="cls-1" d="M29.61,19.56h1.92v0a2.4,2.4,0,0,0,2.29-2.34,1.76,1.76,0,0,0-1.34-1.94h0a1.69,1.69,0,0,0,1-1.66,2.09,2.09,0,0,0-2.2-2v0H27.77v8h1.84Zm0-6.56h1.33c.15,0,.85.15.85.8s-.73.86-.73.86H29.61Zm0,3.13h1.74s.78.21.78.89a1,1,0,0,1-.73,1H29.61Z"/><path class="cls-2" d="M58.52,16.49a6.49,6.49,0,0,0,5.46-3,11.79,11.79,0,0,0-10.92,0A6.46,6.46,0,0,0,58.52,16.49Z"/><path class="cls-3" d="M56.61,11.4V8.08h3.81V11.4a12.56,12.56,0,0,1,4,1.3A6.38,6.38,0,0,0,65,10,6.49,6.49,0,1,0,52.62,12.7,12.64,12.64,0,0,1,56.61,11.4Z"/><polygon class="cls-3" points="29.33 25.05 28.03 23.1 27.59 23.1 27.59 25.75 27.97 25.75 27.97 23.68 29.34 25.71 29.36 25.75 29.71 25.75 29.71 23.1 29.33 23.1 29.33 25.05"/><polygon class="cls-3" points="30.93 23.02 30.29 23.58 30.8 23.58 31.07 23.35 31.34 23.58 31.84 23.58 31.21 23.02 30.93 23.02"/><path class="cls-3" d="M31.71,24a.88.88,0,0,0-.66-.26,1,1,0,0,0-.75.3,1,1,0,0,0-.32.74,1,1,0,0,0,.31.74,1.06,1.06,0,0,0,.76.3.9.9,0,0,0,.66-.26v.21h.37v-2h-.37Zm-.18,1.27a.62.62,0,0,1-.48.2.68.68,0,0,1-.5-.19.66.66,0,0,1-.2-.49.71.71,0,0,1,.2-.51.66.66,0,0,1,.5-.19.62.62,0,0,1,.48.2.7.7,0,0,1,.2.49A.66.66,0,0,1,31.53,25.24Z"/><path class="cls-3" d="M33.26,23.71a.72.72,0,0,0-.51.18v-.13h-.37v2h.37v-1.1a.88.88,0,0,1,0-.24.48.48,0,0,1,.48-.34.5.5,0,0,1,.36.14.56.56,0,0,1,.12.2,1.09,1.09,0,0,1,0,.26v1.08h.37V24.66a1,1,0,0,0-.22-.68A.84.84,0,0,0,33.26,23.71Z"/><path class="cls-3" d="M36,24a.86.86,0,0,0-.65-.26,1,1,0,0,0-.74.31,1,1,0,0,0,.74,1.77,1.09,1.09,0,0,0,.44-.1,1.16,1.16,0,0,0,.21-.16.61.61,0,0,1-.16.43.59.59,0,0,1-.44.17.63.63,0,0,1-.64-.43v0H34.4l0,.09a.92.92,0,0,0,.38.54,1.11,1.11,0,0,0,.63.18.93.93,0,0,0,.79-.37.75.75,0,0,0,.15-.35q0-.08,0-.18V23.76H36Zm-.18,1.27a.61.61,0,0,1-.47.2.62.62,0,0,1-.48-.2.73.73,0,0,1,0-1,.62.62,0,0,1,.48-.2.61.61,0,0,1,.47.2.7.7,0,0,1,0,1Z"/><path class="cls-3" d="M39.26,24a.86.86,0,0,0-.65-.26,1,1,0,0,0-.74.31,1,1,0,0,0-.3.74,1,1,0,0,0,1,1,1.09,1.09,0,0,0,.44-.1,1.16,1.16,0,0,0,.21-.16.57.57,0,0,1-.16.43.59.59,0,0,1-.44.17A.63.63,0,0,1,38,25.7v0h-.39l0,.09a.92.92,0,0,0,.38.54,1.11,1.11,0,0,0,.63.18.93.93,0,0,0,.79-.37.75.75,0,0,0,.15-.35l0-.18V23.76h-.37Zm-.18,1.27a.61.61,0,0,1-.47.2.62.62,0,0,1-.48-.2.73.73,0,0,1,0-1,.62.62,0,0,1,.48-.2.61.61,0,0,1,.47.2.7.7,0,0,1,0,1Z"/><rect class="cls-3" x="39.95" y="23.1" width="0.37" height="0.56"/><rect class="cls-3" x="39.95" y="23.76" width="0.37" height="1.99"/><path class="cls-3" d="M42.27,24a.87.87,0,0,0-.66-.26,1.05,1.05,0,0,0-.75.3,1,1,0,0,0-.31.74,1,1,0,0,0,.31.74,1,1,0,0,0,.75.3.88.88,0,0,0,.66-.26v.21h.37v-2h-.37Zm-.18,1.27a.62.62,0,0,1-.48.2.69.69,0,0,1-.5-.19.66.66,0,0,1-.19-.49.7.7,0,0,1,.19-.51.69.69,0,0,1,.5-.19.62.62,0,0,1,.48.2.7.7,0,0,1,.2.49A.66.66,0,0,1,42.09,25.24Z"/><polygon class="cls-3" points="41.96 22.92 41.17 23.36 41.34 23.67 42.13 23.24 41.96 22.92"/><polygon class="cls-3" points="44.47 23.1 44.1 23.1 44.1 23.76 43.71 23.76 43.71 24.1 44.1 24.1 44.1 25.75 44.47 25.75 44.47 24.1 44.91 24.1 44.91 23.76 44.47 23.76 44.47 23.1"/><path class="cls-3" d="M45.52,23.79l-.12.09v-.12H45v2h.37V24.59a.45.45,0,0,1,.47-.5h.06V23.7h-.07A.89.89,0,0,0,45.52,23.79Z"/><rect class="cls-3" x="46.04" y="25.82" width="0.38" height="0.56"/><rect class="cls-3" x="46.05" y="23.76" width="0.37" height="1.99"/><rect class="cls-3" x="46.05" y="23.1" width="0.37" height="0.56"/><path class="cls-3" d="M49.25,25.1a.62.62,0,0,1-.6.34.66.66,0,0,1-.5-.2.68.68,0,0,1-.2-.49.68.68,0,0,1,.7-.69.62.62,0,0,1,.6.35l0,0h.39l0-.09a1,1,0,0,0-.39-.48,1.12,1.12,0,0,0-.59-.17,1,1,0,0,0-.75.3,1,1,0,0,0-.32.74,1,1,0,0,0,.32.74,1,1,0,0,0,.75.3,1,1,0,0,0,1-.63l0-.09h-.4Z"/><path class="cls-3" d="M51.24,24.8a1,1,0,0,1,0,.28.43.43,0,0,1-.14.23.48.48,0,0,1-.35.13.43.43,0,0,1-.38-.16.68.68,0,0,1-.11-.44V23.76h-.37v1.09a1.69,1.69,0,0,0,0,.33,1,1,0,0,0,.14.31.83.83,0,0,0,.69.3.79.79,0,0,0,.38-.09.91.91,0,0,0,.16-.11v.15h.35v-2h-.36Z"/><polygon class="cls-3" points="52.74 23.02 52.1 23.58 52.61 23.58 52.88 23.35 53.15 23.58 53.65 23.58 53.02 23.02 52.74 23.02"/><rect class="cls-3" x="52.69" y="25.82" width="0.38" height="0.56"/><path class="cls-3" d="M52.88,23.71a1,1,0,0,0-.74.31,1,1,0,0,0-.3.74,1,1,0,0,0,.31.72,1,1,0,0,0,.73.31,1,1,0,0,0,.73-.31,1,1,0,0,0,0-1.46A1,1,0,0,0,52.88,23.71Zm.48,1.53a.62.62,0,0,1-.48.2.6.6,0,0,1-.47-.2.7.7,0,0,1,0-1,.6.6,0,0,1,.48-.21.61.61,0,0,1,.47.2.67.67,0,0,1,.2.48A.74.74,0,0,1,53.36,25.24Z"/><path class="cls-3" d="M55.72,25.1a.61.61,0,0,1-.59.34.66.66,0,0,1-.5-.2.64.64,0,0,1-.2-.49.66.66,0,0,1,.2-.5.69.69,0,0,1,.5-.19.61.61,0,0,1,.59.35l0,0h.4l0-.09a1,1,0,0,0-.39-.48,1.07,1.07,0,0,0-.59-.17,1.05,1.05,0,0,0-.75.3,1,1,0,0,0-.31.74,1,1,0,0,0,.31.74,1.05,1.05,0,0,0,.75.3,1,1,0,0,0,1-.63l0-.09h-.41Z"/><path class="cls-3" d="M58.11,24.63,58,24.55l-.16-.06-.13-.06a.17.17,0,0,1-.1-.16c0-.15.06-.21.21-.21s.2,0,.22.23v.06h.37v-.07a.53.53,0,0,0-.17-.4.6.6,0,0,0-.83,0,.57.57,0,0,0-.17.42.46.46,0,0,0,.16.38.56.56,0,0,0,.15.1.84.84,0,0,0,.16.07l.16.06.12.07a.23.23,0,0,1,.11.21c0,.18-.08.26-.28.26s-.26,0-.27-.31v-.07h-.36v.09a.63.63,0,0,0,.18.46.6.6,0,0,0,.45.18.57.57,0,0,0,.65-.63.58.58,0,0,0-.15-.42A.5.5,0,0,0,58.11,24.63Z"/><path class="cls-3" d="M59.54,23.71a1,1,0,0,0-.73.31,1,1,0,0,0-.3.74,1,1,0,0,0,.31.72,1,1,0,0,0,.72.31,1,1,0,0,0,0-2.08ZM60,25.24a.62.62,0,0,1-.48.2.63.63,0,0,1-.48-.2.66.66,0,0,1-.19-.48.67.67,0,0,1,.19-.49.6.6,0,0,1,.48-.21.61.61,0,0,1,.47.2.66.66,0,0,1,.19.48A.73.73,0,0,1,60,25.24Z"/><polygon class="cls-3" points="59.8 23.06 59.88 23.19 59.69 23.02 59.41 23.02 58.77 23.58 59.28 23.58 59.55 23.35 59.82 23.58 60.32 23.58 60.04 23.33 60.76 22.94 60.59 22.62 59.8 23.06"/><path class="cls-3" d="M61.69,23.71a.72.72,0,0,0-.51.18v-.13h-.37v2h.37v-1.1a.88.88,0,0,1,0-.24.52.52,0,0,1,.84-.2.56.56,0,0,1,.12.2,1.09,1.09,0,0,1,0,.26v1.08h.37V24.66a1,1,0,0,0-.22-.68A.84.84,0,0,0,61.69,23.71Z"/><path class="cls-3" d="M64.47,24a.86.86,0,0,0-.65-.26,1,1,0,0,0-.74.31,1,1,0,0,0-.3.74,1,1,0,0,0,.31.73,1,1,0,0,0,.73.3,1.05,1.05,0,0,0,.44-.1.89.89,0,0,0,.21-.16.57.57,0,0,1-.16.43.59.59,0,0,1-.44.17.62.62,0,0,1-.63-.43l0,0h-.38l0,.09a1,1,0,0,0,.38.54,1.11,1.11,0,0,0,.63.18.93.93,0,0,0,.79-.37.66.66,0,0,0,.15-.35.84.84,0,0,0,0-.18V23.76h-.37Zm-.18,1.27a.61.61,0,0,1-.47.2.62.62,0,0,1-.48-.2.73.73,0,0,1,0-1,.62.62,0,0,1,.48-.2.6.6,0,0,1,.47.2.7.7,0,0,1,0,1Z"/></svg>