<svg id="Layer_1" data-name="Layer 1" xmlns="http://www.w3.org/2000/svg" viewBox="0 0 65 30"><defs><style>.cls-1,.cls-3{fill:#e7212a;}.cls-2{fill:#211c1e;}.cls-3{fill-rule:evenodd;}</style></defs><path class="cls-1" d="M13.92,22.91a2.88,2.88,0,0,0-1.08.19,2.59,2.59,0,0,0-.86.59,2.79,2.79,0,0,0-.61.92,3.06,3.06,0,0,0-.2,1.12,3,3,0,0,0,.32,1.4,2.78,2.78,0,0,0,.92,1,2,2,0,0,0,.7.32,2.6,2.6,0,0,0,.81.11,2.74,2.74,0,0,0,.7-.09,3.47,3.47,0,0,0,.7-.25V26.62a2.31,2.31,0,0,1-.6.49,1.33,1.33,0,0,1-.65.16,1.37,1.37,0,0,1-1-.43,1.71,1.71,0,0,1,0-2.2,1.28,1.28,0,0,1,1-.44,1.44,1.44,0,0,1,.65.15,2.81,2.81,0,0,1,.6.49v-1.6a3.53,3.53,0,0,0-.7-.26A2.73,2.73,0,0,0,13.92,22.91Z"/><path class="cls-1" d="M38.79,23H37.33l-.82,2.79c0,.16-.08.3-.1.42a1.43,1.43,0,0,0-.07.32,2.5,2.5,0,0,0-.14-.63.89.89,0,0,1,0-.11L35.36,23H33.89l-.83,5.41h1.38l.31-2.34c0-.19,0-.4.07-.59s0-.41.06-.61a4.63,4.63,0,0,0,.19.85.45.45,0,0,1,0,.16l.74,2.53h1l.74-2.53a1.26,1.26,0,0,1,0-.16,5.86,5.86,0,0,0,.2-.85c0,.23,0,.45,0,.66s0,.38.06.54l.32,2.34h1.38Z"/><polygon class="cls-1" points="2.5 24.31 3.72 24.31 3.72 28.43 5.18 28.43 5.18 24.31 6.39 24.31 6.39 23.02 2.5 23.02 2.5 24.31"/><polygon class="cls-1" points="7.12 28.43 10.43 28.43 10.43 27.22 8.55 27.22 8.55 26.31 10.32 26.31 10.32 25.15 8.55 25.15 8.55 24.22 10.43 24.22 10.43 23.02 7.12 23.02 7.12 28.43"/><path class="cls-1" d="M31.66,23.73a2.88,2.88,0,0,0-.94-.61,3,3,0,0,0-2.21,0,2.94,2.94,0,0,0-.93.61,2.88,2.88,0,0,0-.64.92,2.82,2.82,0,0,0-.21,1.09,2.86,2.86,0,0,0,.21,1.09,3,3,0,0,0,.64.92,2.78,2.78,0,0,0,.93.61,3,3,0,0,0,2.21,0,2.82,2.82,0,0,0,.94-.61,3,3,0,0,0,.63-.91,2.77,2.77,0,0,0,.22-1.1,2.66,2.66,0,0,0-.22-1.09A3,3,0,0,0,31.66,23.73Zm-1,3.15a1.37,1.37,0,0,1-2,0,1.63,1.63,0,0,1-.39-1.14,1.58,1.58,0,0,1,.4-1.13,1.33,1.33,0,0,1,2,0A1.59,1.59,0,0,1,31,25.74,1.65,1.65,0,0,1,30.63,26.88Z"/><path class="cls-1" d="M24.73,22.91a2.8,2.8,0,0,0-1.07.19,2.53,2.53,0,0,0-.87.59,2.64,2.64,0,0,0-.61.92,3.06,3.06,0,0,0-.2,1.12,3,3,0,0,0,.32,1.4,2.69,2.69,0,0,0,.92,1,2,2,0,0,0,.69.32,2.63,2.63,0,0,0,.82.11,2.86,2.86,0,0,0,.7-.09,3.39,3.39,0,0,0,.69-.25V26.62a2.16,2.16,0,0,1-.6.49,1.29,1.29,0,0,1-.64.16,1.35,1.35,0,0,1-1-.43,1.73,1.73,0,0,1,0-2.2,1.33,1.33,0,0,1,1-.44,1.4,1.4,0,0,1,.64.15,2.59,2.59,0,0,1,.6.49v-1.6a3.45,3.45,0,0,0-.69-.26A2.82,2.82,0,0,0,24.73,22.91Z"/><polygon class="cls-1" points="19.58 25.13 17.62 25.13 17.62 23.02 16.15 23.02 16.15 28.43 17.62 28.43 17.62 26.23 19.58 26.23 19.58 28.43 21.06 28.43 21.06 23.02 19.58 23.02 19.58 25.13"/><polygon class="cls-2" points="60.33 25.67 62.33 23.03 60.62 23.03 58.9 25.49 58.9 23.03 57.44 23.03 57.44 28.44 58.9 28.44 58.9 26.01 60.66 28.44 62.5 28.44 60.33 25.67"/><path class="cls-2" d="M47.7,23h-.94L44.9,28.44h1.46l.29-1h2.08l.28,1h1.48L48.61,23Zm0,3.39H47l.54-1.78.09-.35a3.54,3.54,0,0,0,.09-.38h0c0,.19.08.34.11.46a1.68,1.68,0,0,0,.07.27l.54,1.78Z"/><path class="cls-2" d="M43.42,25.53a1.57,1.57,0,0,0,.75-.41,1.08,1.08,0,0,0,.23-.73,1.22,1.22,0,0,0-.16-.64,1.1,1.1,0,0,0-.45-.46,2,2,0,0,0-.63-.2c-.17,0-.42,0-.77-.05h-2v5.41h2a7.66,7.66,0,0,0,.87-.06,2.37,2.37,0,0,0,.68-.21,1.28,1.28,0,0,0,.52-.51,1.46,1.46,0,0,0,.18-.77,1.24,1.24,0,0,0-1.22-1.36ZM41.78,24.1h.31l.3,0a.93.93,0,0,1,.44.12.44.44,0,0,1,.19.42.5.5,0,0,1-.19.42,1.14,1.14,0,0,1-.44.1l-.32,0h-.29ZM43,27.2a1.24,1.24,0,0,1-.64.14h-.61V26.16h.61a1.27,1.27,0,0,1,.66.14.53.53,0,0,1,.2.47A.43.43,0,0,1,43,27.2Z"/><path class="cls-2" d="M54.87,25.7c0,.14,0,.3,0,.47s0,.38.07.6c-.11-.23-.21-.44-.3-.61l-.19-.35-2-2.78H51v5.41h1.42V25.77c0-.14,0-.29,0-.47s0-.37-.06-.59c.11.22.2.43.29.6l.19.34,2,2.79h1.41V23H54.87Z"/><path class="cls-3" d="M32.49,5.43l-4,4,4,4-4,4-8-8,8-8,4,4Zm12,4-8-8-4,4,4,4-4,4,4,4,8-8Z"/></svg>