<svg id="Layer_1" data-name="Layer 1" xmlns="http://www.w3.org/2000/svg" viewBox="0 0 65 30"><defs><style>.cls-1,.cls-2{fill:#ec1c24;}.cls-2,.cls-4{fill-rule:evenodd;}.cls-3,.cls-4{fill:#008346;}</style></defs><path class="cls-1" d="M63.32,22.48a.88.88,0,0,0,.17.6.54.54,0,0,0,.43.2.53.53,0,0,0,.42-.2,1.09,1.09,0,0,0,0-1.17.56.56,0,0,0-.85,0,.89.89,0,0,0-.17.58ZM63,23.74h0l.35.06a.35.35,0,0,0,.13.23.58.58,0,0,0,.37.1.64.64,0,0,0,.4-.1.51.51,0,0,0,.19-.28,2.33,2.33,0,0,0,0-.45.76.76,0,0,1-.6.27.81.81,0,0,1-.69-.31,1.16,1.16,0,0,1-.25-.76,1.3,1.3,0,0,1,.12-.55.8.8,0,0,1,.32-.4.92.92,0,0,1,.5-.14.78.78,0,0,1,.64.31v-.26h.34v1.82a1.69,1.69,0,0,1-.1.7.75.75,0,0,1-.33.33,1.16,1.16,0,0,1-.56.12,1.11,1.11,0,0,1-.63-.17.58.58,0,0,1-.22-.52Zm-2.27-.17h0V21.46h.33v.3a.79.79,0,0,1,.69-.35,1,1,0,0,1,.36.07.49.49,0,0,1,.25.18.74.74,0,0,1,.12.27,2.39,2.39,0,0,1,0,.35v1.29h-.38V22.29a1.31,1.31,0,0,0,0-.33.37.37,0,0,0-.16-.17.53.53,0,0,0-.26-.07.59.59,0,0,0-.4.15.68.68,0,0,0-.18.55v1.15Zm-2.1.24h.42v.41h-.42v-.41Zm1.3-2h0v-.41h.39v.33a.73.73,0,0,1-.08.37,1,1,0,0,1-.36.32v.06a1,1,0,0,1-.5,1,1.14,1.14,0,0,1-.52.13,1,1,0,0,1-.74-.28,1.15,1.15,0,0,1-.29-.83,1.08,1.08,0,0,1,.34-.86,1,1,0,0,1,.69-.24,1,1,0,0,1,.73.29,1,1,0,0,1,.27.56.72.72,0,0,0,.2-.18.45.45,0,0,0,.06-.26Zm-1.72.69h0a.91.91,0,0,0,.19.61.55.55,0,0,0,.46.2.55.55,0,0,0,.45-.2,1.11,1.11,0,0,0,0-1.21.58.58,0,0,0-.45-.2.58.58,0,0,0-.46.2.9.9,0,0,0-.19.6Zm-1-.64h0v-.41h.4v.33a.93.93,0,0,1-.08.44.7.7,0,0,1-.57.35v1H56.6v-.31a.77.77,0,0,1-.68.36.86.86,0,0,1-.36-.07.62.62,0,0,1-.25-.18.56.56,0,0,1-.12-.27,2.44,2.44,0,0,1,0-.34v-1.3h.37v1.17a2.8,2.8,0,0,0,0,.38.39.39,0,0,0,.43.3.56.56,0,0,0,.31-.09.41.41,0,0,0,.21-.22,1.07,1.07,0,0,0,.06-.41V21.46h.37v1a.6.6,0,0,0,.39-.23.66.66,0,0,0,.05-.33Zm-3.9,1.7h0l-1.17-2.91h.43l.79,2.11q.09.26.15.48c0-.16.1-.32.16-.48l.81-2.11h.41l-1.18,2.91Zm-4.41,0h0V20.66h.36v1a.88.88,0,0,1,.66-.29,1.08,1.08,0,0,1,.42.09.57.57,0,0,1,.25.26,1,1,0,0,1,.08.48v1.33h-.37V22.24a.56.56,0,0,0-.12-.4.45.45,0,0,0-.34-.12.68.68,0,0,0-.31.08.5.5,0,0,0-.2.23.82.82,0,0,0-.07.39v1.15Zm-2.34,0h0V21.46h.33v.3a.8.8,0,0,1,.7-.35,1,1,0,0,1,.36.07.51.51,0,0,1,.24.18.61.61,0,0,1,.12.27,2.39,2.39,0,0,1,0,.35v1.29h-.37V22.29a.92.92,0,0,0,0-.33.35.35,0,0,0-.15-.17.56.56,0,0,0-.26-.07.61.61,0,0,0-.41.15.72.72,0,0,0-.17.55v1.15Zm-1,.24H46v.41h-.42v-.41Zm0-2.35H46v2.11h-.37V21.46Zm0-.8H46v.41h-.37v-.41Zm-2.34,2.91h0V20.66h.37v1a.84.84,0,0,1,.65-.29,1.08,1.08,0,0,1,.42.09.59.59,0,0,1,.26.26,1.19,1.19,0,0,1,.08.48v1.33h-.37V22.24a.56.56,0,0,0-.12-.4.49.49,0,0,0-.34-.12.65.65,0,0,0-.31.08.47.47,0,0,0-.21.23,1,1,0,0,0-.06.39v1.15Zm-1.75,0h0V21h-1v-.34h2.39V21h-1v2.57Zm-5.4,0h0V21.46h.33v.3a.65.65,0,0,1,.27-.25.81.81,0,0,1,.39-.1.75.75,0,0,1,.39.1.51.51,0,0,1,.22.28.8.8,0,0,1,.67-.38.67.67,0,0,1,.5.18.69.69,0,0,1,.18.53v1.45H38.7V22.24a1.14,1.14,0,0,0,0-.31.37.37,0,0,0-.13-.15.44.44,0,0,0-.23-.06.52.52,0,0,0-.38.15.65.65,0,0,0-.15.47v1.23h-.37V22.2a.6.6,0,0,0-.09-.36.35.35,0,0,0-.3-.12.54.54,0,0,0-.28.08.48.48,0,0,0-.19.23,1.36,1.36,0,0,0-.06.45v1.09Zm-.95-1.06h0a2.41,2.41,0,0,1-.6.14,1.19,1.19,0,0,0-.32.07.26.26,0,0,0-.15.12.3.3,0,0,0,.06.4.47.47,0,0,0,.33.1.75.75,0,0,0,.37-.09.55.55,0,0,0,.25-.25.84.84,0,0,0,.06-.36v-.13Zm0,.8h0a1.72,1.72,0,0,1-.39.24,1.14,1.14,0,0,1-.41.07.82.82,0,0,1-.55-.17.56.56,0,0,1-.2-.44.57.57,0,0,1,.08-.28.52.52,0,0,1,.19-.2.66.66,0,0,1,.27-.12l.32-.06a3,3,0,0,0,.66-.12v-.09a.39.39,0,0,0-.1-.31.64.64,0,0,0-.42-.12.68.68,0,0,0-.39.09.54.54,0,0,0-.18.31l-.36-.05a.75.75,0,0,1,.16-.36.78.78,0,0,1,.33-.21,1.44,1.44,0,0,1,.49-.08,1.12,1.12,0,0,1,.45.07.55.55,0,0,1,.26.16.54.54,0,0,1,.12.24,2.65,2.65,0,0,1,0,.33v.48a3.89,3.89,0,0,0,0,.63.58.58,0,0,0,.09.25h-.38a.66.66,0,0,1-.08-.26Zm-4.41.26h0V20.66h.41l1.58,2.28V20.66h.38v2.91h-.41l-1.58-2.29v2.29Zm-1.57-.32h0l.06.32-.29,0a.68.68,0,0,1-.31-.06.35.35,0,0,1-.15-.17,1.14,1.14,0,0,1-.05-.42V21.74h-.27v-.28h.27v-.52l.37-.22v.74h.37v.28h-.37V23a.75.75,0,0,0,0,.2.13.13,0,0,0,.06.07l.13,0Zm-2.44.56h.42v.41h-.42v-.41ZM27,20.86h0l-.22.34h-.43l.44-.56h.39l.47.56h-.42L27,20.86Zm-.6,1.46h1.21a.64.64,0,0,0-.14-.41.58.58,0,0,0-.45-.2.59.59,0,0,0-.43.16.62.62,0,0,0-.19.45Zm1.21.57h0l.38.05a.86.86,0,0,1-.34.5,1,1,0,0,1-.62.18,1,1,0,0,1-.75-.28,1.33,1.33,0,0,1,0-1.63,1,1,0,0,1,.73-.3.94.94,0,0,1,.71.29,1.09,1.09,0,0,1,.28.81v.1H26.34a.78.78,0,0,0,.2.53.61.61,0,0,0,.45.18.58.58,0,0,0,.35-.1.7.7,0,0,0,.23-.33Zm-2.42-1.43h.37v2.11h-.37V21.46Zm0-.8h.37v.41h-.37v-.41Zm-1.82,2.91h0l-1.17-2.91h.43l.78,2.11a3.85,3.85,0,0,1,.16.48c0-.16.11-.32.16-.48l.81-2.11h.41l-1.17,2.91Zm-4.18-1.09h0a.83.83,0,0,0,.18.6.53.53,0,0,0,.42.2.57.57,0,0,0,.43-.2,1.07,1.07,0,0,0,0-1.17.52.52,0,0,0-.42-.2.52.52,0,0,0-.42.19.84.84,0,0,0-.18.58Zm-.3,1.26h0l.36.06a.35.35,0,0,0,.13.23.56.56,0,0,0,.37.1.68.68,0,0,0,.4-.1.56.56,0,0,0,.19-.28,3.68,3.68,0,0,0,0-.45.78.78,0,0,1-.6.27.84.84,0,0,1-.7-.31,1.21,1.21,0,0,1-.24-.76,1.29,1.29,0,0,1,.11-.55.82.82,0,0,1,.33-.4.89.89,0,0,1,.5-.14.75.75,0,0,1,.63.31v-.26h.35v1.82a1.66,1.66,0,0,1-.11.7.78.78,0,0,1-.32.33,1.19,1.19,0,0,1-.56.12,1.09,1.09,0,0,1-.63-.17.57.57,0,0,1-.23-.52Zm-2.27-.17h0V21.46h.33v.3a.82.82,0,0,1,.7-.35,1,1,0,0,1,.36.07.6.6,0,0,1,.25.18.73.73,0,0,1,.11.27,2.39,2.39,0,0,1,0,.35v1.29H18V22.29a.92.92,0,0,0,0-.33.35.35,0,0,0-.15-.17.56.56,0,0,0-.26-.07.61.61,0,0,0-.41.15.68.68,0,0,0-.17.55v1.15ZM15.43,21.2h-.29l-.47-.56h.49l.27.56Zm.21,1.31h0a2.67,2.67,0,0,1-.6.14,1.19,1.19,0,0,0-.33.07.28.28,0,0,0-.14.12.25.25,0,0,0-.06.16.29.29,0,0,0,.12.24.44.44,0,0,0,.32.1.79.79,0,0,0,.38-.09.67.67,0,0,0,.25-.25.84.84,0,0,0,.06-.36v-.13Zm0,.8h0a1.57,1.57,0,0,1-.4.24,1.07,1.07,0,0,1-.41.07.84.84,0,0,1-.55-.17.55.55,0,0,1-.19-.44.68.68,0,0,1,.07-.28.73.73,0,0,1,.19-.2.66.66,0,0,1,.27-.12l.33-.06a3.29,3.29,0,0,0,.66-.12v-.09a.39.39,0,0,0-.11-.31.62.62,0,0,0-.42-.12.64.64,0,0,0-.38.09.54.54,0,0,0-.18.31l-.37-.05a.86.86,0,0,1,.17-.36.69.69,0,0,1,.32-.21,1.54,1.54,0,0,1,.5-.08,1.18,1.18,0,0,1,.45.07.61.61,0,0,1,.26.16.53.53,0,0,1,.11.24,2.16,2.16,0,0,1,0,.33v.48c0,.33,0,.54,0,.63a.77.77,0,0,0,.1.25h-.39a.66.66,0,0,1-.07-.26Zm-4.4.26h0V20.66h.4v1.19h1.56V20.66h.4v2.91h-.4V22.2H11.67v1.37Zm-3.56,0h0V21.46H8v.3a.81.81,0,0,1,.69-.35,1.06,1.06,0,0,1,.37.07.51.51,0,0,1,.24.18.61.61,0,0,1,.12.27,2.39,2.39,0,0,1,0,.35v1.29H9.11V22.29a.92.92,0,0,0,0-.33.35.35,0,0,0-.15-.17.56.56,0,0,0-.26-.07.59.59,0,0,0-.41.15.72.72,0,0,0-.17.55v1.15ZM6.26,20.86h0L6,21.2H5.6l.45-.56h.39l.46.56H6.48l-.22-.34Zm.51,1.65h0a2.64,2.64,0,0,1-.61.14,1.19,1.19,0,0,0-.32.07c-.06,0-.12.06-.14.12a.25.25,0,0,0-.06.16.3.3,0,0,0,.11.24.48.48,0,0,0,.33.1.79.79,0,0,0,.38-.09A.58.58,0,0,0,6.7,23a.82.82,0,0,0,.07-.36v-.13Zm0,.8h0a1.57,1.57,0,0,1-.4.24,1.09,1.09,0,0,1-.4.07.83.83,0,0,1-.56-.17A.55.55,0,0,1,5.25,23a.55.55,0,0,1,.07-.28.73.73,0,0,1,.19-.2.66.66,0,0,1,.27-.12l.33-.06a3.29,3.29,0,0,0,.66-.12v-.09a.39.39,0,0,0-.11-.31.62.62,0,0,0-.42-.12.64.64,0,0,0-.38.09.55.55,0,0,0-.19.31l-.36-.05a.86.86,0,0,1,.16-.36.78.78,0,0,1,.33-.21,1.48,1.48,0,0,1,.49-.08,1.2,1.2,0,0,1,.46.07.61.61,0,0,1,.26.16.53.53,0,0,1,.11.24,2.16,2.16,0,0,1,0,.33v.48a4.41,4.41,0,0,0,0,.63,1.06,1.06,0,0,0,.09.25H6.87a.53.53,0,0,1-.07-.26Zm-3.53-.83h0a.83.83,0,0,0,.18.6.54.54,0,0,0,.43.2.56.56,0,0,0,.42-.2.87.87,0,0,0,.17-.59.82.82,0,0,0-.18-.58.52.52,0,0,0-.43-.2.53.53,0,0,0-.41.19.84.84,0,0,0-.18.58ZM3,23.74H3l.36.06a.34.34,0,0,0,.12.23.63.63,0,0,0,.38.1.68.68,0,0,0,.4-.1.49.49,0,0,0,.18-.28,1.56,1.56,0,0,0,0-.45.77.77,0,0,1-.6.27.84.84,0,0,1-.7-.31,1.21,1.21,0,0,1-.24-.76A1.46,1.46,0,0,1,3,22a.87.87,0,0,1,.33-.4.92.92,0,0,1,.5-.14.75.75,0,0,1,.63.31v-.26h.34v1.82a1.69,1.69,0,0,1-.1.7.75.75,0,0,1-.33.33,1.15,1.15,0,0,1-.55.12,1.09,1.09,0,0,1-.63-.17A.57.57,0,0,1,3,23.74ZM.05,23.57h0V20.66H.46L2,22.94V20.66h.39v2.91H2L.43,21.28v2.29Z"/><path class="cls-2" d="M0,11.77c1.73,1.7,3.08,3.29,4.59,4.8,1.24,1.3,2.48,2.6,3.5,2.77l0-3.65c-1.55-1.54-3.07-3.52-4.66-3.92Z"/><path class="cls-2" d="M16.78,11.77c-1.74,1.7-3.09,3.29-4.59,4.8-1.25,1.3-2.48,2.6-3.51,2.77,0-1.22,0-2.44,0-3.65,1.54-1.54,3.06-3.52,4.65-3.92Z"/><path class="cls-2" d="M8.08,9.26v5.62L5.94,12.63A3.77,3.77,0,0,1,4.6,10V5.59L8.08,9.26Z"/><path class="cls-2" d="M8.66,9.26v5.62l2.13-2.25A3.79,3.79,0,0,0,12.11,10V5.57L8.66,9.26Z"/><path class="cls-2" d="M60.2,15,62,13.18a2.53,2.53,0,0,1,1.14-.69H65l-3.8,3.86a1.76,1.76,0,0,1-1,.58V15Z"/><path class="cls-3" d="M28.27,19.16V9.27h2.89a10.32,10.32,0,0,1,2.15.14,2.38,2.38,0,0,1,1.29,1,3.29,3.29,0,0,1,.51,1.91,3.28,3.28,0,0,1-.33,1.49,2.68,2.68,0,0,1-.76,1,2.49,2.49,0,0,1-.94.46,8.08,8.08,0,0,1-1.83.18H30.07v3.77Zm1.78-8.4h0v3.13H31a5,5,0,0,0,1.6-.17,1.5,1.5,0,0,0,.63-.54,1.62,1.62,0,0,0,.23-.86,1.51,1.51,0,0,0-.33-1,1.31,1.31,0,0,0-.81-.48,8.58,8.58,0,0,0-1.45-.08Z"/><path class="cls-3" d="M36.28,9.26H40a2.42,2.42,0,0,1,2.63,2.37,2.13,2.13,0,0,1-1.23,2.16,2.92,2.92,0,0,1,1.87,2.5c.1,1.33-.54,2.57-2.57,2.82a13,13,0,0,1-1.71.06H36.29V9.26ZM37.9,10.7h0v2.5h.87a10.67,10.67,0,0,0,1.18,0,1.37,1.37,0,0,0,.8-.43,1.32,1.32,0,0,0,0-1.6,1,1,0,0,0-.7-.38,12.41,12.41,0,0,0-1.46-.07Zm0,3.89h0v3.05h1.48a7.14,7.14,0,0,0,1.24-.07,1.31,1.31,0,0,0,1-1.31c-.06-1.37-1.54-1.66-2.17-1.67Z"/><path class="cls-4" d="M48.51,15.78v1.53c-.41.5-2.06,1.48-2.27-.06l0-.53c.06-.52.39-.88,1.28-.95Zm-3.65-3.11h0v.22a9.74,9.74,0,0,1,.43,1A5.66,5.66,0,0,1,47,13.35c.89-.12,1.45.19,1.49.74v.65a5.58,5.58,0,0,0-3.31.76,2.54,2.54,0,0,0-.51,2.75,1.7,1.7,0,0,0,1.76,1.05,3.1,3.1,0,0,0,2.16-.95,2.2,2.2,0,0,0,.29.81h1.39c0-.19-.05-.5-.07-.85,0-1.47,0-2.69,0-4.16A1.82,1.82,0,0,0,49,12.23a7.11,7.11,0,0,0-4.1.44Z"/><path class="cls-4" d="M53.27,19.14H51.53V12.26h1.29l.21.11,0,.59h.08a4.12,4.12,0,0,1,2.58-.84,1.54,1.54,0,0,1,1.51,1.72v5.3H55.47V14.08c-.13-1.17-1.54-.46-2.2-.07v5.13Z"/><path class="cls-4" d="M62.21,15.31l2.55,3.85h-2c-.51-.93-1.16-1.86-1.58-2.76l1.07-1.09Z"/><polygon class="cls-4" points="58.46 9.25 60.21 9.25 60.21 19.18 58.46 19.18 58.46 9.25 58.46 9.25"/><path class="cls-4" d="M19.3,9.23h1.78a29.52,29.52,0,0,0,2.19,8.17,28.6,28.6,0,0,0,2.08-8.17h1.76a29.67,29.67,0,0,1-3,9.91H22.33a29.92,29.92,0,0,1-3-9.91Z"/></svg>