<svg id="Layer_1" data-name="Layer 1" xmlns="http://www.w3.org/2000/svg" viewBox="0 0 65 30"><defs><style>.cls-1{fill:#184991;fill-rule:evenodd;}</style></defs><path class="cls-1" d="M25.62,18.07a.91.91,0,0,1-.65.5.86.86,0,0,1-.23,0c-.47,0-.7-.27-.7-.82a4.43,4.43,0,0,1,.34-1.25A.88.88,0,0,1,25,16a1.29,1.29,0,0,1,.29,0c.43,0,.65.3.65.89a2.53,2.53,0,0,1-.29,1.17Zm1.61-2.87a3.21,3.21,0,0,0-1.8-.48,3.54,3.54,0,0,0-.46,0,3.61,3.61,0,0,0-1.74.62,3,3,0,0,0-1.22,2l0,.25,0,.3a1.73,1.73,0,0,0,.73,1.51,3.16,3.16,0,0,0,1.85.51l.44,0,.24,0,.48-.11.35-.13a4.14,4.14,0,0,0,.67-.35,3.42,3.42,0,0,0,.57-.51A3.05,3.05,0,0,0,28,17.23l.05-.5A1.66,1.66,0,0,0,27.23,15.2Z"/><path class="cls-1" d="M12,18.44a1.06,1.06,0,0,1-.35.27.44.44,0,0,1-.16.06,1,1,0,0,1-.3,0c-.37,0-.56-.12-.56-.37v0a.55.55,0,0,1,.27-.4l.31-.12a1.2,1.2,0,0,1,.28-.08h.14a4.55,4.55,0,0,0,.72-.2,1.7,1.7,0,0,1-.35.85ZM14.14,15a3.33,3.33,0,0,0-1.7-.3h-.15c-.31,0-.57,0-.83,0-1.36.14-2.12.68-2.3,1.61h2a.67.67,0,0,1,.3-.36,1,1,0,0,1,.51-.12c.41,0,.61.12.61.35s-.11.28-.33.36a3.7,3.7,0,0,1-.79.16l-.22,0-.77.11L10,17a2.65,2.65,0,0,0-.91.43,1.7,1.7,0,0,0-.58,1,.7.7,0,0,1,0,.14v.21a.91.91,0,0,0,.38.79,2.07,2.07,0,0,0,1.19.37h.1a3.41,3.41,0,0,0,1.36-.28,3.66,3.66,0,0,0,.67-.41v.54h2.13l0-.09a.69.69,0,0,1-.22-.37l.06-.33.45-2.4a3.77,3.77,0,0,0,.06-.6A1.06,1.06,0,0,0,14.14,15Z"/><path class="cls-1" d="M20.73,15.23a3.07,3.07,0,0,0-1.89-.51,3.51,3.51,0,0,0-2.41.77,3.28,3.28,0,0,0-1.08,1.89l0,.23-.05.27a1.89,1.89,0,0,0,.65,1.45,2.86,2.86,0,0,0,1.92.57,4.06,4.06,0,0,0,2.08-.52,2.46,2.46,0,0,0,1.16-1.51H19a1,1,0,0,1-.91.72c-.5,0-.76-.26-.76-.8a4.27,4.27,0,0,1,.34-1.27.91.91,0,0,1,.88-.51.57.57,0,0,1,.46.19.54.54,0,0,1,.15.4v.13h2.08l0-.28A1.52,1.52,0,0,0,20.73,15.23Z"/><path class="cls-1" d="M7.64,10.75a3.93,3.93,0,0,0-2.42-.67l-.61,0-.54.06a5.85,5.85,0,0,0-1,.28,4.11,4.11,0,0,0-1.5,1,3,3,0,0,0-.7,1.44l0,.3,0,.38a1.84,1.84,0,0,0,.77,1.61,6.77,6.77,0,0,0,2.14.87A12.3,12.3,0,0,1,5,16.51a.57.57,0,0,1,.3.46v.16c-.11.42-.53.64-1.24.64a1.48,1.48,0,0,1-.84-.24.85.85,0,0,1-.38-.75H0a.9.9,0,0,0,0,.35A2.42,2.42,0,0,0,.86,19a3.74,3.74,0,0,0,2.61.87,6,6,0,0,0,3-.76,3.36,3.36,0,0,0,1.63-2.43l0-.55a1.81,1.81,0,0,0-.67-1.46,4.94,4.94,0,0,0-1.9-.86l-.94-.26a2.38,2.38,0,0,1-.76-.34.52.52,0,0,1-.21-.41v-.11c.07-.33.39-.5,1-.5s1.09.24,1.09.75v0H8.52v-.16A2.51,2.51,0,0,0,7.64,10.75Z"/><path class="cls-1" d="M57.32,15.06a2,2,0,0,0-1.23-.34,2.59,2.59,0,0,0-1.94.91l.15-.79H52.4l-.91,4.93h2.07L54,17.25a1.53,1.53,0,0,1,.36-.8.9.9,0,0,1,.63-.2.52.52,0,0,1,.58.59V17l0,.15-.48,2.62h2l.56-3a2.46,2.46,0,0,0,.06-.59A1.36,1.36,0,0,0,57.32,15.06Z"/><polygon class="cls-1" points="65 14.65 62.59 14.65 60.98 16.14 61.8 11.7 59.74 11.7 58.25 19.77 60.32 19.77 60.62 18.2 61.06 17.82 61.84 19.77 64.31 19.77 62.73 16.55 65 14.65"/><path class="cls-1" d="M37.5,15a2,2,0,0,0-1.22-.31,2.62,2.62,0,0,0-2,.9c-.19-.61-.69-.9-1.52-.9h0a2.12,2.12,0,0,0-1,.25,2.71,2.71,0,0,0-.81.6l.13-.73H29.2l-.91,4.93h2.06l.46-2.52a1.63,1.63,0,0,1,.35-.76.8.8,0,0,1,.58-.24.47.47,0,0,1,.53.53l0,.43-.48,2.56h2.07l.47-2.52a1.31,1.31,0,0,1,.37-.83.9.9,0,0,1,.53-.17.64.64,0,0,1,.44.12.55.55,0,0,1,.13.4,2.58,2.58,0,0,1-.06.48l-.46,2.52h2.07l.54-2.95a3.67,3.67,0,0,0,.06-.7A1.31,1.31,0,0,0,37.5,15Z"/><path class="cls-1" d="M48.41,18.44a1.1,1.1,0,0,1-.36.27l-.15.06a1.1,1.1,0,0,1-.31,0c-.37,0-.55-.12-.55-.37v0a.52.52,0,0,1,.26-.4l.31-.12a1.48,1.48,0,0,1,.29-.08H48a4.59,4.59,0,0,0,.74-.2,1.79,1.79,0,0,1-.35.85ZM50.57,15a3.38,3.38,0,0,0-1.7-.3h-.16c-.29,0-.57,0-.81,0-1.37.14-2.14.68-2.3,1.61h2A.69.69,0,0,1,47.9,16a.94.94,0,0,1,.51-.12c.39,0,.6.12.6.35s-.11.28-.33.36a3.87,3.87,0,0,1-.78.16l-.24,0-.75.11-.54.1a2.63,2.63,0,0,0-.89.43,1.65,1.65,0,0,0-.58,1,1.19,1.19,0,0,1,0,.14v.21a.9.9,0,0,0,.39.79,2,2,0,0,0,1.18.37h.1a3.53,3.53,0,0,0,1.37-.28,3.28,3.28,0,0,0,.66-.41v.54h2.13l0-.09a.63.63,0,0,1-.22-.37l.06-.33.45-2.4a5.48,5.48,0,0,0,.06-.6A1.06,1.06,0,0,0,50.57,15Z"/><path class="cls-1" d="M42.18,18a1,1,0,0,1-.6.45l-.21,0c-.47,0-.7-.28-.7-.84A4,4,0,0,1,41,16.59a.8.8,0,0,1,.55-.36l.23,0c.45,0,.67.28.67.82a1.83,1.83,0,0,1-.3,1Zm.58-3.31a2.53,2.53,0,0,0-.87.13l-.31.17a3.83,3.83,0,0,0-.46.33l.67-3.65H39.71l-1.48,8.07h1.86l.15-.69a1.35,1.35,0,0,0,1.34.84h.1a2.55,2.55,0,0,0,2.09-1,3.43,3.43,0,0,0,.81-2.26A1.89,1.89,0,0,0,44,15.23,1.73,1.73,0,0,0,42.76,14.72Z"/></svg>