<svg id="Layer_1" data-name="Layer 1" xmlns="http://www.w3.org/2000/svg" xmlns:xlink="http://www.w3.org/1999/xlink" viewBox="0 0 65 30"><defs><style>.cls-1{fill:url(#linear-gradient);}.cls-2{fill:url(#linear-gradient-2);}.cls-3{fill:url(#linear-gradient-3);}.cls-4{fill:#5e2e86;}</style><linearGradient id="linear-gradient" x1="-10321.82" y1="-4519.82" x2="-10317.84" y2="-4529.61" gradientTransform="translate(-1229.88 -11183.42) rotate(-120)" gradientUnits="userSpaceOnUse"><stop offset="0" stop-color="#fcb813"/><stop offset="0.7" stop-color="#f48120"/><stop offset="1" stop-color="#dc5928"/></linearGradient><linearGradient id="linear-gradient-2" x1="-1363.25" y1="-11181.44" x2="-1359.27" y2="-11191.23" gradientTransform="translate(-10359.09 -4405.86) rotate(120)" gradientUnits="userSpaceOnUse"><stop offset="0" stop-color="#fcb813"/><stop offset="0.68" stop-color="#f48120"/><stop offset="1" stop-color="#dc5928"/></linearGradient><linearGradient id="linear-gradient-3" x1="1.84" y1="19.44" x2="5.82" y2="9.65" gradientTransform="matrix(1, 0, 0, 1, 0, 0)" xlink:href="#linear-gradient"/></defs><path class="cls-1" d="M16.08,9.49h0a1.1,1.1,0,0,1-.23.25h0l0,0h0l0,0-.82.6-2.69,2h0L6.49,16.81,7,21.15v.12h0a.75.75,0,0,0,.1.31h0l0,0v0h0a1.07,1.07,0,0,0,.92.51,1.08,1.08,0,0,0,.92-.5H9a0,0,0,0,0,0,0h0l0-.06L16,9.72l0-.07Z"/><path class="cls-2" d="M1.31,7.82h13.9a1.08,1.08,0,0,1,.89.55,1.09,1.09,0,0,1,0,1.05h0s0,0,0,0l0,0h0a1.37,1.37,0,0,1-.23.25h0l-.09.07-3.51,2.64L5.61,9.64h0L2.52,8.33l-.93-.4-.06,0-.07,0h0a1.16,1.16,0,0,0-.31-.07h.16Z"/><path class="cls-3" d="M7.06,21.44l0-.06L.16,9.49l0-.06h0v0h0a1.07,1.07,0,0,1,0-1,1.07,1.07,0,0,1,.9-.55h.09a1.14,1.14,0,0,1,.32.07h0l.1,0,4,1.71.88,7.17h0l.42,3.33.12,1v.06H7l0,.06h0a.94.94,0,0,0,.1.31h0Z"/><path class="cls-4" d="M22.75,11.46v9h-2v-9H18.27V9.67h7v1.79Z"/><path class="cls-4" d="M30.26,16.55a6.49,6.49,0,0,1-1-.07v4h-2V10.25a7.72,7.72,0,0,1,3.08-.58c2.65,0,4.1,1.36,4.1,3.47C34.42,15.1,33,16.55,30.26,16.55Zm.08-5.26a3.38,3.38,0,0,0-1.06.16v3.42a4.12,4.12,0,0,0,.88.08c1.45,0,2.24-.69,2.24-1.82S31.69,11.29,30.34,11.29Z"/><path class="cls-4" d="M39.35,20.45a7.8,7.8,0,0,1-2.91-.56V10.22a7.33,7.33,0,0,1,2.87-.55c2.38,0,3.62,1.11,3.62,2.73a2.46,2.46,0,0,1-1.78,2.42v0a2.7,2.7,0,0,1,2.14,2.66C43.29,19.33,41.85,20.45,39.35,20.45Zm0-9.79a5.32,5.32,0,0,0-1.68.25v3.54h1.53A2.77,2.77,0,0,0,41,14a1.85,1.85,0,0,0,.7-1.53C41.73,11.35,40.85,10.66,39.31,10.66Zm1.77,5.08a3.49,3.49,0,0,0-1.87-.36H37.63V19.2a5.93,5.93,0,0,0,1.72.26c1.73,0,2.7-.7,2.7-2A1.84,1.84,0,0,0,41.08,15.74Z"/><path class="cls-4" d="M47.68,20.45c-2.14,0-3.21-.91-3.21-2.39,0-2.22,2.4-2.55,4.76-2.68v-.59c0-1.16-.77-1.53-1.86-1.53a5.47,5.47,0,0,0-2.12.49l-.32-.85a6.47,6.47,0,0,1,2.55-.55c1.75,0,2.89.69,2.89,2.53v5A6.31,6.31,0,0,1,47.68,20.45Zm1.55-4.23c-1.74.1-3.61.19-3.61,1.81,0,.92.67,1.51,2,1.51a4.77,4.77,0,0,0,1.58-.25Z"/><path class="cls-4" d="M56.31,20.45V15.1c0-1.06-.63-1.73-1.89-1.73a4.74,4.74,0,0,0-1.66.28v6.8H51.55V12.93a7.13,7.13,0,0,1,2.86-.56c2.05,0,3.1,1,3.1,2.63v5.45Z"/><path class="cls-4" d="M63.57,20.45l-3.65-4h0v4h-1.2V9.55h1.2v6.68h0l3.64-3.86H65l-3.77,4L65,20.45Z"/></svg>