<svg id="Layer_1" data-name="Layer 1" xmlns="http://www.w3.org/2000/svg" viewBox="0 0 65 30"><defs><style>.cls-1{fill:#eb2d4b;}.cls-2{fill:#141ed2;}</style></defs><path class="cls-1" d="M18.87,14.67c-.55,0-1.37-.56-1.37-1.14l.32-4.67a1,1,0,0,1,1-1h0a1,1,0,0,1,1,1l.35,4.7c0,.58-.74,1.11-1.3,1.11Z"/><path class="cls-1" d="M15.91,11.46c-.18.53-1,1.14-1.52.95l-4.32-1.76a1,1,0,0,1-.69-1.28h0a1,1,0,0,1,1.31-.62l4.57,1.13a1.38,1.38,0,0,1,.65,1.58Z"/><path class="cls-1" d="M11.94,13.35a1.49,1.49,0,0,1,.45,1.73l-3,3.59A1,1,0,0,1,8,18.93H8a1,1,0,0,1-.2-1.43l2.47-4a1.35,1.35,0,0,1,1.7-.13Z"/><path class="cls-1" d="M12.47,17.69a1.5,1.5,0,0,1,1.79.11l2.47,4a1,1,0,0,1-.18,1.44h0a1,1,0,0,1-1.43-.26l-3-3.59a1.36,1.36,0,0,1,.4-1.66Z"/><path class="cls-1" d="M16.74,18.47a1.49,1.49,0,0,1,.68-1.65L22,15.75a1,1,0,0,1,1.3.64h0a1,1,0,0,1-.71,1.27l-4.38,1.73a1.36,1.36,0,0,1-1.44-.92Z"/><path class="cls-1" d="M18.91,26.35c-.55,0-1.37-.51-1.37-1.05L17.83,21a1,1,0,0,1,1-1h0a1,1,0,0,1,1,1l.38,4.35c0,.54-.73,1-1.28,1Z"/><path class="cls-1" d="M27.08,15.08c-.16.52-.9,1.15-1.42,1l-4-1.6A1,1,0,0,1,21,13.24h0a1,1,0,0,1,1.23-.65l4.26,1c.51.16.75,1,.59,1.53Z"/><path class="cls-1" d="M19,3.94c.43.34.75,1.25.41,1.67L16.48,8.79a1,1,0,0,1-1.38.14h0a1,1,0,0,1-.16-1.37l2.44-3.63a1.32,1.32,0,0,1,1.64,0Z"/><path class="cls-1" d="M5.55,8.27C6,7.94,7,7.87,7.28,8.3l2.33,3.64a1,1,0,0,1-.21,1.38h0A1,1,0,0,1,8,13.13L5.14,9.86a1.31,1.31,0,0,1,.41-1.59Z"/><path class="cls-1" d="M5.58,22.19c-.18-.52,0-1.46.57-1.63l4.19-1.07a1,1,0,0,1,1.24.62h0A1,1,0,0,1,11,21.36L7,23.08c-.51.17-1.21-.37-1.38-.89Z"/><path class="cls-2" d="M30.56,22s1-13.5,1.16-14.14H35l3.39,7.31L42,7.75h3.17S46.34,21.21,46.29,22H43l-.37-8.42L39.72,20.3H37.5l-3.13-6.77-.53,8.58Z"/><path class="cls-2" d="M60,16.65a5,5,0,0,0-1.8-2.38,3.48,3.48,0,0,0,1.16-3.5c-.42-2.38-3.39-3-5.24-3s-5.61.11-5.61.11V22a56.92,56.92,0,0,0,7,.16C56.67,21.89,60.48,21.79,60,16.65Zm-8.16-6.21s4-.6,4.13,1.09a1.44,1.44,0,0,1-1.44,1.7H51.79Zm3,8.69h-3V16s4.43-.67,4.59,1.21A1.61,1.61,0,0,1,54.81,19.13Z"/></svg>